<svg width="16" height="16" viewBox="0 0 16 16" fill="none" xmlns="http://www.w3.org/2000/svg">
<path d="M14.0599 0H2.63135C1.71707 0 0.980561 0.736508 0.980561 1.65079V5.15555C0.980561 7.51746 0.688498 9.87936 0.117069 12.1778L0.040879 12.4952C-0.0607083 12.9143 0.0281806 13.346 0.294847 13.6889C0.561514 14.0317 0.967863 14.2222 1.39961 14.2222H11.1012C11.9774 14.2222 12.7393 13.6254 12.9552 12.7746L13.0568 12.3556C13.6409 10.0063 13.9456 7.58095 13.9456 5.15555V0.761905H14.0726C14.5679 0.761905 14.9615 1.15556 14.9615 1.65079V14.3492C14.9615 14.8444 14.5679 15.2381 14.0726 15.2381H2.63135C2.41548 15.2381 2.2504 15.4032 2.2504 15.619C2.2504 15.8349 2.41548 16 2.63135 16H14.0599C14.9742 16 15.7107 15.2635 15.7107 14.3492V1.65079C15.7107 0.736508 14.9742 0 14.0599 0ZM9.52659 8.66032C9.4377 8.85079 9.20913 8.92698 9.01866 8.8381C8.95516 8.8127 8.90437 8.7873 8.86628 8.7873C8.72659 8.7746 8.53612 8.95238 8.34564 9.14286C8.09167 9.38413 7.81231 9.66349 7.40596 9.70159C7.36786 9.70159 7.32977 9.70159 7.30437 9.70159C6.74564 9.70159 6.36469 9.21905 6.02183 8.8C5.85675 8.58413 5.60278 8.27936 5.4504 8.24127C5.34882 8.33016 5.17104 8.58413 5.01866 8.8C4.90437 8.95238 4.77739 9.13016 4.6377 9.30794C4.51072 9.47302 4.26945 9.49841 4.10437 9.37143C3.93929 9.24444 3.91389 9.00317 4.04088 8.8381C4.16786 8.67302 4.29485 8.49524 4.40913 8.34286C4.80278 7.80952 5.00596 7.51746 5.32342 7.47936C5.89485 7.40317 6.2758 7.88571 6.61866 8.31746C6.84723 8.59682 7.13929 8.95238 7.32977 8.93968C7.46945 8.92698 7.64723 8.74921 7.82501 8.58413C8.10437 8.31746 8.45993 7.9746 8.95517 8.0254C9.09485 8.03809 9.23453 8.07619 9.37421 8.15238C9.55199 8.24127 9.62818 8.46984 9.52659 8.66032ZM10.5044 9.65079C10.2885 9.65079 10.1234 9.48571 10.1234 9.26984C10.1234 9.05397 10.2885 8.88889 10.5044 8.88889C10.7202 8.88889 10.8853 9.05397 10.8853 9.26984C10.8853 9.48571 10.7202 9.65079 10.5044 9.65079Z" fill="white"/>
</svg>
