<?xml version="1.0" encoding="UTF-8"?>
<svg viewBox="0 0 426 360" xmlns="http://www.w3.org/2000/svg">
<rect width="425.46" height="360" fill="#121212"/>
<path d="m7.7922 23.792c0-8.8365 7.1635-16 16-16h24.104c8.8366 0 16 7.1634 16 16v24.104c0 8.8366-7.1634 16-16 16h-24.104c-8.8365 0-16-7.1634-16-16v-24.104z" fill="#191919"/>
<path d="m35.912 24.156c-3.6427 0-6.6065 2.9637-6.6065 6.6064v2.7176c-1.1837 0.4189-2.0327 1.5451-2.0327 2.8725v8.131c0 1.6841 1.365 3.0491 3.0491 3.0491h11.18c1.6842 0 3.0491-1.365 3.0491-3.0491v-8.131c0-1.3274-0.849-2.4536-2.0327-2.8725v-2.7176c0-3.6427-2.9638-6.6064-6.6064-6.6064zm0 2.0327c2.5221 0 4.5736 2.0521 4.5736 4.5737v2.5409h-9.1473v-2.5409c0-2.5216 2.0515-4.5737 4.5737-4.5737z" fill="#5E5F5E"/>
<path d="m65.454 23.792c0-8.8365 7.1635-16 16-16h24.104c8.837 0 16 7.1634 16 16v24.104c0 8.8366-7.163 16-16 16h-24.104c-8.8365 0-16-7.1634-16-16v-24.104z" fill="#191919"/>
<path d="m93.574 24.156c-3.6426 0-6.6064 2.9637-6.6064 6.6064v2.7176c-1.1837 0.4189-2.0327 1.5451-2.0327 2.8725v8.131c0 1.6841 1.365 3.0491 3.0491 3.0491h11.18c1.6837 0 3.0487-1.365 3.0487-3.0491v-8.131c0-1.3274-0.849-2.4536-2.032-2.8725v-2.7176c0-3.6427-2.9641-6.6064-6.6068-6.6064zm0 2.0327c2.5222 0 4.5737 2.0521 4.5737 4.5737v2.5409h-9.1473v-2.5409c0-2.5216 2.0515-4.5737 4.5736-4.5737z" fill="#5E5F5E"/>
<path d="m65.454 81.454c0-8.8365 7.1635-16 16-16h24.104c8.837 0 16 7.1635 16 16v24.104c0 8.837-7.163 16-16 16h-24.104c-8.8365 0-16-7.163-16-16v-24.104z" fill="#191919"/>
<path d="m93.574 81.818c-3.6426 0-6.6064 2.9637-6.6064 6.6064v2.7176c-1.1837 0.4189-2.0327 1.5452-2.0327 2.8725v8.1313c0 1.684 1.365 3.049 3.0491 3.049h11.18c1.6837 0 3.0487-1.365 3.0487-3.049v-8.1313c0-1.3273-0.849-2.4536-2.032-2.8725v-2.7176c0-3.6427-2.9641-6.6064-6.6068-6.6064zm0 2.0327c2.5222 0 4.5737 2.0521 4.5737 4.5737v2.541h-9.1473v-2.541c0-2.5216 2.0515-4.5737 4.5736-4.5737z" fill="#fff"/>
<path d="m65.454 139.12c0-8.837 7.1635-16 16-16h24.104c8.837 0 16 7.163 16 16v24.104c0 8.836-7.163 16-16 16h-24.104c-8.8365 0-16-7.164-16-16v-24.104z" fill="#191919"/>
<path d="m93.574 139.48c-3.6426 0-6.6064 2.963-6.6064 6.606v2.718c-1.1837 0.418-2.0327 1.545-2.0327 2.872v8.131c0 1.684 1.365 3.049 3.0491 3.049h11.18c1.6837 0 3.0487-1.365 3.0487-3.049v-8.131c0-1.327-0.849-2.454-2.032-2.872v-2.718c0-3.643-2.9641-6.606-6.6068-6.606zm0 2.032c2.5222 0 4.5737 2.052 4.5737 4.574v2.541h-9.1473v-2.541c0-2.522 2.0515-4.574 4.5736-4.574z" fill="#5E5F5E"/>
<path d="m65.454 196.78c0-8.836 7.1635-16 16-16h24.104c8.837 0 16 7.164 16 16v24.104c0 8.837-7.163 16-16 16h-24.104c-8.8365 0-16-7.163-16-16v-24.104z" fill="#191919"/>
<path d="m93.574 197.14c-3.6426 0-6.6064 2.964-6.6064 6.606v2.718c-1.1837 0.419-2.0327 1.545-2.0327 2.872v8.131c0 1.684 1.365 3.049 3.0491 3.049h11.18c1.6837 0 3.0487-1.365 3.0487-3.049v-8.131c0-1.327-0.849-2.453-2.032-2.872v-2.718c0-3.642-2.9641-6.606-6.6068-6.606zm0 2.033c2.5222 0 4.5737 2.052 4.5737 4.573v2.541h-9.1473v-2.541c0-2.521 2.0515-4.573 4.5736-4.573z" fill="#5E5F5E"/>
<path d="m65.454 254.44c0-8.837 7.1635-16 16-16h24.104c8.837 0 16 7.163 16 16v24.103c0 8.837-7.163 16-16 16h-24.104c-8.8365 0-16-7.163-16-16v-24.103z" fill="#191919"/>
<path d="m65.454 312.1c0-8.837 7.1635-16 16-16h24.104c8.837 0 16 7.163 16 16v24.104c0 8.836-7.163 16-16 16h-24.104c-8.8365 0-16-7.164-16-16v-24.104z" fill="#191919"/>
<path d="m93.574 312.47c-3.6426 0-6.6064 2.963-6.6064 6.606v2.718c-1.1837 0.418-2.0327 1.545-2.0327 2.872v8.131c0 1.684 1.365 3.049 3.0491 3.049h11.18c1.6837 0 3.0487-1.365 3.0487-3.049v-8.131c0-1.327-0.849-2.454-2.032-2.872v-2.718c0-3.643-2.9641-6.606-6.6068-6.606zm0 2.032c2.5222 0 4.5737 2.052 4.5737 4.574v2.541h-9.1473v-2.541c0-2.522 2.0515-4.574 4.5736-4.574z" fill="#5E5F5E"/>
<path d="m123.12 254.44c0-8.837 7.163-16 16-16h24.104c8.836 0 16 7.163 16 16v24.103c0 8.837-7.164 16-16 16h-24.104c-8.837 0-16-7.163-16-16v-24.103z" fill="#191919"/>
<path d="m151.24 254.8c-3.643 0-6.607 2.964-6.607 6.607v2.717c-1.184 0.419-2.033 1.545-2.033 2.873v8.131c0 1.684 1.365 3.049 3.05 3.049h11.18c1.684 0 3.049-1.365 3.049-3.049v-8.131c0-1.328-0.849-2.454-2.033-2.873v-2.717c0-3.643-2.964-6.607-6.606-6.607zm0 2.033c2.522 0 4.573 2.052 4.573 4.574v2.541h-9.147v-2.541c0-2.522 2.051-4.574 4.574-4.574z" fill="#5E5F5E"/>
<path d="m123.12 312.1c0-8.837 7.163-16 16-16h24.104c8.836 0 16 7.163 16 16v24.104c0 8.836-7.164 16-16 16h-24.104c-8.837 0-16-7.164-16-16v-24.104z" fill="#191919"/>
<path d="m151.24 312.47c-3.643 0-6.607 2.963-6.607 6.606v2.718c-1.184 0.418-2.033 1.545-2.033 2.872v8.131c0 1.684 1.365 3.049 3.05 3.049h11.18c1.684 0 3.049-1.365 3.049-3.049v-8.131c0-1.327-0.849-2.454-2.033-2.872v-2.718c0-3.643-2.964-6.606-6.606-6.606zm0 2.032c2.522 0 4.573 2.052 4.573 4.574v2.541h-9.147v-2.541c0-2.522 2.051-4.574 4.574-4.574z" fill="#5E5F5E"/>
<path d="m180.78 254.44c0-8.837 7.164-16 16-16h24.104c8.837 0 16 7.163 16 16v24.103c0 8.837-7.163 16-16 16h-24.104c-8.836 0-16-7.163-16-16v-24.103z" fill="#191919"/>
<path d="m208.9 254.8c-3.643 0-6.607 2.964-6.607 6.607v2.717c-1.183 0.419-2.032 1.545-2.032 2.873v8.131c0 1.684 1.365 3.049 3.049 3.049h11.18c1.684 0 3.049-1.365 3.049-3.049v-8.131c0-1.328-0.849-2.454-2.033-2.873v-2.717c0-3.643-2.963-6.607-6.606-6.607zm0 2.033c2.522 0 4.574 2.052 4.574 4.574v2.541h-9.148v-2.541c0-2.522 2.052-4.574 4.574-4.574z" fill="#5E5F5E"/>
<path d="m238.44 254.44c0-8.837 7.163-16 16-16h24.103c8.837 0 16 7.163 16 16v24.103c0 8.837-7.163 16-16 16h-24.103c-8.837 0-16-7.163-16-16v-24.103z" fill="#191919"/>
<path d="m266.56 254.8c-3.643 0-6.606 2.964-6.606 6.607v2.717c-1.184 0.419-2.033 1.545-2.033 2.873v8.131c0 1.684 1.365 3.049 3.049 3.049h11.18c1.684 0 3.049-1.365 3.049-3.049v-8.131c0-1.328-0.849-2.454-2.032-2.873v-2.717c0-3.643-2.964-6.607-6.607-6.607zm0 2.033c2.522 0 4.574 2.052 4.574 4.574v2.541h-9.148v-2.541c0-2.522 2.052-4.574 4.574-4.574z" fill="#5E5F5E"/>
<path d="m238.44 312.1c0-8.837 7.163-16 16-16h24.103c8.837 0 16 7.163 16 16v24.104c0 8.836-7.163 16-16 16h-24.103c-8.837 0-16-7.164-16-16v-24.104z" fill="#191919"/>
<path d="m266.56 312.47c-3.643 0-6.606 2.963-6.606 6.606v2.718c-1.184 0.418-2.033 1.545-2.033 2.872v8.131c0 1.684 1.365 3.049 3.049 3.049h11.18c1.684 0 3.049-1.365 3.049-3.049v-8.131c0-1.327-0.849-2.454-2.032-2.872v-2.718c0-3.643-2.964-6.606-6.607-6.606zm0 2.032c2.522 0 4.574 2.052 4.574 4.574v2.541h-9.148v-2.541c0-2.522 2.052-4.574 4.574-4.574z" fill="#5E5F5E"/>
<path d="m296.1 312.1c0-8.837 7.163-16 16-16h24.104c8.836 0 16 7.163 16 16v24.104c0 8.836-7.164 16-16 16h-24.104c-8.837 0-16-7.164-16-16v-24.104z" fill="#191919"/>
<path d="m324.22 312.47c-3.643 0-6.607 2.963-6.607 6.606v2.718c-1.184 0.418-2.033 1.545-2.033 2.872v8.131c0 1.684 1.365 3.049 3.049 3.049h11.181c1.684 0 3.049-1.365 3.049-3.049v-8.131c0-1.327-0.849-2.454-2.033-2.872v-2.718c0-3.643-2.964-6.606-6.606-6.606zm0 2.032c2.522 0 4.573 2.052 4.573 4.574v2.541h-9.147v-2.541c0-2.522 2.051-4.574 4.574-4.574z" fill="#5E5F5E"/>
<path d="m296.1 254.44c0-8.837 7.163-16 16-16h24.104c8.836 0 16 7.163 16 16v24.103c0 8.837-7.164 16-16 16h-24.104c-8.837 0-16-7.163-16-16v-24.103z" fill="#191919"/>
<path d="m324.22 254.8c-3.643 0-6.607 2.964-6.607 6.607v2.717c-1.184 0.419-2.033 1.545-2.033 2.873v8.131c0 1.684 1.365 3.049 3.049 3.049h11.181c1.684 0 3.049-1.365 3.049-3.049v-8.131c0-1.328-0.849-2.454-2.033-2.873v-2.717c0-3.643-2.964-6.607-6.606-6.607zm0 2.033c2.522 0 4.573 2.052 4.573 4.574v2.541h-9.147v-2.541c0-2.522 2.051-4.574 4.574-4.574z" fill="#fff"/>
<path d="m180.78 312.1c0-8.837 7.164-16 16-16h24.104c8.837 0 16 7.163 16 16v24.104c0 8.836-7.163 16-16 16h-24.104c-8.836 0-16-7.164-16-16v-24.104z" fill="#191919"/>
<path d="m208.9 312.47c-3.643 0-6.607 2.963-6.607 6.606v2.718c-1.183 0.418-2.032 1.545-2.032 2.872v8.131c0 1.684 1.365 3.049 3.049 3.049h11.18c1.684 0 3.049-1.365 3.049-3.049v-8.131c0-1.327-0.849-2.454-2.033-2.872v-2.718c0-3.643-2.963-6.606-6.606-6.606zm0 2.032c2.522 0 4.574 2.052 4.574 4.574v2.541h-9.148v-2.541c0-2.522 2.052-4.574 4.574-4.574z" fill="#5E5F5E"/>
<path d="m123.12 139.12c0-8.837 7.163-16 16-16h24.104c8.836 0 16 7.163 16 16v24.104c0 8.836-7.164 16-16 16h-24.104c-8.837 0-16-7.164-16-16v-24.104z" fill="#191919"/>
<path d="m123.12 196.78c0-8.836 7.163-16 16-16h24.104c8.836 0 16 7.164 16 16v24.104c0 8.837-7.164 16-16 16h-24.104c-8.837 0-16-7.163-16-16v-24.104z" fill="#191919"/>
<path d="m151.24 197.14c-3.643 0-6.607 2.964-6.607 6.606v2.718c-1.184 0.419-2.033 1.545-2.033 2.872v8.131c0 1.684 1.365 3.049 3.05 3.049h11.18c1.684 0 3.049-1.365 3.049-3.049v-8.131c0-1.327-0.849-2.453-2.033-2.872v-2.718c0-3.642-2.964-6.606-6.606-6.606zm0 2.033c2.522 0 4.573 2.052 4.573 4.573v2.541h-9.147v-2.541c0-2.521 2.051-4.573 4.574-4.573z" fill="#fff"/>
<path d="m180.78 196.78c0-8.836 7.164-16 16-16h24.104c8.837 0 16 7.164 16 16v24.104c0 8.837-7.163 16-16 16h-24.104c-8.836 0-16-7.163-16-16v-24.104z" fill="#191919"/>
<path d="m208.9 197.14c-3.643 0-6.607 2.964-6.607 6.606v2.718c-1.183 0.419-2.032 1.545-2.032 2.872v8.131c0 1.684 1.365 3.049 3.049 3.049h11.18c1.684 0 3.049-1.365 3.049-3.049v-8.131c0-1.327-0.849-2.453-2.033-2.872v-2.718c0-3.642-2.963-6.606-6.606-6.606zm0 2.033c2.522 0 4.574 2.052 4.574 4.573v2.541h-9.148v-2.541c0-2.521 2.052-4.573 4.574-4.573z" fill="#5E5F5E"/>
<path d="m238.44 196.78c0-8.836 7.163-16 16-16h24.103c8.837 0 16 7.164 16 16v24.104c0 8.837-7.163 16-16 16h-24.103c-8.837 0-16-7.163-16-16v-24.104z" fill="#191919"/>
<path d="m296.1 196.78c0-8.836 7.163-16 16-16h24.104c8.836 0 16 7.164 16 16v24.104c0 8.837-7.164 16-16 16h-24.104c-8.837 0-16-7.163-16-16v-24.104z" fill="#191919"/>
<path d="m324.22 197.14c-3.643 0-6.607 2.964-6.607 6.606v2.718c-1.184 0.419-2.033 1.545-2.033 2.872v8.131c0 1.684 1.365 3.049 3.049 3.049h11.181c1.684 0 3.049-1.365 3.049-3.049v-8.131c0-1.327-0.849-2.453-2.033-2.872v-2.718c0-3.642-2.964-6.606-6.606-6.606zm0 2.033c2.522 0 4.573 2.052 4.573 4.573v2.541h-9.147v-2.541c0-2.521 2.051-4.573 4.574-4.573z" fill="#5E5F5E"/>
<path d="m180.78 139.12c0-8.837 7.164-16 16-16h24.104c8.837 0 16 7.163 16 16v24.104c0 8.836-7.163 16-16 16h-24.104c-8.836 0-16-7.164-16-16v-24.104z" fill="#191919"/>
<path d="m208.9 139.48c-3.643 0-6.607 2.963-6.607 6.606v2.718c-1.183 0.418-2.032 1.545-2.032 2.872v8.131c0 1.684 1.365 3.049 3.049 3.049h11.18c1.684 0 3.049-1.365 3.049-3.049v-8.131c0-1.327-0.849-2.454-2.033-2.872v-2.718c0-3.643-2.963-6.606-6.606-6.606zm0 2.032c2.522 0 4.574 2.052 4.574 4.574v2.541h-9.148v-2.541c0-2.522 2.052-4.574 4.574-4.574z" fill="#fff"/>
<path d="m238.44 139.12c0-8.837 7.163-16 16-16h24.103c8.837 0 16 7.163 16 16v24.104c0 8.836-7.163 16-16 16h-24.103c-8.837 0-16-7.164-16-16v-24.104z" fill="#191919"/>
<path d="m266.56 139.48c-3.643 0-6.606 2.963-6.606 6.606v2.718c-1.184 0.418-2.033 1.545-2.033 2.872v8.131c0 1.684 1.365 3.049 3.049 3.049h11.18c1.684 0 3.049-1.365 3.049-3.049v-8.131c0-1.327-0.849-2.454-2.032-2.872v-2.718c0-3.643-2.964-6.606-6.607-6.606zm0 2.032c2.522 0 4.574 2.052 4.574 4.574v2.541h-9.148v-2.541c0-2.522 2.052-4.574 4.574-4.574z" fill="#5E5F5E"/>
<path d="m296.1 139.12c0-8.837 7.163-16 16-16h24.104c8.836 0 16 7.163 16 16v24.104c0 8.836-7.164 16-16 16h-24.104c-8.837 0-16-7.164-16-16v-24.104z" fill="#191919"/>
<path d="m324.22 139.48c-3.643 0-6.607 2.963-6.607 6.606v2.718c-1.184 0.418-2.033 1.545-2.033 2.872v8.131c0 1.684 1.365 3.049 3.049 3.049h11.181c1.684 0 3.049-1.365 3.049-3.049v-8.131c0-1.327-0.849-2.454-2.033-2.872v-2.718c0-3.643-2.964-6.606-6.606-6.606zm0 2.032c2.522 0 4.573 2.052 4.573 4.574v2.541h-9.147v-2.541c0-2.522 2.051-4.574 4.574-4.574z" fill="#5E5F5E"/>
<path d="m123.12 81.454c0-8.8365 7.163-16 16-16h24.104c8.836 0 16 7.1635 16 16v24.104c0 8.837-7.164 16-16 16h-24.104c-8.837 0-16-7.163-16-16v-24.104z" fill="#191919"/>
<path d="m151.24 81.818c-3.643 0-6.607 2.9637-6.607 6.6064v2.7176c-1.184 0.4189-2.033 1.5452-2.033 2.8725v8.1313c0 1.684 1.365 3.049 3.05 3.049h11.18c1.684 0 3.049-1.365 3.049-3.049v-8.1313c0-1.3273-0.849-2.4536-2.033-2.8725v-2.7176c0-3.6427-2.964-6.6064-6.606-6.6064zm0 2.0327c2.522 0 4.573 2.0521 4.573 4.5737v2.541h-9.147v-2.541c0-2.5216 2.051-4.5737 4.574-4.5737z" fill="#5E5F5E"/>
<path d="m180.78 81.454c0-8.8365 7.164-16 16-16h24.104c8.837 0 16 7.1635 16 16v24.104c0 8.837-7.163 16-16 16h-24.104c-8.836 0-16-7.163-16-16v-24.104z" fill="#191919"/>
<path d="m208.9 81.818c-3.643 0-6.607 2.9637-6.607 6.6064v2.7176c-1.183 0.4189-2.032 1.5452-2.032 2.8725v8.1313c0 1.684 1.365 3.049 3.049 3.049h11.18c1.684 0 3.049-1.365 3.049-3.049v-8.1313c0-1.3273-0.849-2.4536-2.033-2.8725v-2.7176c0-3.6427-2.963-6.6064-6.606-6.6064zm0 2.0327c2.522 0 4.574 2.0521 4.574 4.5737v2.541h-9.148v-2.541c0-2.5216 2.052-4.5737 4.574-4.5737z" fill="#5E5F5E"/>
<path d="m238.44 81.454c0-8.8365 7.163-16 16-16h24.103c8.837 0 16 7.1635 16 16v24.104c0 8.837-7.163 16-16 16h-24.103c-8.837 0-16-7.163-16-16v-24.104z" fill="#191919"/>
<path d="m296.1 81.454c0-8.8365 7.163-16 16-16h24.104c8.836 0 16 7.1635 16 16v24.104c0 8.837-7.164 16-16 16h-24.104c-8.837 0-16-7.163-16-16v-24.104z" fill="#191919"/>
<path d="m324.22 81.818c-3.643 0-6.607 2.9637-6.607 6.6064v2.7176c-1.184 0.4189-2.033 1.5452-2.033 2.8725v8.1313c0 1.684 1.365 3.049 3.049 3.049h11.181c1.684 0 3.049-1.365 3.049-3.049v-8.1313c0-1.3273-0.849-2.4536-2.033-2.8725v-2.7176c0-3.6427-2.964-6.6064-6.606-6.6064zm0 2.0327c2.522 0 4.573 2.0521 4.573 4.5737v2.541h-9.147v-2.541c0-2.5216 2.051-4.5737 4.574-4.5737z" fill="#5E5F5E"/>
<path d="m353.77 81.454c0-8.8365 7.164-16 16-16h24.104c8.837 0 16 7.1635 16 16v24.104c0 8.837-7.163 16-16 16h-24.104c-8.836 0-16-7.163-16-16v-24.104z" fill="#191919"/>
<path d="m381.89 81.818c-3.643 0-6.607 2.9637-6.607 6.6064v2.7176c-1.183 0.4189-2.032 1.5452-2.032 2.8725v8.1313c0 1.684 1.365 3.049 3.049 3.049h11.18c1.684 0 3.049-1.365 3.049-3.049v-8.1313c0-1.3273-0.849-2.4536-2.033-2.8725v-2.7176c0-3.6427-2.963-6.6064-6.606-6.6064zm0 2.0327c2.522 0 4.574 2.0521 4.574 4.5737v2.541h-9.148v-2.541c0-2.5216 2.052-4.5737 4.574-4.5737z" fill="#5E5F5E"/>
<path d="m353.77 139.12c0-8.837 7.164-16 16-16h24.104c8.837 0 16 7.163 16 16v24.104c0 8.836-7.163 16-16 16h-24.104c-8.836 0-16-7.164-16-16v-24.104z" fill="#191919"/>
<path d="m381.89 139.48c-3.643 0-6.607 2.963-6.607 6.606v2.718c-1.183 0.418-2.032 1.545-2.032 2.872v8.131c0 1.684 1.365 3.049 3.049 3.049h11.18c1.684 0 3.049-1.365 3.049-3.049v-8.131c0-1.327-0.849-2.454-2.033-2.872v-2.718c0-3.643-2.963-6.606-6.606-6.606zm0 2.032c2.522 0 4.574 2.052 4.574 4.574v2.541h-9.148v-2.541c0-2.522 2.052-4.574 4.574-4.574z" fill="#5E5F5E"/>
<path d="m353.77 196.78c0-8.836 7.164-16 16-16h24.104c8.837 0 16 7.164 16 16v24.104c0 8.837-7.163 16-16 16h-24.104c-8.836 0-16-7.163-16-16v-24.104z" fill="#191919"/>
<path d="m381.89 197.14c-3.643 0-6.607 2.964-6.607 6.606v2.718c-1.183 0.419-2.032 1.545-2.032 2.872v8.131c0 1.684 1.365 3.049 3.049 3.049h11.18c1.684 0 3.049-1.365 3.049-3.049v-8.131c0-1.327-0.849-2.453-2.033-2.872v-2.718c0-3.642-2.963-6.606-6.606-6.606zm0 2.033c2.522 0 4.574 2.052 4.574 4.573v2.541h-9.148v-2.541c0-2.521 2.052-4.573 4.574-4.573z" fill="#5E5F5E"/>
<path d="m353.77 254.44c0-8.837 7.164-16 16-16h24.104c8.837 0 16 7.163 16 16v24.103c0 8.837-7.163 16-16 16h-24.104c-8.836 0-16-7.163-16-16v-24.103z" fill="#191919"/>
<path d="m381.89 254.8c-3.643 0-6.607 2.964-6.607 6.607v2.717c-1.183 0.419-2.032 1.545-2.032 2.873v8.131c0 1.684 1.365 3.049 3.049 3.049h11.18c1.684 0 3.049-1.365 3.049-3.049v-8.131c0-1.328-0.849-2.454-2.033-2.873v-2.717c0-3.643-2.963-6.607-6.606-6.607zm0 2.033c2.522 0 4.574 2.052 4.574 4.574v2.541h-9.148v-2.541c0-2.522 2.052-4.574 4.574-4.574z" fill="#5E5F5E"/>
<path d="m353.77 312.1c0-8.837 7.164-16 16-16h24.104c8.837 0 16 7.163 16 16v24.104c0 8.836-7.163 16-16 16h-24.104c-8.836 0-16-7.164-16-16v-24.104z" fill="#191919"/>
<path d="m381.89 312.47c-3.643 0-6.607 2.963-6.607 6.606v2.718c-1.183 0.418-2.032 1.545-2.032 2.872v8.131c0 1.684 1.365 3.049 3.049 3.049h11.18c1.684 0 3.049-1.365 3.049-3.049v-8.131c0-1.327-0.849-2.454-2.033-2.872v-2.718c0-3.643-2.963-6.606-6.606-6.606zm0 2.032c2.522 0 4.574 2.052 4.574 4.574v2.541h-9.148v-2.541c0-2.522 2.052-4.574 4.574-4.574z" fill="#5E5F5E"/>
<path d="m123.12 23.792c0-8.8365 7.163-16 16-16h24.104c8.836 0 16 7.1634 16 16v24.104c0 8.8366-7.164 16-16 16h-24.104c-8.837 0-16-7.1634-16-16v-24.104z" fill="#191919"/>
<path d="m151.24 24.156c-3.643 0-6.607 2.9637-6.607 6.6064v2.7176c-1.184 0.4189-2.033 1.5451-2.033 2.8725v8.131c0 1.6841 1.365 3.0491 3.05 3.0491h11.18c1.684 0 3.049-1.365 3.049-3.0491v-8.131c0-1.3274-0.849-2.4536-2.033-2.8725v-2.7176c0-3.6427-2.964-6.6064-6.606-6.6064zm0 2.0327c2.522 0 4.573 2.0521 4.573 4.5737v2.5409h-9.147v-2.5409c0-2.5216 2.051-4.5737 4.574-4.5737z" fill="#5E5F5E"/>
<path d="m180.78 23.792c0-8.8365 7.164-16 16-16h24.104c8.837 0 16 7.1634 16 16v24.104c0 8.8366-7.163 16-16 16h-24.104c-8.836 0-16-7.1634-16-16v-24.104z" fill="#191919"/>
<path d="m208.9 24.156c-3.643 0-6.607 2.9637-6.607 6.6064v2.7176c-1.183 0.4189-2.032 1.5451-2.032 2.8725v8.131c0 1.6841 1.365 3.0491 3.049 3.0491h11.18c1.684 0 3.049-1.365 3.049-3.0491v-8.131c0-1.3274-0.849-2.4536-2.033-2.8725v-2.7176c0-3.6427-2.963-6.6064-6.606-6.6064zm0 2.0327c2.522 0 4.574 2.0521 4.574 4.5737v2.5409h-9.148v-2.5409c0-2.5216 2.052-4.5737 4.574-4.5737z" fill="#5E5F5E"/>
<path d="m238.44 23.792c0-8.8365 7.163-16 16-16h24.103c8.837 0 16 7.1634 16 16v24.104c0 8.8366-7.163 16-16 16h-24.103c-8.837 0-16-7.1634-16-16v-24.104z" fill="#191919"/>
<path d="m266.56 24.156c-3.643 0-6.606 2.9637-6.606 6.6064v2.7176c-1.184 0.4189-2.033 1.5451-2.033 2.8725v8.131c0 1.6841 1.365 3.0491 3.049 3.0491h11.18c1.684 0 3.049-1.365 3.049-3.0491v-8.131c0-1.3274-0.849-2.4536-2.032-2.8725v-2.7176c0-3.6427-2.964-6.6064-6.607-6.6064zm0 2.0327c2.522 0 4.574 2.0521 4.574 4.5737v2.5409h-9.148v-2.5409c0-2.5216 2.052-4.5737 4.574-4.5737z" fill="#5E5F5E"/>
<path d="m296.1 23.792c0-8.8365 7.163-16 16-16h24.104c8.836 0 16 7.1634 16 16v24.104c0 8.8366-7.164 16-16 16h-24.104c-8.837 0-16-7.1634-16-16v-24.104z" fill="#191919"/>
<path d="m324.22 24.156c-3.643 0-6.607 2.9637-6.607 6.6064v2.7176c-1.184 0.4189-2.033 1.5451-2.033 2.8725v8.131c0 1.6841 1.365 3.0491 3.049 3.0491h11.181c1.684 0 3.049-1.365 3.049-3.0491v-8.131c0-1.3274-0.849-2.4536-2.033-2.8725v-2.7176c0-3.6427-2.964-6.6064-6.606-6.6064zm0 2.0327c2.522 0 4.573 2.0521 4.573 4.5737v2.5409h-9.147v-2.5409c0-2.5216 2.051-4.5737 4.574-4.5737z" fill="#5E5F5E"/>
<path d="m353.77 23.792c0-8.8365 7.164-16 16-16h24.104c8.837 0 16 7.1634 16 16v24.104c0 8.8366-7.163 16-16 16h-24.104c-8.836 0-16-7.1634-16-16v-24.104z" fill="#191919"/>
<path d="m381.89 24.156c-3.643 0-6.607 2.9637-6.607 6.6064v2.7176c-1.183 0.4189-2.032 1.5451-2.032 2.8725v8.131c0 1.6841 1.365 3.0491 3.049 3.0491h11.18c1.684 0 3.049-1.365 3.049-3.0491v-8.131c0-1.3274-0.849-2.4536-2.033-2.8725v-2.7176c0-3.6427-2.963-6.6064-6.606-6.6064zm0 2.0327c2.522 0 4.574 2.0521 4.574 4.5737v2.5409h-9.148v-2.5409c0-2.5216 2.052-4.5737 4.574-4.5737z" fill="#5E5F5E"/>
<path d="m7.7922 81.454c0-8.8365 7.1635-16 16-16h24.104c8.8366 0 16 7.1635 16 16v24.104c0 8.837-7.1634 16-16 16h-24.104c-8.8365 0-16-7.163-16-16v-24.104z" fill="#191919"/>
<path d="m35.912 81.818c-3.6427 0-6.6065 2.9637-6.6065 6.6064v2.7176c-1.1837 0.4189-2.0327 1.5452-2.0327 2.8725v8.1313c0 1.684 1.365 3.049 3.0491 3.049h11.18c1.6842 0 3.0491-1.365 3.0491-3.049v-8.1313c0-1.3273-0.849-2.4536-2.0327-2.8725v-2.7176c0-3.6427-2.9638-6.6064-6.6064-6.6064zm0 2.0327c2.5221 0 4.5736 2.0521 4.5736 4.5737v2.541h-9.1473v-2.541c0-2.5216 2.0515-4.5737 4.5737-4.5737z" fill="#5E5F5E"/>
<path d="m7.7922 139.12c0-8.837 7.1635-16 16-16h24.104c8.8366 0 16 7.163 16 16v24.104c0 8.836-7.1634 16-16 16h-24.104c-8.8365 0-16-7.164-16-16v-24.104z" fill="#191919"/>
<path d="m35.912 139.48c-3.6427 0-6.6065 2.963-6.6065 6.606v2.718c-1.1837 0.418-2.0327 1.545-2.0327 2.872v8.131c0 1.684 1.365 3.049 3.0491 3.049h11.18c1.6842 0 3.0491-1.365 3.0491-3.049v-8.131c0-1.327-0.849-2.454-2.0327-2.872v-2.718c0-3.643-2.9638-6.606-6.6064-6.606zm0 2.032c2.5221 0 4.5736 2.052 4.5736 4.574v2.541h-9.1473v-2.541c0-2.522 2.0515-4.574 4.5737-4.574z" fill="#5E5F5E"/>
<path d="m7.7922 196.78c0-8.836 7.1635-16 16-16h24.104c8.8366 0 16 7.164 16 16v24.104c0 8.837-7.1634 16-16 16h-24.104c-8.8365 0-16-7.163-16-16v-24.104z" fill="#191919"/>
<path d="m35.912 197.14c-3.6427 0-6.6065 2.964-6.6065 6.606v2.718c-1.1837 0.419-2.0327 1.545-2.0327 2.872v8.131c0 1.684 1.365 3.049 3.0491 3.049h11.18c1.6842 0 3.0491-1.365 3.0491-3.049v-8.131c0-1.327-0.849-2.453-2.0327-2.872v-2.718c0-3.642-2.9638-6.606-6.6064-6.606zm0 2.033c2.5221 0 4.5736 2.052 4.5736 4.573v2.541h-9.1473v-2.541c0-2.521 2.0515-4.573 4.5737-4.573z" fill="#5E5F5E"/>
<path d="m7.7922 254.44c0-8.837 7.1635-16 16-16h24.104c8.8366 0 16 7.163 16 16v24.103c0 8.837-7.1634 16-16 16h-24.104c-8.8365 0-16-7.163-16-16v-24.103z" fill="#191919"/>
<path d="m35.912 254.8c-3.6427 0-6.6065 2.964-6.6065 6.607v2.717c-1.1837 0.419-2.0327 1.545-2.0327 2.873v8.131c0 1.684 1.365 3.049 3.0491 3.049h11.18c1.6842 0 3.0491-1.365 3.0491-3.049v-8.131c0-1.328-0.849-2.454-2.0327-2.873v-2.717c0-3.643-2.9638-6.607-6.6064-6.607zm0 2.033c2.5221 0 4.5736 2.052 4.5736 4.574v2.541h-9.1473v-2.541c0-2.522 2.0515-4.574 4.5737-4.574z" fill="#5E5F5E"/>
<path d="m7.7922 312.1c0-8.837 7.1635-16 16-16h24.104c8.8366 0 16 7.163 16 16v24.104c0 8.836-7.1634 16-16 16h-24.104c-8.8365 0-16-7.164-16-16v-24.104z" fill="#191919"/>
<path d="m35.912 312.47c-3.6427 0-6.6065 2.963-6.6065 6.606v2.718c-1.1837 0.418-2.0327 1.545-2.0327 2.872v8.131c0 1.684 1.365 3.049 3.0491 3.049h11.18c1.6842 0 3.0491-1.365 3.0491-3.049v-8.131c0-1.327-0.849-2.454-2.0327-2.872v-2.718c0-3.643-2.9638-6.606-6.6064-6.606zm0 2.032c2.5221 0 4.5736 2.052 4.5736 4.574v2.541h-9.1473v-2.541c0-2.522 2.0515-4.574 4.5737-4.574z" fill="#5E5F5E"/>
<path d="m101.98 265.5v-0.298c0-3.623-2.9287-6.502-6.5022-6.502-2.4816 0-4.7646 1.44-5.8565 3.623-0.546-0.397-1.2408-0.595-1.9357-0.595-1.8364 0-3.3253 1.439-3.4742 3.226-1.886 0.695-3.1765 2.482-3.1765 4.516 0.0497 2.681 2.1838 4.815 4.864 4.815h15.584c2.432 0 4.418-1.986 4.418-4.418 0-2.283-1.688-4.119-3.921-4.367zm-7.9911 6.303c-1.0919 0-2.1342-0.397-2.8787-1.092l-1.0919 1.092v-2.978h2.9779l-1.1911 1.191c0.5459 0.497 1.34 0.794 2.1838 0.794 1.4889 0 2.6801-1.091 2.9282-2.481h0.9927c-0.2482 1.936-1.886 3.474-3.9209 3.474zm3.9705-4.963h-2.9779l1.0919-1.092c-0.5459-0.596-1.2904-0.893-2.0845-0.893-1.4394 0-2.6802 1.042-2.9283 2.481h-0.9927v-0.049c0.2978-1.936 1.9853-3.425 3.921-3.425 1.0919 0 2.0845 0.447 2.7794 1.191l1.1911-1.191v2.978z" fill="#5E5F5E"/>
<path d="m274.97 207.84v-0.298c0-3.623-2.929-6.502-6.502-6.502-2.482 0-4.765 1.439-5.857 3.623-0.546-0.397-1.24-0.595-1.935-0.595-1.837 0-3.326 1.439-3.475 3.226-1.886 0.694-3.176 2.481-3.176 4.516 0.05 2.68 2.184 4.814 4.864 4.814h15.584c2.432 0 4.418-1.985 4.418-4.417 0-2.283-1.688-4.119-3.921-4.367zm-7.991 6.303c-1.092 0-2.134-0.397-2.879-1.092l-1.092 1.092v-2.978h2.978l-1.191 1.191c0.546 0.496 1.34 0.794 2.184 0.794 1.489 0 2.68-1.092 2.928-2.481h0.993c-0.248 1.935-1.886 3.474-3.921 3.474zm3.97-4.963h-2.977l1.091-1.092c-0.545-0.596-1.29-0.894-2.084-0.894-1.439 0-2.68 1.043-2.928 2.482h-0.993v-0.05c0.298-1.935 1.985-3.424 3.921-3.424 1.092 0 2.084 0.446 2.779 1.191l1.191-1.191v2.978z" fill="#5E5F5E"/>
<path d="m158.09 150.18v-0.298c0-3.623-2.928-6.501-6.501-6.501-2.482 0-4.765 1.439-5.857 3.623-0.546-0.397-1.241-0.596-1.936-0.596-1.836 0-3.325 1.439-3.474 3.226-1.886 0.695-3.176 2.482-3.176 4.517 0.049 2.68 2.184 4.814 4.864 4.814h15.584c2.432 0 4.417-1.985 4.417-4.417 0-2.283-1.687-4.12-3.921-4.368zm-7.99 6.303c-1.092 0-2.134-0.397-2.879-1.091l-1.092 1.091v-2.977h2.978l-1.191 1.191c0.546 0.496 1.34 0.794 2.184 0.794 1.489 0 2.68-1.092 2.928-2.482h0.993c-0.248 1.936-1.886 3.474-3.921 3.474zm3.97-4.963h-2.978l1.092-1.092c-0.546-0.595-1.29-0.893-2.084-0.893-1.44 0-2.68 1.042-2.929 2.482h-0.992v-0.05c0.298-1.936 1.985-3.425 3.921-3.425 1.092 0 2.084 0.447 2.779 1.191l1.191-1.191v2.978z" fill="#5E5F5E"/>
<path d="m274.97 92.514v-0.2978c0-3.6232-2.929-6.5018-6.502-6.5018-2.482 0-4.765 1.4393-5.857 3.6231-0.546-0.397-1.24-0.5956-1.935-0.5956-1.837 0-3.326 1.4394-3.475 3.2261-1.886 0.6949-3.176 2.4816-3.176 4.5165 0.05 2.6801 2.184 4.8146 4.864 4.8146h15.584c2.432 0 4.418-1.9856 4.418-4.4175 0-2.2831-1.688-4.1195-3.921-4.3676zm-7.991 6.3032c-1.092 0-2.134-0.397-2.879-1.0919l-1.092 1.0919v-2.9779h2.978l-1.191 1.1912c0.546 0.4963 1.34 0.7941 2.184 0.7941 1.489 0 2.68-1.0919 2.928-2.4816h0.993c-0.248 1.9356-1.886 3.4742-3.921 3.4742zm3.97-4.9632h-2.977l1.091-1.0919c-0.545-0.5956-1.29-0.8934-2.084-0.8934-1.439 0-2.68 1.0423-2.928 2.4816h-0.993v-0.0496c0.298-1.9356 1.985-3.4246 3.921-3.4246 1.092 0 2.084 0.4467 2.779 1.1912l1.191-1.1912v2.9779z" fill="#5E5F5E"/>
</svg>
