<?xml version="1.0" encoding="UTF-8"?>
<svg viewBox="0 0 220 187" xmlns="http://www.w3.org/2000/svg">
<rect width="220" height="186.15" fill="#121212"/>
<path d="m4.0293 18.535c0-8.0112 6.4943-14.506 14.506-14.506s14.506 6.4943 14.506 14.506-6.4943 14.506-14.506 14.506-14.506-6.4943-14.506-14.506z" fill="#191919"/>
<path d="m18.57 12.491c-1.8836 0-3.4161 1.5326-3.4161 3.4162v1.4053c-0.6121 0.2165-1.0512 0.7989-1.0512 1.4853v4.2045c0 0.8708 0.7059 1.5767 1.5767 1.5767h5.7812c0.8709 0 1.5767-0.7059 1.5767-1.5767v-4.2045c0-0.6864-0.439-1.2688-1.0511-1.4853v-1.4053c0-1.8836-1.5326-3.4162-3.4162-3.4162zm0 1.0512c1.3042 0 2.365 1.0611 2.365 2.365v1.3139h-4.73v-1.3139c0-1.3039 1.0608-2.365 2.365-2.365z" fill="#5E5F5E"/>
<path d="m33.846 18.535c0-8.0112 6.4943-14.506 14.506-14.506 8.0111 0 14.506 6.4943 14.506 14.506s-6.4944 14.506-14.506 14.506c-8.0112 0-14.506-6.4943-14.506-14.506z" fill="#191919"/>
<path d="m48.387 12.491c-1.8836 0-3.4161 1.5326-3.4161 3.4162v1.4053c-0.6121 0.2165-1.0512 0.7989-1.0512 1.4853v4.2045c0 0.8708 0.7059 1.5767 1.5767 1.5767h5.7812c0.8708 0 1.5767-0.7059 1.5767-1.5767v-4.2045c0-0.6864-0.439-1.2688-1.0511-1.4853v-1.4053c0-1.8836-1.5326-3.4162-3.4162-3.4162zm0 1.0512c1.3042 0 2.365 1.0611 2.365 2.365v1.3139h-4.73v-1.3139c0-1.3039 1.0608-2.365 2.365-2.365z" fill="#5E5F5E"/>
<path d="m33.846 48.352c0-8.0111 6.4943-14.506 14.506-14.506 8.0111 0 14.506 6.4944 14.506 14.506 0 8.0112-6.4944 14.506-14.506 14.506-8.0112 0-14.506-6.4943-14.506-14.506z" fill="#191919"/>
<path d="m48.387 42.308c-1.8836 0-3.4161 1.5325-3.4161 3.4161v1.4053c-0.6121 0.2166-1.0512 0.799-1.0512 1.4853v4.2045c0 0.8709 0.7059 1.5767 1.5767 1.5767h5.7812c0.8708 0 1.5767-0.7058 1.5767-1.5767v-4.2045c0-0.6863-0.439-1.2687-1.0511-1.4853v-1.4053c0-1.8836-1.5326-3.4161-3.4162-3.4161zm0 1.0511c1.3042 0 2.365 1.0611 2.365 2.365v1.3139h-4.73v-1.3139c0-1.3039 1.0608-2.365 2.365-2.365z" fill="#fff"/>
<path d="m33.846 78.168c0-8.0111 6.4943-14.506 14.506-14.506 8.0111 0 14.506 6.4944 14.506 14.506 0 8.0112-6.4944 14.506-14.506 14.506-8.0112 0-14.506-6.4943-14.506-14.506z" fill="#191919"/>
<path d="m48.387 72.125c-1.8836 0-3.4161 1.5325-3.4161 3.4161v1.4053c-0.6121 0.2166-1.0512 0.799-1.0512 1.4853v4.2045c0 0.8709 0.7059 1.5767 1.5767 1.5767h5.7812c0.8708 0 1.5767-0.7058 1.5767-1.5767v-4.2045c0-0.6863-0.439-1.2687-1.0511-1.4853v-1.4053c0-1.8836-1.5326-3.4161-3.4162-3.4161zm0 1.0511c1.3042 0 2.365 1.0611 2.365 2.365v1.3139h-4.73v-1.3139c0-1.3039 1.0608-2.365 2.365-2.365z" fill="#5E5F5E"/>
<path d="m33.846 107.98c0-8.0108 6.4943-14.505 14.506-14.505 8.0111 0 14.506 6.4943 14.506 14.505 0 8.012-6.4944 14.506-14.506 14.506-8.0112 0-14.506-6.494-14.506-14.506z" fill="#191919"/>
<path d="m48.387 101.94c-1.8836 0-3.4161 1.533-3.4161 3.417v1.405c-0.6121 0.216-1.0512 0.799-1.0512 1.485v4.205c0 0.87 0.7059 1.576 1.5767 1.576h5.7812c0.8708 0 1.5767-0.706 1.5767-1.576v-4.205c0-0.686-0.439-1.269-1.0511-1.485v-1.405c0-1.884-1.5326-3.417-3.4162-3.417zm0 1.052c1.3042 0 2.365 1.061 2.365 2.365v1.313h-4.73v-1.313c0-1.304 1.0608-2.365 2.365-2.365z" fill="#5E5F5E"/>
<path d="m33.846 137.8c0-8.011 6.4943-14.505 14.506-14.505 8.0111 0 14.506 6.494 14.506 14.505s-6.4944 14.506-14.506 14.506c-8.0112 0-14.506-6.495-14.506-14.506z" fill="#191919"/>
<path d="m33.846 167.62c0-8.011 6.4943-14.505 14.506-14.505 8.0111 0 14.506 6.494 14.506 14.505s-6.4944 14.506-14.506 14.506c-8.0112 0-14.506-6.495-14.506-14.506z" fill="#191919"/>
<path d="m48.387 161.58c-1.8836 0-3.4161 1.533-3.4161 3.416v1.405c-0.6121 0.217-1.0512 0.799-1.0512 1.486v4.204c0 0.871 0.7059 1.577 1.5767 1.577h5.7812c0.8708 0 1.5767-0.706 1.5767-1.577v-4.204c0-0.687-0.439-1.269-1.0511-1.486v-1.405c0-1.883-1.5326-3.416-3.4162-3.416zm0 1.051c1.3042 0 2.365 1.061 2.365 2.365v1.314h-4.73v-1.314c0-1.304 1.0608-2.365 2.365-2.365z" fill="#5E5F5E"/>
<path d="m63.663 137.8c0-8.011 6.4943-14.505 14.506-14.505 8.0111 0 14.506 6.494 14.506 14.505s-6.4944 14.506-14.506 14.506c-8.0112 0-14.506-6.495-14.506-14.506z" fill="#191919"/>
<path d="m78.204 131.76c-1.8836 0-3.4161 1.533-3.4161 3.416v1.406c-0.6122 0.216-1.0512 0.799-1.0512 1.485v4.204c0 0.871 0.7059 1.577 1.5767 1.577h5.7812c0.8708 0 1.5767-0.706 1.5767-1.577v-4.204c0-0.686-0.439-1.269-1.0512-1.485v-1.406c0-1.883-1.5325-3.416-3.4161-3.416zm0 1.051c1.3042 0 2.365 1.061 2.365 2.365v1.314h-4.73v-1.314c0-1.304 1.0608-2.365 2.365-2.365z" fill="#5E5F5E"/>
<path d="m63.663 167.62c0-8.011 6.4943-14.505 14.506-14.505 8.0111 0 14.506 6.494 14.506 14.505s-6.4944 14.506-14.506 14.506c-8.0112 0-14.506-6.495-14.506-14.506z" fill="#191919"/>
<path d="m78.204 161.58c-1.8836 0-3.4161 1.533-3.4161 3.416v1.405c-0.6122 0.217-1.0512 0.799-1.0512 1.486v4.204c0 0.871 0.7059 1.577 1.5767 1.577h5.7812c0.8708 0 1.5767-0.706 1.5767-1.577v-4.204c0-0.687-0.439-1.269-1.0512-1.486v-1.405c0-1.883-1.5325-3.416-3.4161-3.416zm0 1.051c1.3042 0 2.365 1.061 2.365 2.365v1.314h-4.73v-1.314c0-1.304 1.0608-2.365 2.365-2.365z" fill="#5E5F5E"/>
<path d="m93.48 137.8c0-8.011 6.4943-14.505 14.505-14.505 8.012 0 14.506 6.494 14.506 14.505s-6.494 14.506-14.506 14.506c-8.0107 0-14.505-6.495-14.505-14.506z" fill="#191919"/>
<path d="m108.02 131.76c-1.883 0-3.416 1.533-3.416 3.416v1.406c-0.612 0.216-1.051 0.799-1.051 1.485v4.204c0 0.871 0.706 1.577 1.577 1.577h5.781c0.871 0 1.577-0.706 1.577-1.577v-4.204c0-0.686-0.439-1.269-1.051-1.485v-1.406c0-1.883-1.533-3.416-3.417-3.416zm0 1.051c1.305 0 2.366 1.061 2.366 2.365v1.314h-4.731v-1.314c0-1.304 1.061-2.365 2.365-2.365z" fill="#5E5F5E"/>
<path d="m123.3 137.8c0-8.011 6.494-14.505 14.505-14.505s14.506 6.494 14.506 14.505-6.495 14.506-14.506 14.506-14.505-6.495-14.505-14.506z" fill="#191919"/>
<path d="m137.84 131.76c-1.883 0-3.416 1.533-3.416 3.416v1.406c-0.612 0.216-1.051 0.799-1.051 1.485v4.204c0 0.871 0.706 1.577 1.577 1.577h5.781c0.871 0 1.576-0.706 1.576-1.577v-4.204c0-0.686-0.439-1.269-1.051-1.485v-1.406c0-1.883-1.532-3.416-3.416-3.416zm0 1.051c1.304 0 2.365 1.061 2.365 2.365v1.314h-4.73v-1.314c0-1.304 1.061-2.365 2.365-2.365z" fill="#5E5F5E"/>
<path d="m123.3 167.62c0-8.011 6.494-14.505 14.505-14.505s14.506 6.494 14.506 14.505-6.495 14.506-14.506 14.506-14.505-6.495-14.505-14.506z" fill="#191919"/>
<path d="m137.84 161.58c-1.883 0-3.416 1.533-3.416 3.416v1.405c-0.612 0.217-1.051 0.799-1.051 1.486v4.204c0 0.871 0.706 1.577 1.577 1.577h5.781c0.871 0 1.576-0.706 1.576-1.577v-4.204c0-0.687-0.439-1.269-1.051-1.486v-1.405c0-1.883-1.532-3.416-3.416-3.416zm0 1.051c1.304 0 2.365 1.061 2.365 2.365v1.314h-4.73v-1.314c0-1.304 1.061-2.365 2.365-2.365z" fill="#5E5F5E"/>
<path d="m153.11 167.62c0-8.011 6.494-14.505 14.505-14.505s14.506 6.494 14.506 14.505-6.495 14.506-14.506 14.506-14.505-6.495-14.505-14.506z" fill="#191919"/>
<path d="m167.65 161.58c-1.884 0-3.416 1.533-3.416 3.416v1.405c-0.612 0.217-1.051 0.799-1.051 1.486v4.204c0 0.871 0.706 1.577 1.576 1.577h5.782c0.87 0 1.576-0.706 1.576-1.577v-4.204c0-0.687-0.439-1.269-1.051-1.486v-1.405c0-1.883-1.532-3.416-3.416-3.416zm0 1.051c1.304 0 2.365 1.061 2.365 2.365v1.314h-4.73v-1.314c0-1.304 1.061-2.365 2.365-2.365z" fill="#5E5F5E"/>
<path d="m153.11 137.8c0-8.011 6.494-14.505 14.505-14.505s14.506 6.494 14.506 14.505-6.495 14.506-14.506 14.506-14.505-6.495-14.505-14.506z" fill="#191919"/>
<path d="m167.65 131.76c-1.884 0-3.416 1.533-3.416 3.416v1.406c-0.612 0.216-1.051 0.799-1.051 1.485v4.204c0 0.871 0.706 1.577 1.576 1.577h5.782c0.87 0 1.576-0.706 1.576-1.577v-4.204c0-0.686-0.439-1.269-1.051-1.485v-1.406c0-1.883-1.532-3.416-3.416-3.416zm0 1.051c1.304 0 2.365 1.061 2.365 2.365v1.314h-4.73v-1.314c0-1.304 1.061-2.365 2.365-2.365z" fill="#fff"/>
<path d="m93.48 167.62c0-8.011 6.4943-14.505 14.505-14.505 8.012 0 14.506 6.494 14.506 14.505s-6.494 14.506-14.506 14.506c-8.0107 0-14.505-6.495-14.505-14.506z" fill="#191919"/>
<path d="m108.02 161.58c-1.883 0-3.416 1.533-3.416 3.416v1.405c-0.612 0.217-1.051 0.799-1.051 1.486v4.204c0 0.871 0.706 1.577 1.577 1.577h5.781c0.871 0 1.577-0.706 1.577-1.577v-4.204c0-0.687-0.439-1.269-1.051-1.486v-1.405c0-1.883-1.533-3.416-3.417-3.416zm0 1.051c1.305 0 2.366 1.061 2.366 2.365v1.314h-4.731v-1.314c0-1.304 1.061-2.365 2.365-2.365z" fill="#5E5F5E"/>
<path d="m63.663 78.168c0-8.0111 6.4943-14.506 14.506-14.506 8.0111 0 14.506 6.4944 14.506 14.506 0 8.0112-6.4944 14.506-14.506 14.506-8.0112 0-14.506-6.4943-14.506-14.506z" fill="#191919"/>
<path d="m63.663 107.98c0-8.0108 6.4943-14.505 14.506-14.505 8.0111 0 14.506 6.4943 14.506 14.505 0 8.012-6.4944 14.506-14.506 14.506-8.0112 0-14.506-6.494-14.506-14.506z" fill="#191919"/>
<path d="m78.204 101.94c-1.8836 0-3.4161 1.533-3.4161 3.417v1.405c-0.6122 0.216-1.0512 0.799-1.0512 1.485v4.205c0 0.87 0.7059 1.576 1.5767 1.576h5.7812c0.8708 0 1.5767-0.706 1.5767-1.576v-4.205c0-0.686-0.439-1.269-1.0512-1.485v-1.405c0-1.884-1.5325-3.417-3.4161-3.417zm0 1.052c1.3042 0 2.365 1.061 2.365 2.365v1.313h-4.73v-1.313c0-1.304 1.0608-2.365 2.365-2.365z" fill="#fff"/>
<path d="m93.48 107.98c0-8.0108 6.4943-14.505 14.505-14.505 8.012 0 14.506 6.4943 14.506 14.505 0 8.012-6.494 14.506-14.506 14.506-8.0107 0-14.505-6.494-14.505-14.506z" fill="#191919"/>
<path d="m108.02 101.94c-1.883 0-3.416 1.533-3.416 3.417v1.405c-0.612 0.216-1.051 0.799-1.051 1.485v4.205c0 0.87 0.706 1.576 1.577 1.576h5.781c0.871 0 1.577-0.706 1.577-1.576v-4.205c0-0.686-0.439-1.269-1.051-1.485v-1.405c0-1.884-1.533-3.417-3.417-3.417zm0 1.052c1.305 0 2.366 1.061 2.366 2.365v1.313h-4.731v-1.313c0-1.304 1.061-2.365 2.365-2.365z" fill="#5E5F5E"/>
<path d="m123.3 107.98c0-8.0108 6.494-14.505 14.505-14.505s14.506 6.4943 14.506 14.505c0 8.012-6.495 14.506-14.506 14.506s-14.505-6.494-14.505-14.506z" fill="#191919"/>
<path d="m153.11 107.98c0-8.0108 6.494-14.505 14.505-14.505s14.506 6.4943 14.506 14.505c0 8.012-6.495 14.506-14.506 14.506s-14.505-6.494-14.505-14.506z" fill="#191919"/>
<path d="m167.65 101.94c-1.884 0-3.416 1.533-3.416 3.417v1.405c-0.612 0.216-1.051 0.799-1.051 1.485v4.205c0 0.87 0.706 1.576 1.576 1.576h5.782c0.87 0 1.576-0.706 1.576-1.576v-4.205c0-0.686-0.439-1.269-1.051-1.485v-1.405c0-1.884-1.532-3.417-3.416-3.417zm0 1.052c1.304 0 2.365 1.061 2.365 2.365v1.313h-4.73v-1.313c0-1.304 1.061-2.365 2.365-2.365z" fill="#5E5F5E"/>
<path d="m93.48 78.168c0-8.0111 6.4943-14.506 14.505-14.506 8.012 0 14.506 6.4944 14.506 14.506 0 8.0112-6.494 14.506-14.506 14.506-8.0107 0-14.505-6.4943-14.505-14.506z" fill="#191919"/>
<path d="m108.02 72.125c-1.883 0-3.416 1.5325-3.416 3.4161v1.4053c-0.612 0.2166-1.051 0.799-1.051 1.4853v4.2045c0 0.8709 0.706 1.5767 1.577 1.5767h5.781c0.871 0 1.577-0.7058 1.577-1.5767v-4.2045c0-0.6863-0.439-1.2687-1.051-1.4853v-1.4053c0-1.8836-1.533-3.4161-3.417-3.4161zm0 1.0511c1.305 0 2.366 1.0611 2.366 2.365v1.3139h-4.731v-1.3139c0-1.3039 1.061-2.365 2.365-2.365z" fill="#fff"/>
<path d="m123.3 78.168c0-8.0111 6.494-14.506 14.505-14.506s14.506 6.4944 14.506 14.506c0 8.0112-6.495 14.506-14.506 14.506s-14.505-6.4943-14.505-14.506z" fill="#191919"/>
<path d="m137.84 72.125c-1.883 0-3.416 1.5325-3.416 3.4161v1.4053c-0.612 0.2166-1.051 0.799-1.051 1.4853v4.2045c0 0.8709 0.706 1.5767 1.577 1.5767h5.781c0.871 0 1.576-0.7058 1.576-1.5767v-4.2045c0-0.6863-0.439-1.2687-1.051-1.4853v-1.4053c0-1.8836-1.532-3.4161-3.416-3.4161zm0 1.0511c1.304 0 2.365 1.0611 2.365 2.365v1.3139h-4.73v-1.3139c0-1.3039 1.061-2.365 2.365-2.365z" fill="#5E5F5E"/>
<path d="m153.11 78.168c0-8.0111 6.494-14.506 14.505-14.506s14.506 6.4944 14.506 14.506c0 8.0112-6.495 14.506-14.506 14.506s-14.505-6.4943-14.505-14.506z" fill="#191919"/>
<path d="m167.65 72.125c-1.884 0-3.416 1.5325-3.416 3.4161v1.4053c-0.612 0.2166-1.051 0.799-1.051 1.4853v4.2045c0 0.8709 0.706 1.5767 1.576 1.5767h5.782c0.87 0 1.576-0.7058 1.576-1.5767v-4.2045c0-0.6863-0.439-1.2687-1.051-1.4853v-1.4053c0-1.8836-1.532-3.4161-3.416-3.4161zm0 1.0511c1.304 0 2.365 1.0611 2.365 2.365v1.3139h-4.73v-1.3139c0-1.3039 1.061-2.365 2.365-2.365z" fill="#5E5F5E"/>
<path d="m63.663 48.352c0-8.0111 6.4943-14.506 14.506-14.506 8.0111 0 14.506 6.4944 14.506 14.506 0 8.0112-6.4944 14.506-14.506 14.506-8.0112 0-14.506-6.4943-14.506-14.506z" fill="#191919"/>
<path d="m78.204 42.308c-1.8836 0-3.4161 1.5325-3.4161 3.4161v1.4053c-0.6122 0.2166-1.0512 0.799-1.0512 1.4853v4.2045c0 0.8709 0.7059 1.5767 1.5767 1.5767h5.7812c0.8708 0 1.5767-0.7058 1.5767-1.5767v-4.2045c0-0.6863-0.439-1.2687-1.0512-1.4853v-1.4053c0-1.8836-1.5325-3.4161-3.4161-3.4161zm0 1.0511c1.3042 0 2.365 1.0611 2.365 2.365v1.3139h-4.73v-1.3139c0-1.3039 1.0608-2.365 2.365-2.365z" fill="#5E5F5E"/>
<path d="m93.48 48.352c0-8.0111 6.4943-14.506 14.505-14.506 8.012 0 14.506 6.4944 14.506 14.506 0 8.0112-6.494 14.506-14.506 14.506-8.0107 0-14.505-6.4943-14.505-14.506z" fill="#191919"/>
<path d="m108.02 42.308c-1.883 0-3.416 1.5325-3.416 3.4161v1.4053c-0.612 0.2166-1.051 0.799-1.051 1.4853v4.2045c0 0.8709 0.706 1.5767 1.577 1.5767h5.781c0.871 0 1.577-0.7058 1.577-1.5767v-4.2045c0-0.6863-0.439-1.2687-1.051-1.4853v-1.4053c0-1.8836-1.533-3.4161-3.417-3.4161zm0 1.0511c1.305 0 2.366 1.0611 2.366 2.365v1.3139h-4.731v-1.3139c0-1.3039 1.061-2.365 2.365-2.365z" fill="#5E5F5E"/>
<path d="m123.3 48.352c0-8.0111 6.494-14.506 14.505-14.506s14.506 6.4944 14.506 14.506c0 8.0112-6.495 14.506-14.506 14.506s-14.505-6.4943-14.505-14.506z" fill="#191919"/>
<path d="m153.11 48.352c0-8.0111 6.494-14.506 14.505-14.506s14.506 6.4944 14.506 14.506c0 8.0112-6.495 14.506-14.506 14.506s-14.505-6.4943-14.505-14.506z" fill="#191919"/>
<path d="m167.65 42.308c-1.884 0-3.416 1.5325-3.416 3.4161v1.4053c-0.612 0.2166-1.051 0.799-1.051 1.4853v4.2045c0 0.8709 0.706 1.5767 1.576 1.5767h5.782c0.87 0 1.576-0.7058 1.576-1.5767v-4.2045c0-0.6863-0.439-1.2687-1.051-1.4853v-1.4053c0-1.8836-1.532-3.4161-3.416-3.4161zm0 1.0511c1.304 0 2.365 1.0611 2.365 2.365v1.3139h-4.73v-1.3139c0-1.3039 1.061-2.365 2.365-2.365z" fill="#5E5F5E"/>
<path d="m182.93 48.352c0-8.0111 6.495-14.506 14.506-14.506s14.505 6.4944 14.505 14.506c0 8.0112-6.494 14.506-14.505 14.506s-14.506-6.4943-14.506-14.506z" fill="#191919"/>
<path d="m197.47 42.308c-1.883 0-3.416 1.5325-3.416 3.4161v1.4053c-0.612 0.2166-1.051 0.799-1.051 1.4853v4.2045c0 0.8709 0.706 1.5767 1.577 1.5767h5.781c0.871 0 1.576-0.7058 1.576-1.5767v-4.2045c0-0.6863-0.439-1.2687-1.051-1.4853v-1.4053c0-1.8836-1.532-3.4161-3.416-3.4161zm0 1.0511c1.304 0 2.365 1.0611 2.365 2.365v1.3139h-4.73v-1.3139c0-1.3039 1.061-2.365 2.365-2.365z" fill="#5E5F5E"/>
<path d="m182.93 78.168c0-8.0111 6.495-14.506 14.506-14.506s14.505 6.4944 14.505 14.506c0 8.0112-6.494 14.506-14.505 14.506s-14.506-6.4943-14.506-14.506z" fill="#191919"/>
<path d="m197.47 72.125c-1.883 0-3.416 1.5325-3.416 3.4161v1.4053c-0.612 0.2166-1.051 0.799-1.051 1.4853v4.2045c0 0.8709 0.706 1.5767 1.577 1.5767h5.781c0.871 0 1.576-0.7058 1.576-1.5767v-4.2045c0-0.6863-0.439-1.2687-1.051-1.4853v-1.4053c0-1.8836-1.532-3.4161-3.416-3.4161zm0 1.0511c1.304 0 2.365 1.0611 2.365 2.365v1.3139h-4.73v-1.3139c0-1.3039 1.061-2.365 2.365-2.365z" fill="#5E5F5E"/>
<path d="m182.93 107.98c0-8.0108 6.495-14.505 14.506-14.505s14.505 6.4943 14.505 14.505c0 8.012-6.494 14.506-14.505 14.506s-14.506-6.494-14.506-14.506z" fill="#191919"/>
<path d="m197.47 101.94c-1.883 0-3.416 1.533-3.416 3.417v1.405c-0.612 0.216-1.051 0.799-1.051 1.485v4.205c0 0.87 0.706 1.576 1.577 1.576h5.781c0.871 0 1.576-0.706 1.576-1.576v-4.205c0-0.686-0.439-1.269-1.051-1.485v-1.405c0-1.884-1.532-3.417-3.416-3.417zm0 1.052c1.304 0 2.365 1.061 2.365 2.365v1.313h-4.73v-1.313c0-1.304 1.061-2.365 2.365-2.365z" fill="#5E5F5E"/>
<path d="m182.93 137.8c0-8.011 6.495-14.505 14.506-14.505s14.505 6.494 14.505 14.505-6.494 14.506-14.505 14.506-14.506-6.495-14.506-14.506z" fill="#191919"/>
<path d="m197.47 131.76c-1.883 0-3.416 1.533-3.416 3.416v1.406c-0.612 0.216-1.051 0.799-1.051 1.485v4.204c0 0.871 0.706 1.577 1.577 1.577h5.781c0.871 0 1.576-0.706 1.576-1.577v-4.204c0-0.686-0.439-1.269-1.051-1.485v-1.406c0-1.883-1.532-3.416-3.416-3.416zm0 1.051c1.304 0 2.365 1.061 2.365 2.365v1.314h-4.73v-1.314c0-1.304 1.061-2.365 2.365-2.365z" fill="#5E5F5E"/>
<path d="m182.93 167.62c0-8.011 6.495-14.505 14.506-14.505s14.505 6.494 14.505 14.505-6.494 14.506-14.505 14.506-14.506-6.495-14.506-14.506z" fill="#191919"/>
<path d="m197.47 161.58c-1.883 0-3.416 1.533-3.416 3.416v1.405c-0.612 0.217-1.051 0.799-1.051 1.486v4.204c0 0.871 0.706 1.577 1.577 1.577h5.781c0.871 0 1.576-0.706 1.576-1.577v-4.204c0-0.687-0.439-1.269-1.051-1.486v-1.405c0-1.883-1.532-3.416-3.416-3.416zm0 1.051c1.304 0 2.365 1.061 2.365 2.365v1.314h-4.73v-1.314c0-1.304 1.061-2.365 2.365-2.365z" fill="#5E5F5E"/>
<path d="m63.663 18.535c0-8.0112 6.4943-14.506 14.506-14.506 8.0111 0 14.506 6.4943 14.506 14.506s-6.4944 14.506-14.506 14.506c-8.0112 0-14.506-6.4943-14.506-14.506z" fill="#191919"/>
<path d="m78.204 12.491c-1.8836 0-3.4161 1.5326-3.4161 3.4162v1.4053c-0.6122 0.2165-1.0512 0.7989-1.0512 1.4853v4.2045c0 0.8708 0.7059 1.5767 1.5767 1.5767h5.7812c0.8708 0 1.5767-0.7059 1.5767-1.5767v-4.2045c0-0.6864-0.439-1.2688-1.0512-1.4853v-1.4053c0-1.8836-1.5325-3.4162-3.4161-3.4162zm0 1.0512c1.3042 0 2.365 1.0611 2.365 2.365v1.3139h-4.73v-1.3139c0-1.3039 1.0608-2.365 2.365-2.365z" fill="#5E5F5E"/>
<path d="m93.48 18.535c0-8.0112 6.4943-14.506 14.505-14.506 8.012 0 14.506 6.4943 14.506 14.506s-6.494 14.506-14.506 14.506c-8.0107 0-14.505-6.4943-14.505-14.506z" fill="#191919"/>
<path d="m108.02 12.491c-1.883 0-3.416 1.5326-3.416 3.4162v1.4053c-0.612 0.2165-1.051 0.7989-1.051 1.4853v4.2045c0 0.8708 0.706 1.5767 1.577 1.5767h5.781c0.871 0 1.577-0.7059 1.577-1.5767v-4.2045c0-0.6864-0.439-1.2688-1.051-1.4853v-1.4053c0-1.8836-1.533-3.4162-3.417-3.4162zm0 1.0512c1.305 0 2.366 1.0611 2.366 2.365v1.3139h-4.731v-1.3139c0-1.3039 1.061-2.365 2.365-2.365z" fill="#5E5F5E"/>
<path d="m123.3 18.535c0-8.0112 6.494-14.506 14.505-14.506s14.506 6.4943 14.506 14.506-6.495 14.506-14.506 14.506-14.505-6.4943-14.505-14.506z" fill="#191919"/>
<path d="m137.84 12.491c-1.883 0-3.416 1.5326-3.416 3.4162v1.4053c-0.612 0.2165-1.051 0.7989-1.051 1.4853v4.2045c0 0.8708 0.706 1.5767 1.577 1.5767h5.781c0.871 0 1.576-0.7059 1.576-1.5767v-4.2045c0-0.6864-0.439-1.2688-1.051-1.4853v-1.4053c0-1.8836-1.532-3.4162-3.416-3.4162zm0 1.0512c1.304 0 2.365 1.0611 2.365 2.365v1.3139h-4.73v-1.3139c0-1.3039 1.061-2.365 2.365-2.365z" fill="#5E5F5E"/>
<path d="m153.11 18.535c0-8.0112 6.494-14.506 14.505-14.506s14.506 6.4943 14.506 14.506-6.495 14.506-14.506 14.506-14.505-6.4943-14.505-14.506z" fill="#191919"/>
<path d="m167.65 12.491c-1.884 0-3.416 1.5326-3.416 3.4162v1.4053c-0.612 0.2165-1.051 0.7989-1.051 1.4853v4.2045c0 0.8708 0.706 1.5767 1.576 1.5767h5.782c0.87 0 1.576-0.7059 1.576-1.5767v-4.2045c0-0.6864-0.439-1.2688-1.051-1.4853v-1.4053c0-1.8836-1.532-3.4162-3.416-3.4162zm0 1.0512c1.304 0 2.365 1.0611 2.365 2.365v1.3139h-4.73v-1.3139c0-1.3039 1.061-2.365 2.365-2.365z" fill="#5E5F5E"/>
<path d="m182.93 18.535c0-8.0112 6.495-14.506 14.506-14.506s14.505 6.4943 14.505 14.506-6.494 14.506-14.505 14.506-14.506-6.4943-14.506-14.506z" fill="#191919"/>
<path d="m197.47 12.491c-1.883 0-3.416 1.5326-3.416 3.4162v1.4053c-0.612 0.2165-1.051 0.7989-1.051 1.4853v4.2045c0 0.8708 0.706 1.5767 1.577 1.5767h5.781c0.871 0 1.576-0.7059 1.576-1.5767v-4.2045c0-0.6864-0.439-1.2688-1.051-1.4853v-1.4053c0-1.8836-1.532-3.4162-3.416-3.4162zm0 1.0512c1.304 0 2.365 1.0611 2.365 2.365v1.3139h-4.73v-1.3139c0-1.3039 1.061-2.365 2.365-2.365z" fill="#5E5F5E"/>
<path d="m4.0293 48.352c0-8.0111 6.4943-14.506 14.506-14.506s14.506 6.4944 14.506 14.506c0 8.0112-6.4943 14.506-14.506 14.506s-14.506-6.4943-14.506-14.506z" fill="#191919"/>
<path d="m18.57 42.308c-1.8836 0-3.4161 1.5325-3.4161 3.4161v1.4053c-0.6121 0.2166-1.0512 0.799-1.0512 1.4853v4.2045c0 0.8709 0.7059 1.5767 1.5767 1.5767h5.7812c0.8709 0 1.5767-0.7058 1.5767-1.5767v-4.2045c0-0.6863-0.439-1.2687-1.0511-1.4853v-1.4053c0-1.8836-1.5326-3.4161-3.4162-3.4161zm0 1.0511c1.3042 0 2.365 1.0611 2.365 2.365v1.3139h-4.73v-1.3139c0-1.3039 1.0608-2.365 2.365-2.365z" fill="#5E5F5E"/>
<path d="m4.0293 78.168c0-8.0111 6.4943-14.506 14.506-14.506s14.506 6.4944 14.506 14.506c0 8.0112-6.4943 14.506-14.506 14.506s-14.506-6.4943-14.506-14.506z" fill="#191919"/>
<path d="m18.57 72.125c-1.8836 0-3.4161 1.5325-3.4161 3.4161v1.4053c-0.6121 0.2166-1.0512 0.799-1.0512 1.4853v4.2045c0 0.8709 0.7059 1.5767 1.5767 1.5767h5.7812c0.8709 0 1.5767-0.7058 1.5767-1.5767v-4.2045c0-0.6863-0.439-1.2687-1.0511-1.4853v-1.4053c0-1.8836-1.5326-3.4161-3.4162-3.4161zm0 1.0511c1.3042 0 2.365 1.0611 2.365 2.365v1.3139h-4.73v-1.3139c0-1.3039 1.0608-2.365 2.365-2.365z" fill="#5E5F5E"/>
<path d="m4.0293 107.98c0-8.0108 6.4943-14.505 14.506-14.505s14.506 6.4943 14.506 14.505c0 8.012-6.4943 14.506-14.506 14.506s-14.506-6.494-14.506-14.506z" fill="#191919"/>
<path d="m18.57 101.94c-1.8836 0-3.4161 1.533-3.4161 3.417v1.405c-0.6121 0.216-1.0512 0.799-1.0512 1.485v4.205c0 0.87 0.7059 1.576 1.5767 1.576h5.7812c0.8709 0 1.5767-0.706 1.5767-1.576v-4.205c0-0.686-0.439-1.269-1.0511-1.485v-1.405c0-1.884-1.5326-3.417-3.4162-3.417zm0 1.052c1.3042 0 2.365 1.061 2.365 2.365v1.313h-4.73v-1.313c0-1.304 1.0608-2.365 2.365-2.365z" fill="#5E5F5E"/>
<path d="m4.0293 137.8c0-8.011 6.4943-14.505 14.506-14.505s14.506 6.494 14.506 14.505-6.4943 14.506-14.506 14.506-14.506-6.495-14.506-14.506z" fill="#191919"/>
<path d="m18.57 131.76c-1.8836 0-3.4161 1.533-3.4161 3.416v1.406c-0.6121 0.216-1.0512 0.799-1.0512 1.485v4.204c0 0.871 0.7059 1.577 1.5767 1.577h5.7812c0.8709 0 1.5767-0.706 1.5767-1.577v-4.204c0-0.686-0.439-1.269-1.0511-1.485v-1.406c0-1.883-1.5326-3.416-3.4162-3.416zm0 1.051c1.3042 0 2.365 1.061 2.365 2.365v1.314h-4.73v-1.314c0-1.304 1.0608-2.365 2.365-2.365z" fill="#5E5F5E"/>
<path d="m4.0293 167.62c0-8.011 6.4943-14.505 14.506-14.505s14.506 6.494 14.506 14.505-6.4943 14.506-14.506 14.506-14.506-6.495-14.506-14.506z" fill="#191919"/>
<path d="m18.57 161.58c-1.8836 0-3.4161 1.533-3.4161 3.416v1.405c-0.6121 0.217-1.0512 0.799-1.0512 1.486v4.204c0 0.871 0.7059 1.577 1.5767 1.577h5.7812c0.8709 0 1.5767-0.706 1.5767-1.577v-4.204c0-0.687-0.439-1.269-1.0511-1.486v-1.405c0-1.883-1.5326-3.416-3.4162-3.416zm0 1.051c1.3042 0 2.365 1.061 2.365 2.365v1.314h-4.73v-1.314c0-1.304 1.0608-2.365 2.365-2.365z" fill="#5E5F5E"/>
<path d="m52.735 137.29v-0.154c0-1.874-1.5142-3.362-3.362-3.362-1.2832 0-2.4638 0.744-3.0284 1.873-0.2823-0.205-0.6416-0.308-1.0009-0.308-0.9496 0-1.7195 0.745-1.7965 1.669-0.9752 0.359-1.6425 1.283-1.6425 2.335 0.0256 1.386 1.1292 2.489 2.5151 2.489h8.0586c1.2576 0 2.2841-1.026 2.2841-2.284 0-1.18-0.8726-2.13-2.0275-2.258zm-4.1319 3.259c-0.5646 0-1.1036-0.205-1.4886-0.564l-0.5646 0.564v-1.54h1.5399l-0.6159 0.616c0.2823 0.257 0.6929 0.411 1.1292 0.411 0.7699 0 1.3859-0.565 1.5142-1.283h0.5133c-0.1284 1.001-0.9753 1.796-2.0275 1.796zm2.0531-2.566h-1.5398l0.5646-0.565c-0.2823-0.308-0.6673-0.462-1.0779-0.462-0.7443 0-1.3859 0.539-1.5142 1.283h-0.5133v-0.025c0.154-1.001 1.0266-1.771 2.0275-1.771 0.5646 0 1.0779 0.231 1.4372 0.616l0.6159-0.616v1.54z" fill="#5E5F5E"/>
<path d="m142.19 107.47v-0.154c0-1.873-1.515-3.362-3.362-3.362-1.284 0-2.464 0.744-3.029 1.874-0.282-0.206-0.641-0.308-1.001-0.308-0.949 0-1.719 0.744-1.796 1.668-0.976 0.359-1.643 1.283-1.643 2.335 0.026 1.386 1.129 2.49 2.515 2.49h8.059c1.257 0 2.284-1.027 2.284-2.284 0-1.181-0.873-2.131-2.027-2.259zm-4.132 3.259c-0.565 0-1.104-0.205-1.489-0.564l-0.565 0.564v-1.539h1.54l-0.616 0.616c0.283 0.256 0.693 0.41 1.13 0.41 0.77 0 1.385-0.564 1.514-1.283h0.513c-0.128 1.001-0.975 1.796-2.027 1.796zm2.053-2.566h-1.54l0.565-0.565c-0.283-0.308-0.668-0.462-1.078-0.462-0.745 0-1.386 0.539-1.515 1.284h-0.513v-0.026c0.154-1.001 1.027-1.771 2.028-1.771 0.564 0 1.078 0.231 1.437 0.616l0.616-0.616v1.54z" fill="#5E5F5E"/>
<path d="m81.746 77.655v-0.154c0-1.8735-1.5142-3.362-3.362-3.362-1.2832 0-2.4638 0.7442-3.0284 1.8735-0.2823-0.2054-0.6416-0.308-1.0009-0.308-0.9496 0-1.7195 0.7443-1.7965 1.6682-0.9753 0.3593-1.6425 1.2832-1.6425 2.3354 0.0256 1.3859 1.1292 2.4895 2.5151 2.4895h8.0586c1.2575 0 2.2841-1.0266 2.2841-2.2842 0-1.1805-0.8726-2.1301-2.0275-2.2584zm-4.1319 3.2594c-0.5646 0-1.1036-0.2054-1.4886-0.5647l-0.5646 0.5647v-1.5399h1.5399l-0.616 0.6159c0.2823 0.2567 0.693 0.4107 1.1293 0.4107 0.7699 0 1.3858-0.5647 1.5142-1.2833h0.5133c-0.1284 1.001-0.9753 1.7966-2.0275 1.7966zm2.0531-2.5665h-1.5398l0.5646-0.5646c-0.2823-0.308-0.6673-0.462-1.0779-0.462-0.7443 0-1.3859 0.539-1.5142 1.2833h-0.5133v-0.0257c0.154-1.0009 1.0266-1.7708 2.0275-1.7708 0.5646 0 1.0779 0.2309 1.4372 0.6159l0.6159-0.6159v1.5398z" fill="#5E5F5E"/>
<path d="m142.19 47.838v-0.1539c0-1.8735-1.515-3.3621-3.362-3.3621-1.284 0-2.464 0.7443-3.029 1.8735-0.282-0.2053-0.641-0.3079-1.001-0.3079-0.949 0-1.719 0.7442-1.796 1.6681-0.976 0.3593-1.643 1.2833-1.643 2.3355 0.026 1.3859 1.129 2.4894 2.515 2.4894h8.059c1.257 0 2.284-1.0265 2.284-2.2841 0-1.1806-0.873-2.1301-2.027-2.2585zm-4.132 3.2594c-0.565 0-1.104-0.2053-1.489-0.5646l-0.565 0.5646v-1.5398h1.54l-0.616 0.6159c0.283 0.2566 0.693 0.4106 1.13 0.4106 0.77 0 1.385-0.5646 1.514-1.2832h0.513c-0.128 1.0009-0.975 1.7965-2.027 1.7965zm2.053-2.5664h-1.54l0.565-0.5646c-0.283-0.308-0.668-0.462-1.078-0.462-0.745 0-1.386 0.539-1.515 1.2832h-0.513v-0.0256c0.154-1.0009 1.027-1.7709 2.028-1.7709 0.564 0 1.078 0.231 1.437 0.616l0.616-0.616v1.5399z" fill="#5E5F5E"/>
</svg>
