<?xml version="1.0" encoding="UTF-8"?>
<svg fill="none" viewBox="0 0 460 288" xmlns="http://www.w3.org/2000/svg">
<g clip-path="url(#a)">
<rect width="460" height="287.5" rx="20" fill="#191919"/>
<path d="m290.77 195.5c-3.156 0-5.714 2.452-5.714 5.476 0 3.025 2.558 5.476 5.714 5.476s5.714-2.451 5.714-5.476c0-3.024-2.558-5.476-5.714-5.476zm0 15.06c-4.487 0-12.857 2.116-12.857 6.16v2.054c0 0.756 0.64 1.369 1.428 1.369h12.221c0.566 0 1.107-0.216 1.507-0.599l6.359-6.094c0.375-0.36 0.272-0.983-0.215-1.185-2.713-1.126-6.102-1.705-8.443-1.705zm14.581 1.369c-0.182 0-0.365 0.067-0.505 0.2l-1.428 1.369 2.857 2.738 1.428-1.369c0.279-0.267 0.279-0.701 0-0.968l-1.847-1.77c-0.14-0.133-0.322-0.2-0.505-0.2zm-2.943 2.537-7.352 7.046v2.738h2.857l7.352-7.046-2.857-2.738z" fill="#585858"/>
<path d="m355.22 195.5c-3.102 0-5.625 2.418-5.625 5.391v8.984c0 2.973 2.523 5.391 5.625 5.391s5.625-2.418 5.625-5.391v-8.984c0-2.973-2.523-5.391-5.625-5.391zm0 0.898c2.585 0 4.688 2.016 4.688 4.493v8.984c0 2.477-2.103 4.492-4.688 4.492s-4.687-2.015-4.687-4.492v-8.984c0-2.477 2.102-4.493 4.687-4.493zm-8.789 12.129c-0.259 0-0.469 0.202-0.469 0.45 0 5.04 3.903 9.157 8.789 9.409v4.966h-5.625c-0.258 0-0.468 0.201-0.468 0.449s0.21 0.449 0.468 0.449h12.188c0.259 0 0.469-0.201 0.469-0.449s-0.21-0.449-0.469-0.449h-5.625v-4.966c4.886-0.252 8.789-4.369 8.789-9.409 0-0.248-0.21-0.45-0.469-0.45s-0.469 0.202-0.469 0.45c0 4.706-3.732 8.535-8.32 8.535s-8.32-3.829-8.32-8.535c0-0.248-0.21-0.45-0.469-0.45z" fill="#585858"/>
<path d="m402.51 195.5v4.107c-3e-3 0.247 0.132 0.477 0.354 0.601 0.223 0.125 0.498 0.125 0.721 0 0.222-0.124 0.357-0.354 0.354-0.601v-2.738h2.857c0.257 4e-3 0.497-0.126 0.627-0.339 0.13-0.214 0.13-0.477 0-0.69-0.13-0.214-0.37-0.343-0.627-0.34h-4.286zm25.714 0c-0.257-3e-3 -0.497 0.126-0.627 0.34-0.13 0.213-0.13 0.476 0 0.69 0.13 0.213 0.37 0.343 0.627 0.339h2.857v2.738c-3e-3 0.247 0.132 0.477 0.355 0.601 0.222 0.125 0.497 0.125 0.72 0 0.222-0.124 0.358-0.354 0.354-0.601v-4.107h-4.286zm-19.285 4.107v15.06h-5.715c-0.257-4e-3 -0.497 0.126-0.627 0.339-0.129 0.213-0.129 0.477 0 0.69 0.13 0.213 0.37 0.343 0.627 0.34h6.309c0.077 0.012 0.156 0.012 0.233 0h15.481c0.077 0.012 0.156 0.012 0.233 0h6.316c0.257 3e-3 0.497-0.127 0.627-0.34s0.13-0.477 0-0.69-0.37-0.343-0.627-0.339h-5.715v-15.06h-17.142zm1.428 1.369h14.286v13.691h-14.286v-13.691zm-1.428 16.429v2.738h17.142v-2.738h-1.428v1.369h-14.286v-1.369h-1.428zm-5.726 2.044c-0.394 6e-3 -0.708 0.316-0.703 0.694v4.107h4.286c0.257 3e-3 0.497-0.126 0.627-0.34 0.13-0.213 0.13-0.476 0-0.69-0.13-0.213-0.37-0.343-0.627-0.339h-2.857v-2.738c2e-3 -0.185-0.073-0.363-0.21-0.494s-0.323-0.203-0.516-0.2zm28.572 0c-0.394 6e-3 -0.709 0.316-0.704 0.694v2.738h-2.857c-0.257-4e-3 -0.497 0.126-0.627 0.339-0.13 0.214-0.13 0.477 0 0.69 0.13 0.214 0.37 0.343 0.627 0.34h4.286v-4.107c3e-3 -0.185-0.073-0.363-0.21-0.494-0.136-0.131-0.322-0.203-0.515-0.2z" fill="#585858"/>
<rect x="-201.25" y="-188.79" width="479.17" height="354.58" rx="30" fill="#2D2D2D"/>
</g>
<defs>
<clipPath id="a">
<rect width="460" height="287.5" rx="20" fill="#fff"/>
</clipPath>
</defs>
</svg>
