<?xml version="1.0" encoding="UTF-8"?>
<svg fill="none" viewBox="0 0 250 157" xmlns="http://www.w3.org/2000/svg">
<g clip-path="url(#a)">
<rect width="250" height="156.25" rx="20" fill="#191919"/>
<path d="m158.03 106.25c-1.715 0-3.105 1.332-3.105 2.976s1.39 2.976 3.105 2.976 3.106-1.332 3.106-2.976-1.391-2.976-3.106-2.976zm0 8.185c-2.438 0-6.987 1.15-6.987 3.348v1.116c0 0.411 0.347 0.744 0.776 0.744h6.642c0.307 0 0.601-0.117 0.819-0.326l3.456-3.312c0.204-0.195 0.148-0.534-0.117-0.643-1.474-0.613-3.316-0.927-4.589-0.927zm7.925 0.744c-0.099 0-0.199 0.036-0.275 0.109l-0.776 0.744 1.553 1.488 0.776-0.744c0.152-0.145 0.152-0.381 0-0.526l-1.004-0.962c-0.076-0.073-0.175-0.109-0.274-0.109zm-1.6 1.379-3.996 3.829v1.488h1.553l3.996-3.829-1.553-1.488z" fill="#585858"/>
<path d="m193.05 106.25c-1.686 0-3.057 1.314-3.057 2.93v4.882c0 1.616 1.371 2.93 3.057 2.93s3.057-1.314 3.057-2.93v-4.882c0-1.616-1.371-2.93-3.057-2.93zm0 0.488c1.405 0 2.548 1.095 2.548 2.442v4.882c0 1.347-1.143 2.442-2.548 2.442-1.404 0-2.547-1.095-2.547-2.442v-4.882c0-1.347 1.143-2.442 2.547-2.442zm-4.776 6.592c-0.141 0-0.255 0.109-0.255 0.244 0 2.74 2.121 4.977 4.776 5.114v2.699h-3.057c-0.14 0-0.254 0.109-0.254 0.244s0.114 0.244 0.254 0.244h6.624c0.141 0 0.255-0.109 0.255-0.244s-0.114-0.244-0.255-0.244h-3.057v-2.699c2.656-0.137 4.777-2.374 4.777-5.114 0-0.135-0.114-0.244-0.255-0.244s-0.255 0.109-0.255 0.244c0 2.558-2.028 4.639-4.522 4.639-2.493 0-4.522-2.081-4.522-4.639 0-0.135-0.114-0.244-0.254-0.244z" fill="#585858"/>
<path d="m218.76 106.25v2.232c-2e-3 0.134 0.071 0.259 0.192 0.327 0.121 0.067 0.271 0.067 0.391 0 0.121-0.068 0.195-0.193 0.193-0.327v-1.488h1.553c0.14 2e-3 0.27-0.069 0.341-0.184 0.07-0.116 0.07-0.26 0-0.375-0.071-0.116-0.201-0.187-0.341-0.185h-2.329zm13.975 0c-0.14-2e-3 -0.271 0.069-0.341 0.185-0.071 0.115-0.071 0.259 0 0.375 0.07 0.115 0.201 0.186 0.341 0.184h1.552v1.488c-2e-3 0.134 0.072 0.259 0.193 0.327 0.121 0.067 0.27 0.067 0.391 0 0.121-0.068 0.195-0.193 0.193-0.327v-2.232h-2.329zm-10.482 2.232v8.185h-3.105c-0.14-2e-3 -0.27 0.068-0.341 0.184s-0.071 0.259 0 0.375 0.201 0.187 0.341 0.185h3.428c0.042 6e-3 0.085 6e-3 0.127 0h8.414c0.042 6e-3 0.084 6e-3 0.126 0h3.433c0.14 2e-3 0.27-0.069 0.34-0.185 0.071-0.116 0.071-0.259 0-0.375-0.07-0.116-0.2-0.186-0.34-0.184h-3.106v-8.185h-9.317zm0.777 0.744h7.764v7.441h-7.764v-7.441zm-0.777 8.929v1.488h9.317v-1.488h-0.776v0.744h-7.764v-0.744h-0.777zm-3.111 1.111c-0.214 3e-3 -0.385 0.172-0.382 0.377v2.232h2.329c0.14 2e-3 0.27-0.069 0.341-0.185 0.07-0.115 0.07-0.259 0-0.375-0.071-0.115-0.201-0.186-0.341-0.184h-1.553v-1.488c1e-3 -0.101-0.04-0.198-0.114-0.269s-0.175-0.11-0.28-0.108zm15.528 0c-0.215 3e-3 -0.386 0.172-0.383 0.377v1.488h-1.552c-0.14-2e-3 -0.271 0.069-0.341 0.184-0.071 0.116-0.071 0.26 0 0.375 0.07 0.116 0.201 0.187 0.341 0.185h2.329v-2.232c1e-3 -0.101-0.04-0.198-0.114-0.269s-0.176-0.11-0.28-0.108z" fill="#585858"/>
<rect x="-109.38" y="-102.6" width="260.42" height="192.71" rx="30" fill="#2D2D2D"/>
</g>
<defs>
<clipPath id="a">
<rect width="250" height="156.25" rx="20" fill="#fff"/>
</clipPath>
</defs>
</svg>
