<?xml version="1.0" encoding="UTF-8"?>
<svg viewBox="0 0 480 400" xmlns="http://www.w3.org/2000/svg">
<rect width="480" height="400" fill="#121212"/>
<path d="m41.296 61.538c-3.9517 0-9.3259 1.0294-9.3314 1.0304h-0.0019c-1.1545 0.2363-2.0562 1.1559-2.2735 2.3172l-0.0038 0.0038-1.9111 10.426 0.0019 0.0019c-0.0534 0.2567-0.0835 0.5226-0.0835 0.7952 0 2.1463 1.7403 3.8866 3.8867 3.8866 1.1527 0 2.1766-0.5122 2.8884-1.3095l0.0133 0.0076 1.4707-1.6131h10.688l1.4708 1.6131 0.0132-0.0076c0.7118 0.7973 1.7357 1.3095 2.8885 1.3095 2.1464 0 3.8866-1.7403 3.8866-3.8866 0-0.2726-0.0301-0.5385-0.0835-0.7952l0.0019-0.0019-1.9111-10.426-0.0038-0.0038c-0.2174-1.1619-1.12-2.0815-2.2754-2.3172h-0.0019c-0.0045-1e-3 -5.3778-1.0304-9.3294-1.0304zm-6.8017 5.8299c0.5364 0 0.9717 0.4353 0.9717 0.9717v0.9716h0.9717c0.5363 0 0.9716 0.4353 0.9716 0.9717 0 0.5363-0.4353 0.9717-0.9716 0.9717h-0.9717v0.9716c0 0.5364-0.4353 0.9717-0.9717 0.9717-0.5363 0-0.9716-0.4353-0.9716-0.9717v-0.9716h-0.9717c-0.5363 0-0.9716-0.4354-0.9716-0.9717 0-0.5364 0.4353-0.9717 0.9716-0.9717h0.9717v-0.9716c0-0.5364 0.4353-0.9717 0.9716-0.9717zm13.603 0c0.5363 0 0.9716 0.4353 0.9716 0.9717 0 0.5363-0.4353 0.9716-0.9716 0.9716-0.5364 0-0.9717-0.4353-0.9717-0.9716 0-0.5364 0.4353-0.9717 0.9717-0.9717zm-1.9433 1.9433c0.5363 0 0.9716 0.4353 0.9716 0.9717 0 0.5363-0.4353 0.9717-0.9716 0.9717-0.5364 0-0.9717-0.4354-0.9717-0.9717 0-0.5364 0.4353-0.9717 0.9717-0.9717zm3.8866 0c0.5364 0 0.9717 0.4353 0.9717 0.9717 0 0.5363-0.4353 0.9717-0.9717 0.9717s-0.9717-0.4354-0.9717-0.9717c0-0.5364 0.4353-0.9717 0.9717-0.9717zm-1.9433 1.9434c0.5363 0 0.9716 0.4353 0.9716 0.9716 0 0.5364-0.4353 0.9717-0.9716 0.9717-0.5364 0-0.9717-0.4353-0.9717-0.9717 0-0.5363 0.4353-0.9716 0.9717-0.9716z" fill="#1B1B1B"/>
<path d="m92.304 61.538c-5.088 0-9.2269 4.1392-9.2269 9.2269v3.9714l6e-4 0.0028v1.0314c0 1.0226 0.3998 1.9915 1.1148 2.7143l1.0611 1.0688 1.5379 0.4459h0.0231c1.2686 0 2.3067-1.038 2.3067-2.3067v-4.5366c0-1.2687-1.0381-2.3067-2.3067-2.3067h-0.0231l-1.5379 0.4536-0.6387 0.6413v-1.1795c0-4.2399 3.4496-7.6891 7.6891-7.6891s7.6891 3.4492 7.6891 7.6891v1.1789l-0.6381-0.6407-1.5379-0.4536h-0.023c-1.2687 0-2.3068 1.038-2.3068 2.3067v4.5366c0 1.2687 1.0381 2.3067 2.3068 2.3067h0.023l1.5379-0.4459 1.0612-1.0688c0.715-0.7228 1.115-1.6917 1.115-2.7143v-5.0056c0-5.0877-4.1392-9.2269-9.2272-9.2269z" fill="#292929"/>
<path d="m140.46 80-0.333-0.2758c-0.523-0.4332-1.226-0.9113-2.037-1.4649-3.222-2.1984-8.091-5.5205-8.091-10.818 0-3.2547 2.666-5.9025 5.943-5.9025 1.753 0 3.394 0.762 4.518 2.0696 1.123-1.3076 2.766-2.0696 4.517-2.0696 3.277 0 5.943 2.6478 5.943 5.9025 0 5.2978-4.868 8.6199-8.09 10.818-0.813 0.5536-1.514 1.0317-2.037 1.4649l-0.333 0.2758z" fill="#505051"/>
<path d="m188.46 61.538c-5.094 0-9.231 4.1372-9.231 9.2307 0 5.0936 4.137 9.2308 9.231 9.2308 5.093 0 9.23-4.1372 9.23-9.2308 0-5.0935-4.137-9.2307-9.23-9.2307zm0 0.8026c4.659 0 8.428 3.7688 8.428 8.4281s-3.769 8.4281-8.428 8.4281c-4.66 0-8.429-3.7688-8.429-8.4281s3.769-8.4281 8.429-8.4281zm-0.032 1.204c-1.77 0-3.474 0.6397-4.808 1.8061l-0.42 0.3841c-0.226 0.2163-0.354 0.5095-0.359 0.8261-6e-3 0.3544 0.139 0.7008 0.409 0.9767l8.249 8.4172c0.279 0.2853 0.64 0.4311 0.99 0.4311 0.299 0 0.591-0.1066 0.818-0.3245l0.456-0.4453c1.239-1.3325 1.921-3.0649 1.921-4.8787 0-3.9664-3.255-7.1928-7.256-7.1928zm0.834 2.0067c0.221 0 0.402 0.1803 0.402 0.4014 0 0.221-0.181 0.4013-0.402 0.4013s-0.401-0.1803-0.401-0.4013c0-0.2211 0.18-0.4014 0.401-0.4014zm1.204 0.8027c0.221 0 0.402 0.1803 0.402 0.4013 0 0.2211-0.181 0.4014-0.402 0.4014s-0.401-0.1803-0.401-0.4014c0-0.221 0.18-0.4013 0.401-0.4013zm-1.204 0.8027c0.221 0 0.402 0.1803 0.402 0.4013 0 0.2211-0.181 0.4014-0.402 0.4014s-0.401-0.1803-0.401-0.4014c0-0.221 0.18-0.4013 0.401-0.4013zm-6.76 0.7274c-5e-3 0.0031-0.011 0.0063-0.017 0.011-0.289 0.2179-0.447 0.5252-0.447 0.8669 0 0.5111 0.143 0.7149 0.303 0.8936 0.066 0.0737 0.098 0.1113 0.098 0.3606 0 0.0596-0.145 0.1787-0.253 0.265-0.231 0.1881-0.549 0.4468-0.549 0.8889 0 0.2367 0.072 0.4279 0.216 0.5706 0.246 0.2461 0.588 0.2461 0.902 0.243 0.145-0.0016 0.398-0.0016 0.451 0.0517 0.013 0.011 0.036 0.0675 0.036 0.1882 0 0.1458-0.047 0.1991-0.252 0.3653-0.22 0.1787-0.551 0.4468-0.551 0.9892 0 0.7086 0.532 0.9751 0.849 1.135 0.323 0.1615 0.355 0.2054 0.355 0.3198 0 0.4719 0.182 1.2385 1.335 1.342-0.082-0.2101-0.13-0.4374-0.13-0.6757 0-0.4045 0.133-0.7948 0.373-1.1178-0.24-0.3229-0.373-0.7133-0.373-1.1178 0-0.4138 0.137-0.7948 0.363-1.1068-0.095-0.0611-0.186-0.1301-0.268-0.2116-0.542-0.5424-0.624-1.3655-0.26-2.0004l-2.005-2.0459c-0.066-0.0674-0.119-0.1427-0.176-0.2148zm2.784 2.8784c-0.069 0.2821 2e-3 0.5941 0.225 0.8152 0.103 0.1034 0.233 0.1693 0.374 0.2069 0.093-0.047 0.19-0.0846 0.289-0.1176l-0.888-0.9045zm6.384 0.8089c0.221 0 0.402 0.1803 0.402 0.4013 0 0.2211-0.181 0.4014-0.402 0.4014s-0.401-0.1803-0.401-0.4014c0-0.221 0.18-0.4013 0.401-0.4013zm-4.93 0.8027c-0.601 0-1.09 0.4891-1.09 1.0895 0 0.3136 0.135 0.602 0.378 0.8153 0.088 0.0768 0.136 0.1865 0.136 0.3025s-0.048 0.2258-0.136 0.3026c-0.243 0.2132-0.378 0.5017-0.378 0.8152 0 0.6005 0.489 1.0896 1.09 1.0896 0.313 0 0.602-0.1348 0.815-0.3778 0.154-0.1741 0.451-0.1741 0.605 0 0.213 0.243 0.502 0.3778 0.815 0.3778 0.601 0 1.09-0.4891 1.09-1.0896 0-0.0235-6e-3 -0.047-8e-3 -0.0705l-3.175-3.2405c-0.047-0.0063-0.094-0.0141-0.142-0.0141zm6.134 0c0.221 0 0.402 0.1803 0.402 0.4013 0 0.2211-0.181 0.4013-0.402 0.4013s-0.401-0.1802-0.401-0.4013c0-0.221 0.18-0.4013 0.401-0.4013zm-1.204 0.4013c0.221 0 0.402 0.1803 0.402 0.4013 0 0.2211-0.181 0.4014-0.402 0.4014s-0.401-0.1803-0.401-0.4014c0-0.221 0.18-0.4013 0.401-0.4013zm-0.922 3.5603c-0.116 0.323-0.315 0.602-0.575 0.8168 0.155 0.0251 0.315 0.0376 0.494 0.0376 0.376 0 0.68-0.0846 0.926-0.2053-0.246-0.1129-0.473-0.2713-0.667-0.4704l-0.178-0.1787z" fill="#505051"/>
<path d="m230.45 61.538c-0.878 0-1.632 0.531-1.965 1.288h13.128c1.657 0 3.005 1.3481 3.005 3.0053v8.8342c0.757-0.3323 1.288-1.0868 1.288-1.9648v-9.0161c0-1.1836-0.963-2.1466-2.146-2.1466h-13.31zm-2.147 2.1466c-1.183 0-2.146 0.963-2.146 2.1467v9.0161c0 1.1837 0.963 2.1467 2.146 2.1467h1.711c-0.039 1.0811-0.258 1.7185-1.073 2.2079-0.166 0.0992-0.245 0.2971-0.193 0.483 0.051 0.1859 0.221 0.3145 0.414 0.3145 1.26 0 3.491-0.3984 4.586-3.0054h7.865c1.184 0 2.147-0.963 2.147-2.1467v-9.0161c0-1.1837-0.963-2.1467-2.147-2.1467h-13.31z" fill="#505051"/>
<path d="m230.45 61.538c-0.878 0-1.632 0.531-1.965 1.288h13.128c1.657 0 3.005 1.3481 3.005 3.0053v8.8342c0.757-0.3323 1.288-1.0868 1.288-1.9648v-9.0161c0-1.1836-0.963-2.1466-2.146-2.1466h-13.31zm-2.147 2.1466c-1.183 0-2.146 0.963-2.146 2.1467v9.0161c0 1.1837 0.963 2.1467 2.146 2.1467h1.711c-0.039 1.0811-0.258 1.7185-1.073 2.2079-0.166 0.0992-0.245 0.2971-0.193 0.483 0.051 0.1859 0.221 0.3145 0.414 0.3145 1.26 0 3.491-0.3984 4.586-3.0054h7.865c1.184 0 2.147-0.963 2.147-2.1467v-9.0161c0-1.1837-0.963-2.1467-2.147-2.1467h-13.31z" fill="#505051"/>
<path d="m284.06 61.538c-0.699 0-1.338 0.3945-1.651 1.0204l-0.364 0.7284c-0.313 0.6249-0.953 1.0204-1.652 1.0204h-3.935c-1.02 0-1.847 0.8261-1.847 1.8461v12c0 1.02 0.827 1.8462 1.847 1.8462h20.307c1.02 0 1.846-0.8262 1.846-1.8462v-12c0-1.02-0.826-1.8461-1.846-1.8461h-3.935c-0.7 0-1.339-0.3946-1.652-1.0204l-0.364-0.7284c-0.313-0.6249-0.953-1.0204-1.652-1.0204h-5.102zm-5.756 0.923c-0.51 0-0.923 0.4136-0.923 0.9231h2.769c0-0.5095-0.414-0.9231-0.923-0.9231h-0.923zm8.307 2.7693c3.563 0 6.462 2.8984 6.462 6.4615s-2.899 6.4615-6.462 6.4615-6.461-2.8984-6.461-6.4615 2.898-6.4615 6.461-6.4615zm8.308 0.923c0.51 0 0.923 0.4136 0.923 0.9231 0 0.5096-0.413 0.9231-0.923 0.9231-0.509 0-0.923-0.4135-0.923-0.9231 0-0.5095 0.414-0.9231 0.923-0.9231zm-8.308 0.9231c-1.224 0-2.398 0.4863-3.263 1.3518-0.866 0.8656-1.352 2.0395-1.352 3.2636s0.486 2.398 1.352 3.2636c0.865 0.8655 2.039 1.3518 3.263 1.3518s2.398-0.4863 3.264-1.3518c0.865-0.8656 1.352-2.0395 1.352-3.2636s-0.487-2.398-1.352-3.2636c-0.866-0.8655-2.04-1.3518-3.264-1.3518z" fill="#505051"/>
<path d="m329.67 61.538c-1.092 0-1.978 0.8854-1.978 1.978v14.506c0 1.0925 0.886 1.978 1.978 1.978h19.781c1.092 0 1.978-0.8855 1.978-1.978v-14.506c0-1.0926-0.886-1.978-1.978-1.978h-19.781zm0 0.6593h19.781c0.728 0 1.318 0.5901 1.318 1.3187v12.588l-5.623-5.0571c-0.879-0.7899-2.214-0.7887-3.091 0.0038l-4.57 4.1299-2.188-1.8711c-0.867-0.7404-2.143-0.7386-3.006 0.0052l-3.939 3.3932v-13.192c0-0.7286 0.59-1.3187 1.318-1.3187zm3.956 3.2967c-1.092 0-1.978 0.8855-1.978 1.978s0.886 1.978 1.978 1.978c1.093 0 1.978-0.8855 1.978-1.978s-0.885-1.978-1.978-1.978z" fill="#505051"/>
<path d="m389.3 61.538c-0.928 0-1.679 0.751-1.679 1.6783h-6.713c-0.927 0-1.678 0.751-1.678 1.6783v7.5524c0 0.9273 0.751 1.6784 1.678 1.6784h18.462c0.927 0 1.678-0.7511 1.678-1.6784v-7.5524c0-0.9273-0.751-1.6783-1.678-1.6783h-6.714c0-0.9273-0.751-1.6783-1.678-1.6783h-1.678zm0.839 9.2307c0.463 0 0.839 0.376 0.839 0.8392s-0.376 0.8391-0.839 0.8391-0.839-0.3759-0.839-0.8391 0.376-0.8392 0.839-0.8392zm-10.909 4.5679v2.9846c0 0.9272 0.751 1.6783 1.678 1.6783h18.462c0.927 0 1.678-0.7511 1.678-1.6783v-2.9846c-0.496 0.2886-1.064 0.4671-1.678 0.4671h-18.462c-0.614 0-1.182-0.1785-1.678-0.4671z" fill="#292929"/>
<path d="m445.76 61.538c-1.244 0-2.252 1.0078-2.252 2.2514 0 1.2435 1.008 2.2514 2.252 2.2514 1.243 0 2.251-1.0079 2.251-2.2514 0-1.2436-1.008-2.2514-2.251-2.2514zm-4.728 2.7016c-0.398 0-0.781 0.1531-1.071 0.4239l-3.763 3.0324v0.0053c-0.497 0.3342-0.795 0.8935-0.795 1.4915 0 0.6262 0.328 1.2066 0.86 1.5338l3.474 2.364-0.71 4.2196c-0.014 0.0704-0.021 0.1407-0.021 0.2128 0 0.6209 0.504 1.1257 1.125 1.1257 0.598 0 1.091-0.4678 1.124-1.0641l0.889-5.078v-0.0017c8e-3 -0.0528 0.014-0.1073 0.014-0.1601 0-0.2972-0.148-0.5769-0.394-0.744l-2e-3 -0.0035-2.419-1.7853 2.458-2.1688 1.873 2.072 5e-3 0.0036c0.169 0.2356 0.44 0.3746 0.73 0.3746h3.377c0.621 0 1.126-0.5048 1.126-1.1257s-0.505-1.1257-1.126-1.1257h-2.927l-2.518-2.9022c-0.292-0.438-0.783-0.7001-1.309-0.7001zm-6.979 7.6548c-2.233 0-4.053 1.8205-4.053 4.0526 0 2.232 1.82 4.0525 4.053 4.0525 2.232 0 4.052-1.8205 4.052-4.0525 0-2.2321-1.82-4.0526-4.052-4.0526zm12.607 0c-2.232 0-4.052 1.8205-4.052 4.0526 0 2.232 1.82 4.0525 4.052 4.0525s4.053-1.8205 4.053-4.0525c0-2.2321-1.821-4.0526-4.053-4.0526zm-12.607 0.9006c1.746 0 3.152 1.4054 3.152 3.152s-1.406 3.1519-3.152 3.1519c-1.747 0-3.152-1.4053-3.152-3.1519s1.405-3.152 3.152-3.152zm12.607 0c1.747 0 3.152 1.4054 3.152 3.152s-1.405 3.1519-3.152 3.1519c-1.746 0-3.152-1.4053-3.152-3.1519s1.406-3.152 3.152-3.152z" fill="#1B1B1B"/>
<path d="m67.692 98.462c-0.201 1e-4 -0.3941 0.0788-0.5378 0.2194l-8.391 6.8631c-0.0097 7e-3 -0.0192 0.015-0.0285 0.022l-0.0286 0.024v2e-3c-0.0771 0.072-0.1387 0.159-0.1808 0.255-0.0421 0.097-0.0639 0.201-0.0641 0.307 0 0.204 0.0811 0.4 0.2254 0.544 0.1442 0.144 0.3399 0.225 0.5439 0.225h0.7692v8.462c0 0.85 0.6885 1.538 1.5385 1.538h12.308c0.85 0 1.5384-0.688 1.5384-1.538v-8.462h0.7693c0.204 0 0.3996-0.081 0.5439-0.225 0.1442-0.144 0.2253-0.34 0.2253-0.544 1e-4 -0.106-0.0216-0.21-0.0638-0.307-0.0421-0.097-0.1038-0.184-0.1811-0.257l-0.012-9e-3c-0.0169-0.015-0.0344-0.029-0.0526-0.043l-2.7674-2.264v-3.274c0-0.4246-0.3447-0.7692-0.7693-0.7692h-0.7692c-0.4246 0-0.7692 0.3446-0.7692 0.7692v1.387l-3.3248-2.7196c-0.1418-0.1318-0.3279-0.2052-0.5214-0.2059zm-2.3077 10.77h4.6154v6.154h-4.6154v-6.154z" fill="#292929"/>
<path d="m312.31 172.31c-0.201 0-0.394 0.078-0.538 0.219l-8.391 6.863c-0.01 7e-3 -0.019 0.015-0.029 0.023l-0.028 0.024v1e-3c-0.077 0.072-0.139 0.159-0.181 0.256-0.042 0.096-0.064 0.201-0.064 0.306 0 0.204 0.081 0.4 0.225 0.544s0.34 0.225 0.544 0.225h0.769v8.462c0 0.85 0.689 1.538 1.539 1.538h12.308c0.85 0 1.538-0.688 1.538-1.538v-8.462h0.769c0.204 0 0.4-0.081 0.544-0.225s0.225-0.34 0.225-0.544c1e-3 -0.106-0.021-0.21-0.063-0.307s-0.104-0.184-0.181-0.256l-0.012-9e-3c-0.017-0.016-0.035-0.03-0.053-0.044l-2.767-2.264v-3.274c0-0.424-0.345-0.769-0.77-0.769h-0.769c-0.425 0-0.769 0.345-0.769 0.769v1.387l-3.325-2.719c-0.142-0.132-0.328-0.206-0.521-0.206zm-2.308 10.769h4.615v6.154h-4.615v-6.154z" fill="#505051"/>
<path d="m116.92 98.462c-1.32 0-2.408 1.0583-2.408 2.3645 0 0.472 0.133 0.926 0.262 1.309 0.128 0.382 0.254 0.737 0.26 0.785 0 6e-3 0.099 0.877-0.144 1.626v3e-3c-0.043 0.118-0.45 1.27-0.734 2.058-0.643-0.867-1.475-1.991-1.514-2.044-0.407-0.588-0.557-1.376-0.557-1.376-6e-3 -0.04 3e-3 -0.378 8e-3 -0.745 6e-3 -0.368-2e-3 -0.801-0.132-1.218-0.266-0.866-1.022-1.4518-1.87-1.5459-0.282-0.0298-0.574-0.0063-0.862 0.0815-1.15 0.3484-1.797 1.5784-1.443 2.7314 0.13 0.418 0.372 0.779 0.587 1.08 0.213 0.301 0.407 0.575 0.432 0.636l3e-3 5e-3 4e-3 6e-3s0.318 0.74 0.313 1.45l2e-3 -9e-3c-5e-3 0.135-0.06 2.121-0.087 2.604l-1e-3 2e-3c-0.074 1.527 0.24 3.042 0.861 4.425 0.594 1.333 0.951 2.532 1.019 2.747l0.012 0.038c0.141 0.329 0.494 0.556 0.978 0.612 0.421 0.048 0.961-0.034 1.65-0.286 0.892 0.725 2.005 1.122 3.193 1.122 1.254 0 2.422-0.447 3.347-1.19 0.779 0.311 1.374 0.406 1.831 0.354 0.485-0.056 0.837-0.283 0.979-0.612l0.012-0.038c0.068-0.215 0.425-1.414 1.021-2.747v-1e-3c0.619-1.382 0.932-2.897 0.859-4.424v-2e-3c-0.028-0.483-0.083-2.469-0.088-2.604l2e-3 9e-3c-5e-3 -0.71 0.313-1.45 0.313-1.45l3e-3 -6e-3 3e-3 -5e-3c0.025-0.061 0.22-0.335 0.433-0.636 0.215-0.301 0.456-0.662 0.585-1.08 0.356-1.153-0.292-2.383-1.442-2.7314-0.287-0.0878-0.579-0.1129-0.861-0.0815-0.847 0.0925-1.604 0.6799-1.87 1.5439-0.131 0.417-0.138 0.852-0.132 1.22 6e-3 0.367 0.016 0.71 8e-3 0.748 0 3e-3 -0.152 0.787-0.557 1.373-0.041 0.057-0.884 1.195-1.528 2.063-0.284-0.791-0.685-1.926-0.725-2.039-0.244-0.753-0.144-1.632-0.144-1.632v-0.011c8e-3 -0.08 0.127-0.428 0.257-0.811 0.132-0.382 0.27-0.834 0.27-1.307 0-1.3062-1.088-2.3645-2.408-2.3645zm0 0.8027c0.897 0 1.605 0.6992 1.605 1.5618 0 0.309-0.103 0.691-0.226 1.048-0.12 0.356-0.263 0.654-0.296 0.988 0 5e-3 -0.017 0.18-0.023 0.416h-2.125c-4e-3 -0.267-0.026-0.463-0.026-0.463v-1e-3c-0.041-0.306-0.176-0.582-0.295-0.935-0.118-0.353-0.22-0.741-0.22-1.053 0-0.8626 0.709-1.5618 1.606-1.5618zm-7.183 1.2088c0.642-0.06 1.258 0.339 1.458 0.986 0.083 0.27 0.101 0.632 0.095 0.97-5e-3 0.338-0.045 0.61 3e-3 0.896v3e-3s0.036 0.175 0.104 0.412l-1.715 0.521c-0.069-0.204-0.13-0.355-0.134-0.361l-1e-3 -2e-3c-0.121-0.288-0.323-0.514-0.522-0.793-0.199-0.28-0.387-0.585-0.471-0.851-0.228-0.74 0.176-1.505 0.908-1.726 0.091-0.028 0.184-0.047 0.275-0.055zm14.366 0c0.091 8e-3 0.184 0.027 0.275 0.055 0.732 0.221 1.136 0.986 0.907 1.726-0.083 0.266-0.271 0.571-0.47 0.851-0.199 0.279-0.401 0.505-0.522 0.793v2e-3c-5e-3 6e-3 -0.066 0.157-0.135 0.361l-1.715-0.521c0.067-0.237 0.103-0.412 0.103-0.412v-5e-3c0.049-0.284 8e-3 -0.556 4e-3 -0.894-7e-3 -0.338 0.012-0.702 0.095-0.97 0.201-0.647 0.817-1.046 1.458-0.986zm-8.288 3.607h2.201c0.031 0.24 0.081 0.497 0.164 0.753l2e-3 6e-3 3e-3 5e-3s0.013 0.037 0.014 0.039h-2.577c1e-3 -5e-3 0.026-0.075 0.026-0.075l4e-3 -7e-3 1e-3 -6e-3c0.079-0.241 0.129-0.484 0.162-0.715zm-4.134 0.414c0.083 0.174 0.181 0.354 0.301 0.527l3e-3 5e-3 4e-3 3e-3c5e-3 8e-3 0.115 0.157 0.132 0.178l-2.199 0.667c1e-3 -0.025 6e-3 -0.184 6e-3 -0.188v-0.013c1e-3 -0.221-0.019-0.434-0.05-0.633l1.803-0.546zm10.478 0 1.803 0.546c-0.031 0.199-0.052 0.412-0.05 0.633v0.013c0 4e-3 5e-3 0.163 6e-3 0.188l-2.199-0.665c0.017-0.023 0.128-0.172 0.133-0.18l3e-3 -3e-3 3e-3 -5e-3c0.119-0.174 0.218-0.353 0.301-0.527zm-6.823 1.192h3.147c0.144 0.407 0.235 0.661 0.401 1.128-0.564-0.21-1.168-0.326-1.796-0.326-0.786 0-1.534 0.179-2.212 0.493 0.175-0.488 0.293-0.816 0.46-1.295zm-2.707 0.207c0.456 0.619 0.861 1.166 1.248 1.685-1.264 0.953-2.113 2.439-2.171 4.114-0.046 1.298 0.384 2.517 1.207 3.477-0.411 0.116-0.718 0.142-0.914 0.121-0.286-0.033-0.333-0.14-0.328-0.129-0.064-0.209-0.429-1.43-1.039-2.798v-2e-3c-0.573-1.273-0.858-2.664-0.792-4.054v-2e-3c0.019-0.329 0.034-0.939 0.053-1.585l2.736-0.827zm8.583 0 2.733 0.827c0.02 0.648 0.036 1.259 0.055 1.587 0.066 1.39-0.22 2.781-0.792 4.054v2e-3c-0.61 1.368-0.975 2.589-1.039 2.798 4e-3 -0.011-0.043 0.096-0.328 0.129-0.224 0.025-0.586-8e-3 -1.094-0.173 0.82-0.914 1.342-2.099 1.387-3.397 0.049-1.4-0.448-2.714-1.403-3.702-0.207-0.214-0.431-0.403-0.668-0.575 0.401-0.538 0.729-0.98 1.149-1.55zm-4.693 2.205c0.443 0 0.802 0.358 0.802 0.801s-0.359 0.802-0.802 0.802-0.802-0.358-0.802-0.802c0-0.442 0.359-0.801 0.802-0.801zm2.406 0.801c0.442 0 0.801 0.359 0.801 0.802s-0.359 0.802-0.801 0.802c-0.444 0-0.803-0.359-0.803-0.802s0.359-0.802 0.803-0.802zm-2.005 1.604c0.444 0 0.803 0.359 0.803 0.801 0 0.444-0.361 0.803-0.803 0.803s-0.803-0.359-0.803-0.803c0-0.442 0.359-0.801 0.803-0.801z" fill="#fff"/>
<path d="m67.692 172.31c-1.3201 0-2.4081 1.058-2.4081 2.364 0 0.472 0.1333 0.926 0.2619 1.309 0.1285 0.382 0.2539 0.737 0.2602 0.785 0 7e-3 0.0988 0.877-0.1442 1.626v3e-3c-0.0424 0.118-0.45 1.27-0.7337 2.059-0.6428-0.867-1.4753-1.991-1.5145-2.045-0.406-0.588-0.5565-1.376-0.5565-1.376-0.0063-0.039 0.0031-0.378 0.0078-0.745 0.0063-0.368-0.0015-0.801-0.1316-1.218-0.2666-0.865-1.0222-1.452-1.8703-1.546-0.2822-0.03-0.5738-6e-3 -0.8623 0.082-1.1491 0.348-1.7966 1.578-1.4423 2.731 0.1301 0.418 0.3715 0.779 0.5863 1.08 0.2132 0.301 0.4076 0.575 0.4327 0.636l0.0032 5e-3 0.0031 6e-3s0.3182 0.74 0.3135 1.451l0.0016-0.01c-0.0047 0.135-0.0596 2.121-0.0862 2.604l-0.0016 2e-3c-0.0737 1.527 0.2399 3.043 0.8607 4.425 0.5942 1.333 0.9516 2.532 1.019 2.747l0.0126 0.038c0.1411 0.329 0.4938 0.556 0.9782 0.613 0.4202 0.047 0.961-0.035 1.6493-0.287 0.892 0.726 2.0051 1.122 3.1934 1.122 1.2542 0 2.4222-0.447 3.3471-1.19 0.7792 0.311 1.3733 0.406 1.8311 0.355 0.4844-0.057 0.8372-0.284 0.9783-0.613l0.0125-0.038c0.0674-0.215 0.4249-1.414 1.0206-2.747v-1e-3c0.6193-1.381 0.9328-2.897 0.8591-4.424v-2e-3c-0.0282-0.483-0.0831-2.469-0.0878-2.604l0.0016 0.01c-0.0047-0.711 0.3135-1.451 0.3135-1.451l0.0032-6e-3 0.0031-5e-3c0.0251-0.061 0.2195-0.335 0.4327-0.636 0.2148-0.301 0.4562-0.662 0.5848-1.08 0.3558-1.153-0.2916-2.383-1.4423-2.731-0.2869-0.088-0.5785-0.113-0.8607-0.082-0.8466 0.093-1.6038 0.681-1.8703 1.544-0.1301 0.417-0.138 0.852-0.1317 1.22 0.0063 0.367 0.0157 0.71 0.0078 0.748 0 3e-3 -0.152 0.787-0.5565 1.373-0.0408 0.057-0.8842 1.195-1.5285 2.063-0.2838-0.791-0.6851-1.926-0.7243-2.039-0.2446-0.753-0.1443-1.632-0.1443-1.632v-0.011c0.0079-0.08 0.127-0.428 0.2571-0.811 0.1317-0.382 0.2697-0.834 0.2697-1.307 0-1.306-1.088-2.364-2.408-2.364zm0 0.802c0.8967 0 1.6053 0.7 1.6053 1.562 0 0.309-0.1035 0.691-0.2257 1.049-0.1207 0.356-0.2634 0.653-0.2963 0.987 0 5e-3 -0.0173 0.181-0.0235 0.416h-2.1243c-0.0047-0.267-0.0267-0.463-0.0267-0.463v-1e-3c-0.0407-0.306-0.1756-0.582-0.2947-0.935-0.1176-0.352-0.2195-0.741-0.2195-1.053 0-0.862 0.7086-1.562 1.6054-1.562zm-7.1834 1.209c0.6428-0.059 1.2589 0.339 1.458 0.986 0.0831 0.27 0.1019 0.632 0.0957 0.971-0.0047 0.337-0.0455 0.609 0.0031 0.895v3e-3s0.0361 0.175 0.1035 0.412l-1.7151 0.521c-0.069-0.204-0.1301-0.355-0.1333-0.361l-0.0015-1e-3c-0.1208-0.289-0.323-0.515-0.5221-0.794-0.1991-0.28-0.3872-0.584-0.4703-0.851-0.2289-0.74 0.1756-1.505 0.9077-1.726 0.0909-0.028 0.1834-0.047 0.2743-0.055zm14.367 0c0.0909 8e-3 0.1834 0.027 0.2743 0.055 0.7322 0.221 1.1366 0.986 0.9078 1.726-0.0831 0.267-0.2713 0.571-0.4704 0.851-0.1991 0.279-0.4013 0.505-0.522 0.794v1e-3c-0.0047 6e-3 -0.0659 0.157-0.1348 0.361l-1.7151-0.521c0.0674-0.237 0.1034-0.412 0.1034-0.412v-5e-3c0.0486-0.284 0.0079-0.556 0.0032-0.893-0.0063-0.339 0.0125-0.703 0.0956-0.971 0.2007-0.647 0.8168-1.045 1.458-0.986zm-8.2886 3.607h2.2011c0.0314 0.24 0.0815 0.497 0.1646 0.753l0.0016 6e-3 0.0031 5e-3s0.0126 0.038 0.0141 0.039h-2.5773c0.0016-5e-3 0.0266-0.075 0.0266-0.075l0.0032-6e-3 0.0015-7e-3c0.0784-0.241 0.1286-0.484 0.1615-0.715zm-4.1341 0.414c0.0831 0.174 0.1819 0.355 0.301 0.527l0.0032 5e-3 0.0047 3e-3c0.0047 8e-3 0.1144 0.157 0.1317 0.179l-2.1996 0.666c0.0016-0.025 0.0063-0.184 0.0063-0.188v-0.013c0.0016-0.221-0.0188-0.434-0.0502-0.633l1.8029-0.546zm10.479 0 1.8029 0.546c-0.0314 0.199-0.0517 0.412-0.0502 0.633v0.013c0 4e-3 0.0047 0.163 0.0063 0.188l-2.1995-0.665c0.0172-0.023 0.1285-0.172 0.1332-0.18l0.0032-3e-3 0.0031-5e-3c0.1191-0.174 0.2179-0.353 0.301-0.527zm-6.8227 1.192h3.1464c0.1442 0.407 0.2351 0.661 0.4013 1.129-0.5644-0.211-1.1679-0.327-1.7966-0.327-0.7854 0-1.5332 0.179-2.212 0.493 0.1755-0.488 0.2931-0.816 0.4609-1.295zm-2.7075 0.207c0.4562 0.619 0.8607 1.166 1.2479 1.685-1.2636 0.953-2.1133 2.439-2.1713 4.114-0.0455 1.298 0.3841 2.517 1.2072 3.477-0.4108 0.116-0.7181 0.143-0.914 0.121-0.2853-0.033-0.3324-0.14-0.3277-0.129-0.0643-0.208-0.4295-1.43-1.0394-2.798v-2e-3c-0.5722-1.273-0.8575-2.663-0.7917-4.054v-2e-3c0.0188-0.329 0.0345-0.939 0.0533-1.585l2.7357-0.827zm8.5833 0 2.7325 0.827c0.0204 0.648 0.0361 1.259 0.0549 1.587 0.0659 1.391-0.2195 2.781-0.7917 4.054v2e-3c-0.6098 1.368-0.9751 2.59-1.0394 2.798 0.0047-0.011-0.0423 0.096-0.3276 0.129-0.2242 0.025-0.5864-8e-3 -1.0943-0.173 0.8199-0.914 1.342-2.099 1.3874-3.397 0.0486-1.4-0.4483-2.714-1.4031-3.701-0.2069-0.215-0.4311-0.403-0.6678-0.576 0.4013-0.538 0.7289-0.98 1.1491-1.55zm-4.6938 2.206c0.4437 0 0.8027 0.357 0.8027 0.801 0 0.442-0.359 0.801-0.8027 0.801-0.4421 0-0.8011-0.358-0.8011-0.801 0-0.442 0.359-0.801 0.8011-0.801zm2.4065 0.801c0.4421 0 0.8011 0.359 0.8011 0.801 0 0.443-0.359 0.802-0.8011 0.802-0.4437 0-0.8027-0.359-0.8027-0.802 0-0.442 0.359-0.801 0.8027-0.801zm-2.0051 1.603c0.4436 0 0.8026 0.359 0.8026 0.802s-0.3605 0.802-0.8026 0.802-0.8027-0.359-0.8027-0.802 0.359-0.802 0.8027-0.802z" fill="#292929"/>
<path d="m162.3 98.462c-0.2 0.0032-0.39 0.084-0.532 0.2254l-3.62 3.621h-6e-3c-0.787 0-1.448 0.594-1.53 1.377l-1.214 11.539c-0.095 0.908 0.617 1.699 1.53 1.699h15.384c0.913 0 1.625-0.791 1.53-1.699l-1.214-11.539c-0.083-0.783-0.743-1.377-1.53-1.377h-0.505l-2.851-2.8518c-0.073-0.0729-0.16-0.1304-0.255-0.1691-0.096-0.0387-0.198-0.0578-0.301-0.0562-0.183 0.0027-0.36 0.0709-0.497 0.1923l-1.644 1.4528-2.189-2.189c-0.073-0.0729-0.159-0.1304-0.255-0.1691-0.095-0.0387-0.198-0.0578-0.301-0.0563zm0.012 1.8574 1.989 1.989h-3.978l1.989-1.989zm4.853 0.737 1.251 1.252h-1.939l-0.341-0.341 1.029-0.911zm-6.007 3.559c0.637 0 1.154 0.517 1.154 1.154v1.923c0 1.273 1.036 2.308 2.308 2.308s2.308-1.035 2.308-2.308v-1.923c0-0.637 0.517-1.154 1.153-1.154 0.637 0 1.154 0.517 1.154 1.154 0 0.502-0.322 0.925-0.769 1.084v0.839c0 2.121-1.725 3.846-3.846 3.846s-3.846-1.725-3.846-3.846v-0.839c-0.447-0.159-0.769-0.582-0.769-1.084 0-0.637 0.516-1.154 1.153-1.154z" fill="#505051"/>
<path d="m259.22 172.31c-0.2 3e-3 -0.39 0.084-0.532 0.225l-3.62 3.621h-6e-3c-0.787 0-1.447 0.595-1.53 1.378l-1.214 11.538c-0.095 0.908 0.617 1.699 1.53 1.699h15.384c0.913 0 1.625-0.791 1.53-1.699l-1.214-11.538c-0.083-0.783-0.743-1.378-1.53-1.378h-0.504l-2.852-2.852c-0.073-0.073-0.16-0.13-0.255-0.169-0.096-0.038-0.198-0.058-0.301-0.056-0.183 3e-3 -0.36 0.071-0.497 0.192l-1.644 1.453-2.189-2.189c-0.073-0.073-0.159-0.13-0.255-0.169-0.095-0.039-0.198-0.058-0.301-0.056zm0.012 1.857 1.989 1.989h-3.978l1.989-1.989zm4.853 0.737 1.252 1.252h-1.94l-0.341-0.341 1.029-0.911zm-6.007 3.56c0.637 0 1.154 0.517 1.154 1.153v1.924c0 1.272 1.036 2.307 2.308 2.307s2.308-1.035 2.308-2.307v-1.924c0-0.636 0.517-1.153 1.153-1.153 0.637 0 1.154 0.517 1.154 1.153 0 0.502-0.322 0.925-0.769 1.084v0.84c0 2.12-1.725 3.846-3.846 3.846s-3.846-1.726-3.846-3.846v-0.84c-0.447-0.159-0.769-0.582-0.769-1.084 0-0.636 0.517-1.153 1.153-1.153z" fill="#fff"/>
<path d="m208.55 98.462c-0.259 0.0077-0.505 0.1159-0.685 0.3017l-2.534 2.5343-0.541-0.541c-0.092-0.096-0.202-0.172-0.324-0.225-0.122-0.052-0.253-0.08-0.385-0.081-0.133-2e-3 -0.264 0.023-0.387 0.073-0.123 0.051-0.234 0.125-0.328 0.218-0.094 0.094-0.168 0.206-0.218 0.328-0.05 0.123-0.075 0.255-0.074 0.387 1e-3 0.133 0.029 0.264 0.082 0.386 0.052 0.121 0.129 0.231 0.224 0.323l1.246 1.246c0.187 0.187 0.44 0.292 0.705 0.292 0.264 0 0.517-0.105 0.704-0.292l3.239-3.239c0.144-0.14 0.243-0.3203 0.282-0.5171 0.04-0.1969 0.02-0.4012-0.059-0.5861-0.078-0.185-0.21-0.342-0.379-0.4504-0.169-0.1085-0.367-0.1633-0.568-0.1574zm3.508 1.5046c-0.132-0.0019-0.264 0.0225-0.386 0.0714-0.123 0.05-0.234 0.123-0.328 0.215-0.094 0.093-0.169 0.204-0.22 0.326-0.051 0.121-0.077 0.252-0.077 0.384s0.026 0.263 0.077 0.385 0.126 0.232 0.22 0.325 0.205 0.166 0.328 0.215c0.122 0.049 0.254 0.074 0.386 0.072h9.966c0.132 2e-3 0.263-0.023 0.385-0.072 0.123-0.049 0.234-0.122 0.328-0.215s0.169-0.203 0.22-0.325 0.077-0.253 0.077-0.385-0.026-0.263-0.077-0.384c-0.051-0.122-0.126-0.233-0.22-0.326-0.094-0.092-0.205-0.165-0.328-0.215-0.122-0.0489-0.253-0.0733-0.385-0.0714h-9.966zm-3.508 5.2224c-0.259 8e-3 -0.505 0.116-0.685 0.302l-2.534 2.534-0.541-0.541c-0.092-0.096-0.202-0.172-0.324-0.225-0.122-0.052-0.253-0.08-0.385-0.082-0.133-1e-3 -0.264 0.024-0.387 0.074-0.123 0.051-0.234 0.125-0.328 0.218-0.094 0.094-0.168 0.206-0.218 0.328-0.05 0.123-0.075 0.255-0.074 0.387 1e-3 0.133 0.029 0.264 0.082 0.386 0.052 0.121 0.129 0.231 0.224 0.323l1.246 1.246c0.187 0.187 0.44 0.292 0.705 0.292 0.264 0 0.517-0.105 0.704-0.292l3.239-3.239c0.144-0.14 0.243-0.32 0.282-0.517 0.04-0.197 0.02-0.401-0.059-0.586-0.078-0.185-0.21-0.342-0.379-0.451-0.169-0.108-0.367-0.163-0.568-0.157zm3.508 1.754c-0.132-2e-3 -0.264 0.022-0.386 0.072-0.123 0.049-0.234 0.122-0.328 0.215-0.094 0.092-0.169 0.203-0.22 0.325-0.051 0.121-0.077 0.252-0.077 0.384s0.026 0.263 0.077 0.385 0.126 0.232 0.22 0.325 0.205 0.166 0.328 0.215c0.122 0.049 0.254 0.074 0.386 0.072h9.966c0.132 2e-3 0.263-0.023 0.385-0.072 0.123-0.049 0.234-0.122 0.328-0.215s0.169-0.203 0.22-0.325 0.077-0.253 0.077-0.385-0.026-0.263-0.077-0.384c-0.051-0.122-0.126-0.233-0.22-0.325-0.094-0.093-0.205-0.166-0.328-0.215-0.122-0.05-0.253-0.074-0.385-0.072h-9.966zm-4.494 4.968c-0.263 6e-3 -0.513 0.117-0.696 0.307l-0.79 0.79-0.79-0.79c-0.093-0.096-0.204-0.172-0.327-0.224s-0.255-0.078-0.388-0.078c-0.199 0-0.392 0.06-0.557 0.17-0.164 0.111-0.291 0.268-0.366 0.452-0.074 0.184-0.092 0.385-0.052 0.579 0.041 0.194 0.139 0.372 0.281 0.51l0.79 0.79-0.79 0.79c-0.096 0.092-0.172 0.202-0.225 0.324s-0.08 0.253-0.082 0.385c-1e-3 0.133 0.024 0.264 0.074 0.387s0.124 0.234 0.218 0.328 0.205 0.168 0.328 0.218 0.254 0.075 0.387 0.074 0.264-0.029 0.385-0.082c0.122-0.052 0.232-0.129 0.324-0.224l0.79-0.791 0.79 0.791c0.092 0.095 0.202 0.172 0.324 0.224 0.122 0.053 0.253 0.081 0.385 0.082 0.133 1e-3 0.264-0.024 0.387-0.074s0.234-0.124 0.328-0.218 0.168-0.205 0.218-0.328 0.075-0.254 0.074-0.387c-1e-3 -0.132-0.029-0.263-0.082-0.385-0.052-0.122-0.129-0.232-0.224-0.324l-0.791-0.79 0.791-0.79c0.145-0.139 0.244-0.319 0.285-0.515 0.042-0.197 0.022-0.402-0.055-0.587-0.077-0.186-0.208-0.344-0.377-0.453-0.168-0.11-0.366-0.166-0.567-0.161zm4.494 2.008c-0.132-2e-3 -0.264 0.022-0.386 0.072-0.123 0.049-0.234 0.122-0.328 0.215-0.094 0.092-0.169 0.203-0.22 0.325s-0.077 0.252-0.077 0.384c0 0.133 0.026 0.263 0.077 0.385s0.126 0.232 0.22 0.325 0.205 0.166 0.328 0.215c0.122 0.05 0.254 0.074 0.386 0.072h9.966c0.132 2e-3 0.263-0.022 0.385-0.072 0.123-0.049 0.234-0.122 0.328-0.215s0.169-0.203 0.22-0.325 0.077-0.252 0.077-0.385c0-0.132-0.026-0.262-0.077-0.384s-0.126-0.233-0.22-0.325c-0.094-0.093-0.205-0.166-0.328-0.215-0.122-0.05-0.253-0.074-0.385-0.072h-9.966z" fill="#505051"/>
<path d="m261.54 98.462c-2.198 0-4.217 0.7757-5.805 2.0645l6.765 6.368v-3.774h2.578c0.736 0 1.394 0.182 1.976 0.545 0.58 0.363 1.034 0.88 1.361 1.55 0.326 0.67 0.488 1.431 0.488 2.283v0.421c0 0.852-0.16 1.613-0.479 2.276-0.257 0.532-0.602 0.964-1.028 1.305l1.648 1.55c1.083-1.512 1.727-3.359 1.727-5.358 0-5.09-4.141-9.2305-9.231-9.2305zm-7.121 3.3625c-1.317 1.596-2.109 3.642-2.109 5.868 0 5.09 4.141 9.231 9.23 9.231 2.427 0 4.632-0.949 6.282-2.486l-2.31-2.173c-0.137 0.015-0.274 0.028-0.416 0.029h-2.596v-2.865l-2.636-2.482 1.676 5.344h-1.864l-0.503-1.886h-2.646l-0.503 1.886h-1.865l2.597-8.268-2.337-2.198zm9.808 2.827v3.867l2.014 1.893c0.135-0.101 0.26-0.216 0.367-0.361 0.357-0.483 0.539-1.173 0.547-2.073v-0.487c0-0.932-0.176-1.638-0.529-2.118s-0.87-0.721-1.548-0.721h-0.851zm-6.377 0.79-0.914 3.43h1.828l-0.914-3.43z" fill="#505051"/>
<path d="m307.2 98.462c-0.203 0-0.369 0.1659-0.369 0.3693v12.184h9.969c0.61 0 1.108 0.498 1.108 1.108 0 0.603-0.486 1.095-1.085 1.108-0.118 0.066-0.392 0.473-0.392 1.107 0 0.7 0.463 1.746 1.2 1.824h1.281c0.738-0.611 1.211-1.532 1.211-2.562v-14.769c0-0.2034-0.164-0.3693-0.369-0.3693h-12.554zm-0.738 13.292c-1.019 0-1.847 1.159-1.847 2.584s0.828 2.585 1.847 2.585h10.338c0.205 0 0.469-0.033 0.658-0.069-1.143 0-1.766-1.532-1.766-2.516 0-0.983 0.518-1.846 1.108-1.846 0.205 0 0.369-0.164 0.369-0.369s-0.164-0.369-0.369-0.369h-10.338z" fill="#505051"/>
<path d="m207.97 172.31c-0.203 0-0.369 0.166-0.369 0.369v12.185h9.969c0.61 0 1.108 0.497 1.108 1.107 0 0.603-0.486 1.095-1.085 1.108-0.118 0.066-0.392 0.473-0.392 1.108 0 0.699 0.463 1.745 1.2 1.823h1.281c0.738-0.61 1.211-1.532 1.211-2.562v-14.769c0-0.203-0.164-0.369-0.369-0.369h-12.554zm-0.738 13.292c-1.018 0-1.846 1.16-1.846 2.585s0.828 2.584 1.846 2.584h10.338c0.205 0 0.469-0.033 0.658-0.069-1.142 0-1.765-1.532-1.765-2.515 0-0.984 0.517-1.847 1.107-1.847 0.205 0 0.369-0.164 0.369-0.369s-0.164-0.369-0.369-0.369h-10.338z" fill="#505051"/>
<path d="m370.07 101.67-3.282 3.281c0.568 0.767 0.9 1.713 0.9 2.737 0 1.025-0.332 1.971-0.9 2.737l3.282 3.282c1.394-1.616 2.234-3.72 2.234-6.019 0-2.298-0.84-4.403-2.234-6.018zm-6.997 1.403c1.025 0 1.971 0.332 2.737 0.9l3.281-3.282c-1.615-1.3935-3.72-2.2335-6.018-2.2335-2.299 0-4.403 0.84-6.019 2.2335l3.282 3.282c0.766-0.568 1.712-0.9 2.737-0.9zm0 9.231c-1.025 0-1.971-0.333-2.737-0.9l-3.282 3.281c1.616 1.394 3.72 2.234 6.019 2.234 2.298 0 4.403-0.84 6.018-2.234l-3.281-3.281c-0.766 0.567-1.712 0.9-2.737 0.9zm-4.615-4.616c0-1.024 0.332-1.97 0.9-2.737l-3.282-3.281c-1.394 1.615-2.234 3.72-2.234 6.018 0 2.299 0.84 4.403 2.234 6.019l3.282-3.282c-0.568-0.766-0.9-1.712-0.9-2.737z" fill="#505051"/>
<path d="m123.92 175.52-3.282 3.282c0.568 0.766 0.9 1.712 0.9 2.736 0 1.025-0.332 1.971-0.9 2.737l3.282 3.282c1.394-1.615 2.234-3.72 2.234-6.019 0-2.298-0.84-4.403-2.234-6.018zm-6.997 1.403c1.025 0 1.971 0.332 2.737 0.9l3.282-3.281c-1.616-1.394-3.72-2.234-6.019-2.234-2.298 0-4.403 0.84-6.018 2.234l3.281 3.281c0.766-0.568 1.712-0.9 2.737-0.9zm0 9.231c-1.025 0-1.971-0.332-2.737-0.9l-3.281 3.281c1.615 1.394 3.72 2.234 6.018 2.234 2.299 0 4.403-0.84 6.019-2.234l-3.282-3.281c-0.766 0.568-1.712 0.9-2.737 0.9zm-4.615-4.616c0-1.024 0.332-1.97 0.9-2.736l-3.282-3.282c-1.394 1.615-2.234 3.72-2.234 6.018 0 2.299 0.84 4.404 2.234 6.019l3.282-3.282c-0.568-0.766-0.9-1.712-0.9-2.737z" fill="#505051"/>
<path d="m415.38 98.462c-5.09 0-9.231 4.1405-9.231 9.2305s4.141 9.231 9.231 9.231c5.089 0 9.23-4.141 9.23-9.231s-4.141-9.2305-9.23-9.2305zm0.692 13.616c0 0.382-0.31 0.692-0.692 0.692-0.383 0-0.693-0.31-0.693-0.692v-5.077c0-0.382 0.31-0.692 0.693-0.692 0.382 0 0.692 0.31 0.692 0.692v5.077zm-0.692-7.154c-0.51 0-0.923-0.413-0.923-0.923s0.413-0.923 0.923-0.923 0.923 0.413 0.923 0.923-0.413 0.923-0.923 0.923z" fill="#292929"/>
<path d="m164.62 172.31c-5.089 0-9.23 4.141-9.23 9.23 0 5.09 4.141 9.231 9.23 9.231 5.09 0 9.231-4.141 9.231-9.231 0-5.089-4.141-9.23-9.231-9.23zm0.693 13.615c0 0.382-0.31 0.692-0.693 0.692-0.382 0-0.692-0.31-0.692-0.692v-5.077c0-0.382 0.31-0.692 0.692-0.692 0.383 0 0.693 0.31 0.693 0.692v5.077zm-0.693-7.154c-0.51 0-0.923-0.413-0.923-0.923s0.413-0.923 0.923-0.923 0.923 0.413 0.923 0.923-0.413 0.923-0.923 0.923z" fill="#505051"/>
<path d="m42.21 135.39c-0.2144 0.038-0.3579 0.205-0.4289 0.341l-2.8253 5.6c-0.3626-0.485-0.9238-0.807-1.5766-0.807-0.8182 0-1.5009 0.506-1.8162 1.211-0.246 0-0.4699 0.063-0.6937 0.126-0.2933-0.304-0.6685-0.53-1.1226-0.53-0.2034 0-0.3815 0.071-0.5549 0.139-0.2066-0.073-0.421-0.139-0.6559-0.139-0.9933 0-1.7784 0.743-1.9424 1.69-0.9476 0.164-1.6901 0.949-1.6901 1.943h-0.8073c-0.2223 0-0.4036 0.179-0.4036 0.403v1.463c0 3.999 4.2947 7.013 7.0759 7.013h4.4145c2.7811 0 7.0758-3.014 7.0758-7.013v-1.463c0-0.224-0.1797-0.403-0.4036-0.403h-0.4667c-0.1214-0.399-0.4099-0.721-0.7694-0.934-0.0614-0.752-0.6338-1.348-1.3748-1.45-0.1151-0.271-0.2822-0.508-0.4919-0.706l2.7749-3.91c0.1403-0.202 0.2254-0.563-0.2271-0.883-0.4509-0.32-0.763-0.056-0.8955 0.151l-2.6108 4.137c-0.123-0.025-0.2476-0.038-0.3784-0.038-0.5345 0-0.9917 0.241-1.3496 0.58-0.082-0.031-0.1687-0.058-0.2523-0.088l3.1533-5.474c0.1214-0.214 0.1765-0.582-0.3028-0.858-0.1797-0.104-0.3263-0.124-0.454-0.101zm-4.8308 5.941c0.5865 0 1.0706 0.412 1.1856 0.959l0.0883 0.429 0.4163-0.127c0.1182-0.033 0.2238-0.05 0.3279-0.05 0.205 0 0.402 0.054 0.5802 0.151l0.2901 0.164 0.2144-0.265c0.2255-0.277 0.5518-0.454 0.9334-0.454 0.5691 0 1.039 0.383 1.173 0.909l0.0756 0.327 0.328-0.025c0.0772-3e-3 0.0883 0 0.0378 0 0.4509 0 0.8072 0.357 0.8072 0.807 0-0.037-0.0078-0.018-0.0126 0.051l-0.0126 0.303 0.2901 0.101c0.1829 0.063 0.3327 0.192 0.4289 0.353h-6.748c0-0.223-0.1813-0.404-0.4036-0.404s-0.4036 0.181-0.4036 0.404h-7.265c0-0.674 0.5376-1.211 1.2108-1.211h0.4036v-0.404c0-0.673 0.5377-1.211 1.2109-1.211 0.1734 0 0.339 0.033 0.4919 0.101l0.1766 0.089 0.1765-0.089c0.1199-0.061 0.2365-0.101 0.3658-0.101 0.287 0 0.5361 0.142 0.6811 0.366l0.1766 0.278 0.3027-0.114c0.205-0.079 0.4257-0.126 0.6559-0.126 0.0678 0 0.1308 5e-3 0.2018 0.013l0.3531 0.037 0.0883-0.34c0.1309-0.528 0.6023-0.921 1.173-0.921zm-4.4397 1.615c-0.2223 0-0.4036 0.181-0.4036 0.403 0 0.223 0.1813 0.404 0.4036 0.404s0.4036-0.181 0.4036-0.404c0-0.222-0.1813-0.403-0.4036-0.403zm1.2108 0.807c-0.2223 0-0.4036 0.181-0.4036 0.403 0 0.223 0.1813 0.404 0.4036 0.404s0.4036-0.181 0.4036-0.404c0-0.222-0.1813-0.403-0.4036-0.403zm6.0542 0c-0.2223 0-0.4036 0.181-0.4036 0.403 0 0.223 0.1813 0.404 0.4036 0.404s0.4036-0.181 0.4036-0.404c0-0.222-0.1813-0.403-0.4036-0.403z" fill="#1B1B1B"/>
<path d="m100.39 135.38c-0.294 0-0.5882 0.111-0.8121 0.334l-8.7316 8.733-0.3864 2.01 2.0101-0.386 8.732-8.732c0.216-0.217 0.336-0.505 0.336-0.812 0-0.306-0.12-0.595-0.336-0.813-0.224-0.223-0.518-0.334-0.812-0.334zm-14.413 0.526c-1.5899 0-2.9013 1.312-2.9013 2.901v12.133c0 1.59 1.3114 2.901 2.9013 2.901h12.132c1.5898 0 2.9013-1.311 2.9013-2.901v-8.704c2e-3 -0.14-0.024-0.278-0.076-0.408s-0.13-0.248-0.228-0.348c-0.098-0.099-0.215-0.178-0.344-0.232s-0.267-0.082-0.407-0.082c-0.1398 0-0.2783 0.028-0.4073 0.082-0.1289 0.054-0.2459 0.133-0.3441 0.232-0.0981 0.1-0.1755 0.218-0.2277 0.348-0.0521 0.13-0.0779 0.268-0.0759 0.408v8.704c0 0.449-0.3418 0.791-0.7913 0.791h-12.132c-0.4495 0-0.7913-0.342-0.7913-0.791v-12.133c0-0.449 0.3418-0.791 0.7913-0.791h8.7037c0.1398 2e-3 0.2786-0.024 0.4084-0.076 0.1297-0.052 0.2478-0.129 0.3473-0.228 0.0996-0.098 0.1787-0.215 0.2326-0.344 0.054-0.129 0.0818-0.267 0.0818-0.407s-0.0278-0.278-0.0818-0.407c-0.0539-0.129-0.133-0.246-0.2326-0.344-0.0995-0.098-0.2176-0.176-0.3473-0.228-0.1298-0.052-0.2686-0.078-0.4084-0.076h-8.7037z" fill="#292929"/>
<path d="m371.16 172.31c-0.294 0-0.588 0.111-0.812 0.335l-8.731 8.732-0.387 2.01 2.01-0.386 8.732-8.732c0.217-0.217 0.337-0.505 0.337-0.812 0-0.306-0.12-0.595-0.337-0.812-0.224-0.224-0.518-0.335-0.812-0.335zm-14.413 0.526c-1.589 0-2.901 1.312-2.901 2.901v12.133c0 1.59 1.312 2.901 2.901 2.901h12.133c1.59 0 2.901-1.311 2.901-2.901v-8.704c2e-3 -0.14-0.024-0.278-0.076-0.408s-0.129-0.248-0.227-0.348c-0.099-0.099-0.216-0.178-0.345-0.232s-0.267-0.082-0.407-0.082-0.278 0.028-0.407 0.082-0.246 0.133-0.344 0.232c-0.098 0.1-0.176 0.218-0.228 0.348s-0.078 0.268-0.076 0.408v8.704c0 0.449-0.342 0.791-0.791 0.791h-12.133c-0.449 0-0.791-0.342-0.791-0.791v-12.133c0-0.449 0.342-0.791 0.791-0.791h8.704c0.14 2e-3 0.279-0.024 0.409-0.076 0.129-0.052 0.247-0.129 0.347-0.227 0.099-0.099 0.179-0.216 0.233-0.345 0.053-0.129 0.081-0.267 0.081-0.407s-0.028-0.278-0.081-0.407c-0.054-0.129-0.134-0.246-0.233-0.344-0.1-0.098-0.218-0.176-0.347-0.228-0.13-0.052-0.269-0.078-0.409-0.076h-8.704z" fill="#505051"/>
<path d="m195.48 135.38c-0.489 0-0.978 0.185-1.348 0.555l-0.729 0.729c-0.142 0.141-0.157 0.365-0.036 0.525l-0.853 0.853c-0.61 0.612-1.192 1.073-1.75 1.436l2.835 2.835c0.363-0.558 0.824-1.138 1.436-1.75l0.853-0.853c0.16 0.121 0.384 0.105 0.525-0.036l0.729-0.729c0.742-0.741 0.742-1.955 0-2.697l-0.313-0.313c-0.372-0.37-0.86-0.557-1.349-0.555zm0 0.796c0.282 2e-3 0.565 0.11 0.783 0.326l0.312 0.314c0.434 0.434 0.434 1.127 0 1.562l-0.446 0.445-1.875-1.875 0.444-0.446c0.218-0.216 0.5-0.326 0.782-0.326zm-7.012 3e-3c-0.221 0-0.401 0.181-0.401 0.402s0.18 0.401 0.401 0.401 0.402-0.18 0.402-0.401-0.181-0.402-0.402-0.402zm2.409 1.205c-0.222 0-0.402 0.18-0.402 0.401s0.18 0.401 0.402 0.401c0.221 0 0.401-0.18 0.401-0.401s-0.18-0.401-0.401-0.401zm-0.827 2.518c-0.486 0.258-0.958 0.456-1.419 0.627l0.979 2.938 2.936 0.983c0.171-0.464 0.369-0.936 0.629-1.423l-3.125-3.125zm-2.178 0.89c-0.073 0.025-0.149 0.051-0.222 0.074-1.374 0.456-2.793 0.927-4.251 2.385l-3.683 3.682c-0.64 0.639-0.64 1.68 0 2.32l4.108 4.107c0.32 0.321 0.74 0.481 1.16 0.481s0.84-0.16 1.16-0.481l3.682-3.682c1.46-1.458 1.929-2.877 2.385-4.251 0.023-0.072 0.047-0.146 0.072-0.218l-3.119-1.044c-0.119-0.039-0.213-0.133-0.252-0.252l-1.04-3.121zm8.223 1.007c-0.221 0-0.402 0.18-0.402 0.401s0.181 0.402 0.402 0.402 0.401-0.181 0.401-0.402-0.18-0.401-0.401-0.401zm1.204 1.606c-0.221 0-0.401 0.18-0.401 0.401s0.18 0.401 0.401 0.401 0.401-0.18 0.401-0.401-0.18-0.401-0.401-0.401zm-2.007 0.802c-0.221 0-0.401 0.181-0.401 0.402s0.18 0.401 0.401 0.401 0.401-0.18 0.401-0.401-0.18-0.402-0.401-0.402zm-7.627 0.402c0.444 0 0.803 0.359 0.803 0.803 0 0.443-0.359 0.802-0.803 0.802-0.443 0-0.803-0.359-0.803-0.802 0-0.444 0.36-0.803 0.803-0.803zm-3.082 0.63 3.255 3.255-2.529 2.529-3.254-3.255 2.528-2.529z" fill="#fff"/>
<path d="m413.69 172.31v2.026c-2.388 0.616-4.154 2.778-4.154 5.358v5.539l-1.846 1.846v0.923h14.77v-0.923l-1.847-1.846v-5.539c0-2.58-1.766-4.742-4.153-5.358v-2.026h-2.77zm-0.461 16.615c0 1.015 0.831 1.846 1.846 1.846s1.846-0.831 1.846-1.846h-3.692z" fill="#292929"/>
<path d="m230.62 135.38c-1.614 0-2.927 1.313-2.927 2.926v13.509c0 0.253 0.142 0.486 0.368 0.601 0.226 0.116 0.497 0.095 0.703-0.053l4.35-3.133c-6e-3 -0.114-0.017-0.226-0.017-0.342 0-0.499 0.07-0.982 0.188-1.445l-4.241 3.054v-12.191c0-0.869 0.707-1.576 1.576-1.576h6.754c0.869 0 1.576 0.707 1.576 1.576v4.728c0.466 0 0.917 0.061 1.351 0.164v-4.892c0-1.613-1.313-2.926-2.927-2.926h-6.754zm8.33 8.555c-2.735 0-4.953 2.218-4.953 4.953 0 2.736 2.218 4.953 4.953 4.953 2.736 0 4.953-2.217 4.953-4.953 0-2.735-2.217-4.953-4.953-4.953zm0 1.801c0.216 0 0.409 0.138 0.48 0.342l0.501 1.459h1.665c0.217 0 0.411 0.139 0.48 0.345s-1e-3 0.434-0.174 0.565l-1.348 1.023 0.456 1.462c0.066 0.21-0.012 0.438-0.191 0.565-0.088 0.062-0.19 0.093-0.293 0.093-0.106 0-0.213-0.034-0.303-0.101l-1.273-0.953-1.272 0.953c-0.176 0.132-0.417 0.135-0.596 8e-3 -0.18-0.127-0.257-0.355-0.191-0.565l0.456-1.461-1.348-1.024c-0.173-0.131-0.244-0.358-0.174-0.564s0.262-0.346 0.48-0.346h1.665l0.501-1.459c0.07-0.204 0.263-0.342 0.479-0.342z" fill="#505051"/>
<path d="m286.58 135.38c-5.322 0-9.652 3.763-9.652 8.389 0 2.599 1.405 5.07 3.77 6.652-0.053 0.435-0.272 1.525-1.173 2.804-0.084 0.119-0.095 0.274-0.028 0.404s0.201 0.211 0.346 0.212h0.025c2.293 0 3.837-1.417 4.329-1.941 0.775 0.171 1.575 0.257 2.383 0.257 5.322 0 9.651-3.763 9.651-8.388 0-4.626-4.329-8.389-9.651-8.389zm-4.63 5.442h9.26c0.232 0 0.421 0.188 0.421 0.421s-0.189 0.421-0.421 0.421h-9.26c-0.233 0-0.421-0.188-0.421-0.421s0.188-0.421 0.421-0.421zm-1.684 3.367c-0.232 0-0.421-0.188-0.421-0.42 0-0.233 0.189-0.421 0.421-0.421h7.156c0.232 0 0.421 0.188 0.421 0.421 0 0.232-0.189 0.42-0.421 0.42h-7.156zm10.944 2.526h-9.26c-0.233 0-0.421-0.188-0.421-0.421s0.188-0.421 0.421-0.421h9.26c0.232 0 0.421 0.188 0.421 0.421s-0.189 0.421-0.421 0.421zm1.684-2.526h-2.947c-0.232 0-0.421-0.188-0.421-0.42 0-0.233 0.189-0.421 0.421-0.421h2.947c0.232 0 0.42 0.188 0.42 0.421 0 0.232-0.188 0.42-0.42 0.42z" fill="#505051"/>
<path d="m341.71 135.38c-0.877-9e-3 -1.77 0.256-2.545 0.839-0.14 0.106-0.134 0.318 0.012 0.416 0.727 0.49 1.302 1.224 1.584 2.108 0.021 0.066 0.069 0.119 0.132 0.149 2.001 0.965 2.035-0.134 3.559-0.2 0.328-0.014 0.65 0.037 0.962 0.139 0.191 0.063 0.375-0.114 0.325-0.309-0.505-1.953-2.233-3.124-4.029-3.142zm-4.761 1.192c-1.463 0-2.712 0.933-3.184 2.235-0.054 0.149 0.052 0.306 0.21 0.313 0.676 0.028 1.083-0.211 1.85-0.242 1.059-0.043 1.549 0.338 2.246 0.478 0.643 0.13 1.313 0.023 1.937-0.19 0.122-0.042 0.188-0.174 0.147-0.296-0.454-1.335-1.72-2.298-3.206-2.298zm7.614 2.733c-0.028 0-0.056 0-0.084 2e-3 -0.927 0.039-1.772 0.961-3.192 0.457-0.157-0.056-0.336 0.05-0.338 0.245-2e-3 0.14 0.112 0.256 0.252 0.257 2.974 0.016 3.794-0.025 4.209 8e-3 0.402 0.033 0.597-0.478 0.323-0.632-0.364-0.203-0.754-0.337-1.17-0.337zm-8.541 0.186c-0.264-3e-3 -0.57 0.03-0.943 0.114-0.447 0.101-0.83 0.158-1.265 0.121-0.134-0.012-0.25 0.094-0.25 0.228 0 0.03 0 0.06 1e-3 0.09 3e-3 0.128 0.112 0.229 0.24 0.224 0.352-0.014 1.397 3e-3 6.295-4e-3 0.126 0 0.229-0.099 0.232-0.224 5e-3 -0.172-0.153-0.28-0.301-0.235-0.681 0.21-1.392 0.293-2.082 0.154-0.718-0.145-1.134-0.462-1.927-0.468zm-2.114 1.388c-0.64 0-1.2 0.432-1.362 1.048-0.569 2.17-0.1 4.445 1.287 6.242 2.896 3.752 8.557 3.754 11.453 1e-3 1.387-1.797 1.857-4.072 1.288-6.243-0.161-0.616-0.722-1.048-1.362-1.048h-11.304zm0.963 3.494c0.143 6e-3 0.267 0.111 0.292 0.257 0.13 0.776 0.456 1.518 0.943 2.146 0.158 0.205 8e-3 0.497-0.243 0.497-0.092 0-0.183-0.042-0.243-0.12-0.549-0.708-0.917-1.545-1.064-2.421-0.028-0.168 0.085-0.326 0.252-0.354 0.021-4e-3 0.042-5e-3 0.063-5e-3zm2.017 3.273c0.059 3e-3 0.119 0.022 0.17 0.06 0.022 0.016 0.044 0.032 0.067 0.048 0.138 0.098 0.171 0.291 0.073 0.429s-0.289 0.172-0.429 0.073c-0.025-0.018-0.051-0.036-0.076-0.054-0.137-0.101-0.166-0.293-0.065-0.43 0.063-0.086 0.162-0.129 0.26-0.126zm1.32 3.842c-0.123 2e-3 -0.236 0.079-0.281 0.197-0.213 0.561-0.528 1.081-0.932 1.541h-1.085c-0.176 0-0.318 0.149-0.307 0.328 0.011 0.163 0.154 0.287 0.318 0.287h7.287c0.164 0 0.307-0.124 0.317-0.287 0.012-0.179-0.13-0.328-0.307-0.328h-1.092c-0.405-0.46-0.719-0.98-0.933-1.541-0.051-0.135-0.192-0.216-0.334-0.192-0.863 0.142-1.749 0.14-2.597 0-0.018-3e-3 -0.036-5e-3 -0.054-5e-3z" fill="#505051"/>
<path d="m389.8 135.38c-1.61 0-2.915 1.305-2.915 2.915v5.83c0 1.61 1.305 2.915 2.915 2.915s2.915-1.305 2.915-2.915v-5.83c0-1.61-1.305-2.915-2.915-2.915zm-5.745 8.745c-0.589 0-1.063 0.522-0.968 1.104 0.476 2.915 2.808 5.201 5.741 5.621v2.019c0 0.537 0.435 0.972 0.972 0.972 0.536 0 0.971-0.435 0.971-0.972v-2.019c2.934-0.42 5.265-2.706 5.741-5.621 0.095-0.582-0.379-1.104-0.968-1.104-0.48 0-0.876 0.353-0.956 0.827-0.394 2.288-2.387 4.031-4.788 4.031s-4.395-1.743-4.789-4.031c-0.08-0.474-0.475-0.827-0.956-0.827z" fill="#292929"/>
<path d="m438.68 135.38c-0.932 0-1.827 0.37-2.486 1.03-0.66 0.659-1.03 1.553-1.03 2.486s0.37 1.827 1.03 2.487c0.659 0.659 1.554 1.03 2.486 1.03 0.933 0 1.827-0.371 2.487-1.03 0.659-0.66 1.03-1.554 1.03-2.487s-0.371-1.827-1.03-2.486c-0.66-0.66-1.554-1.03-2.487-1.03zm0 9.67c-2.761 0-7.912 1.359-7.912 3.956v1.319c0 0.485 0.394 0.879 0.879 0.879h7.521c0.348 0 0.681-0.139 0.927-0.385l3.913-3.913c0.231-0.231 0.168-0.631-0.132-0.761-1.669-0.723-3.755-1.095-5.196-1.095zm8.974 0.879c-0.113 0-0.226 0.043-0.311 0.129l-0.879 0.879 1.758 1.758 0.879-0.879c0.171-0.171 0.171-0.45 0-0.621l-1.137-1.137c-0.086-0.086-0.198-0.129-0.31-0.129zm-1.812 1.63-4.524 4.524v1.758h1.758l4.524-4.524-1.758-1.758z" fill="#1B1B1B"/>
<path d="m42.834 209.23c-3.9517 0-9.3259 1.029-9.3313 1.03h-0.0019c-1.1546 0.236-2.0563 1.156-2.2736 2.317l-0.0038 4e-3 -1.911 10.427 0.0019 2e-3c-0.0534 0.256-0.0835 0.522-0.0835 0.795 0 2.146 1.7402 3.886 3.8866 3.886 1.1528 0 2.1766-0.512 2.8884-1.309l0.0133 7e-3 1.4708-1.613h10.688l1.4708 1.613 0.0133-7e-3c0.7118 0.797 1.7356 1.309 2.8884 1.309 2.1464 0 3.8867-1.74 3.8867-3.886 0-0.273-0.0302-0.539-0.0836-0.795l0.0019-2e-3 -1.911-10.427-0.0038-4e-3c-0.2174-1.161-1.12-2.081-2.2754-2.317h-0.0019c-0.0045-1e-3 -5.3778-1.03-9.3295-1.03zm-6.8016 5.83c0.5363 0 0.9717 0.435 0.9717 0.971v0.972h0.9716c0.5364 0 0.9717 0.435 0.9717 0.972 0 0.536-0.4353 0.971-0.9717 0.971h-0.9716v0.972c0 0.536-0.4354 0.972-0.9717 0.972-0.5364 0-0.9717-0.436-0.9717-0.972v-0.972h-0.9716c-0.5364 0-0.9717-0.435-0.9717-0.971 0-0.537 0.4353-0.972 0.9717-0.972h0.9716v-0.972c0-0.536 0.4353-0.971 0.9717-0.971zm13.603 0c0.5364 0 0.9717 0.435 0.9717 0.971 0 0.537-0.4353 0.972-0.9717 0.972-0.5363 0-0.9716-0.435-0.9716-0.972 0-0.536 0.4353-0.971 0.9716-0.971zm-1.9433 1.943c0.5364 0 0.9717 0.435 0.9717 0.972 0 0.536-0.4353 0.971-0.9717 0.971-0.5363 0-0.9717-0.435-0.9717-0.971 0-0.537 0.4354-0.972 0.9717-0.972zm3.8867 0c0.5363 0 0.9716 0.435 0.9716 0.972 0 0.536-0.4353 0.971-0.9716 0.971-0.5364 0-0.9717-0.435-0.9717-0.971 0-0.537 0.4353-0.972 0.9717-0.972zm-1.9434 1.943c0.5364 0 0.9717 0.436 0.9717 0.972s-0.4353 0.972-0.9717 0.972c-0.5363 0-0.9716-0.436-0.9716-0.972s0.4353-0.972 0.9716-0.972z" fill="#1B1B1B"/>
<path d="m93.842 209.23c-5.088 0-9.2269 4.139-9.2269 9.227v3.971l6e-4 3e-3v1.031c0 1.023 0.3998 1.992 1.1148 2.715l1.0611 1.068 1.5379 0.446h0.023c1.2687 0 2.3068-1.038 2.3068-2.306v-4.537c0-1.269-1.0381-2.307-2.3068-2.307h-0.023l-1.5379 0.454-0.6387 0.641v-1.179c0-4.24 3.4496-7.689 7.6891-7.689s7.6887 3.449 7.6887 7.689v1.179l-0.638-0.641-1.5376-0.454h-0.0231c-1.2686 0-2.3067 1.038-2.3067 2.307v4.537c0 1.268 1.0381 2.306 2.3067 2.306h0.0231l1.5376-0.446 1.061-1.068c0.715-0.723 1.115-1.692 1.115-2.715v-5.005c0-5.088-4.1387-9.227-9.2267-9.227z" fill="#292929"/>
<path d="m142 227.69-0.333-0.276c-0.523-0.433-1.226-0.911-2.037-1.464-3.222-2.199-8.091-5.521-8.091-10.819 0-3.254 2.667-5.902 5.944-5.902 1.753 0 3.393 0.762 4.517 2.069 1.124-1.307 2.767-2.069 4.517-2.069 3.278 0 5.944 2.648 5.944 5.902 0 5.298-4.869 8.62-8.091 10.819-0.813 0.553-1.514 1.031-2.037 1.464l-0.333 0.276z" fill="#fff"/>
<path d="m190 209.23c-5.094 0-9.231 4.137-9.231 9.231 0 5.093 4.137 9.23 9.231 9.23s9.231-4.137 9.231-9.23c0-5.094-4.137-9.231-9.231-9.231zm0 0.802c4.659 0 8.428 3.769 8.428 8.429 0 4.659-3.769 8.428-8.428 8.428s-8.428-3.769-8.428-8.428c0-4.66 3.769-8.429 8.428-8.429zm-0.031 1.204c-1.77 0-3.474 0.64-4.809 1.806l-0.42 0.385c-0.225 0.216-0.354 0.509-0.359 0.826-6e-3 0.354 0.14 0.701 0.409 0.976l8.25 8.418c0.279 0.285 0.639 0.431 0.989 0.431 0.299 0 0.591-0.107 0.818-0.325l0.457-0.445c1.238-1.333 1.92-3.065 1.92-4.879 0-3.966-3.255-7.193-7.255-7.193zm0.834 2.007c0.221 0 0.401 0.18 0.401 0.401 0 0.222-0.18 0.402-0.401 0.402s-0.402-0.18-0.402-0.402c0-0.221 0.181-0.401 0.402-0.401zm1.204 0.803c0.221 0 0.401 0.18 0.401 0.401s-0.18 0.402-0.401 0.402-0.402-0.181-0.402-0.402 0.181-0.401 0.402-0.401zm-1.204 0.803c0.221 0 0.401 0.18 0.401 0.401s-0.18 0.401-0.401 0.401-0.402-0.18-0.402-0.401 0.181-0.401 0.402-0.401zm-6.76 0.727c-5e-3 3e-3 -0.011 6e-3 -0.018 0.011-0.288 0.218-0.446 0.525-0.446 0.867 0 0.511 0.142 0.715 0.302 0.893 0.066 0.074 0.099 0.112 0.099 0.361 0 0.06-0.146 0.179-0.254 0.265-0.23 0.188-0.549 0.447-0.549 0.889 0 0.237 0.072 0.428 0.217 0.571 0.246 0.246 0.587 0.246 0.901 0.243 0.146-2e-3 0.398-2e-3 0.452 0.051 0.012 0.011 0.036 0.068 0.036 0.188 0 0.146-0.047 0.199-0.253 0.366-0.219 0.178-0.55 0.446-0.55 0.989 0 0.709 0.531 0.975 0.848 1.135 0.323 0.161 0.356 0.205 0.356 0.32 0 0.472 0.182 1.238 1.334 1.342-0.081-0.21-0.13-0.438-0.13-0.676 0-0.404 0.133-0.795 0.373-1.118-0.24-0.323-0.373-0.713-0.373-1.118 0-0.413 0.138-0.794 0.364-1.106-0.096-0.061-0.187-0.13-0.268-0.212-0.543-0.542-0.624-1.365-0.261-2l-2.005-2.046c-0.066-0.068-0.119-0.143-0.175-0.215zm2.784 2.878c-0.069 0.282 1e-3 0.594 0.224 0.815 0.104 0.104 0.234 0.17 0.375 0.207 0.092-0.047 0.189-0.084 0.288-0.117l-0.887-0.905zm6.384 0.809c0.221 0 0.401 0.181 0.401 0.402s-0.18 0.401-0.401 0.401-0.402-0.18-0.402-0.401 0.181-0.402 0.402-0.402zm-4.931 0.803c-0.6 0-1.089 0.489-1.089 1.089 0 0.314 0.134 0.602 0.377 0.816 0.088 0.076 0.137 0.186 0.137 0.302s-0.049 0.226-0.137 0.303c-0.243 0.213-0.377 0.501-0.377 0.815 0 0.6 0.489 1.09 1.089 1.09 0.314 0 0.602-0.135 0.815-0.378 0.154-0.174 0.452-0.174 0.606 0 0.213 0.243 0.501 0.378 0.815 0.378 0.6 0 1.089-0.49 1.089-1.09 0-0.023-6e-3 -0.047-7e-3 -0.071l-3.175-3.24c-0.047-6e-3 -0.094-0.014-0.143-0.014zm6.135 0c0.221 0 0.401 0.18 0.401 0.401s-0.18 0.402-0.401 0.402-0.402-0.181-0.402-0.402 0.181-0.401 0.402-0.401zm-1.204 0.401c0.221 0 0.401 0.181 0.401 0.402s-0.18 0.401-0.401 0.401-0.402-0.18-0.402-0.401 0.181-0.402 0.402-0.402zm-0.922 3.561c-0.116 0.322-0.315 0.602-0.575 0.816 0.155 0.025 0.315 0.038 0.493 0.038 0.377 0 0.681-0.085 0.927-0.205-0.246-0.113-0.474-0.272-0.668-0.471l-0.177-0.178z" fill="#505051"/>
<path d="m231.99 209.23c-0.878 0-1.633 0.531-1.965 1.288h13.127c1.658 0 3.006 1.348 3.006 3.005v8.834c0.757-0.332 1.288-1.086 1.288-1.964v-9.017c0-1.183-0.963-2.146-2.147-2.146h-13.309zm-2.147 2.146c-1.184 0-2.147 0.963-2.147 2.147v9.016c0 1.184 0.963 2.147 2.147 2.147h1.711c-0.039 1.081-0.258 1.718-1.074 2.208-0.165 0.099-0.244 0.297-0.193 0.483 0.052 0.186 0.222 0.314 0.415 0.314 1.26 0 3.49-0.398 4.586-3.005h7.864c1.184 0 2.147-0.963 2.147-2.147v-9.016c0-1.184-0.963-2.147-2.147-2.147h-13.309z" fill="#505051"/>
<path d="m231.99 209.23c-0.878 0-1.633 0.531-1.965 1.288h13.127c1.658 0 3.006 1.348 3.006 3.005v8.834c0.757-0.332 1.288-1.086 1.288-1.964v-9.017c0-1.183-0.963-2.146-2.147-2.146h-13.309zm-2.147 2.146c-1.184 0-2.147 0.963-2.147 2.147v9.016c0 1.184 0.963 2.147 2.147 2.147h1.711c-0.039 1.081-0.258 1.718-1.074 2.208-0.165 0.099-0.244 0.297-0.193 0.483 0.052 0.186 0.222 0.314 0.415 0.314 1.26 0 3.49-0.398 4.586-3.005h7.864c1.184 0 2.147-0.963 2.147-2.147v-9.016c0-1.184-0.963-2.147-2.147-2.147h-13.309z" fill="#505051"/>
<path d="m285.6 209.23c-0.7 0-1.339 0.394-1.652 1.02l-0.364 0.729c-0.313 0.624-0.953 1.02-1.651 1.02h-3.936c-1.02 0-1.846 0.826-1.846 1.846v12c0 1.02 0.826 1.846 1.846 1.846h20.308c1.02 0 1.846-0.826 1.846-1.846v-12c0-1.02-0.826-1.846-1.846-1.846h-3.936c-0.7 0-1.339-0.395-1.651-1.02l-0.365-0.729c-0.313-0.625-0.952-1.02-1.651-1.02h-5.102zm-5.757 0.923c-0.509 0-0.923 0.413-0.923 0.923h2.769c0-0.51-0.413-0.923-0.923-0.923h-0.923zm8.308 2.769c3.563 0 6.461 2.899 6.461 6.462s-2.898 6.461-6.461 6.461-6.462-2.898-6.462-6.461 2.899-6.462 6.462-6.462zm8.308 0.923c0.509 0 0.923 0.414 0.923 0.923 0 0.51-0.414 0.923-0.923 0.923-0.51 0-0.924-0.413-0.924-0.923 0-0.509 0.414-0.923 0.924-0.923zm-8.308 0.923c-1.224 0-2.398 0.486-3.264 1.352-0.865 0.866-1.352 2.04-1.352 3.264s0.487 2.398 1.352 3.263c0.866 0.866 2.04 1.352 3.264 1.352s2.398-0.486 3.263-1.352c0.866-0.865 1.352-2.039 1.352-3.263s-0.486-2.398-1.352-3.264c-0.865-0.866-2.039-1.352-3.263-1.352z" fill="#505051"/>
<path d="m331.21 209.23c-1.093 0-1.978 0.885-1.978 1.978v14.505c0 1.093 0.885 1.978 1.978 1.978h19.78c1.093 0 1.978-0.885 1.978-1.978v-14.505c0-1.093-0.885-1.978-1.978-1.978h-19.78zm0 0.659h19.78c0.729 0 1.319 0.59 1.319 1.319v12.588l-5.624-5.057c-0.879-0.79-2.214-0.789-3.091 4e-3l-4.57 4.129-2.188-1.871c-0.866-0.74-2.143-0.738-3.006 5e-3l-3.939 3.394v-13.192c0-0.729 0.59-1.319 1.319-1.319zm3.956 3.297c-1.093 0-1.978 0.885-1.978 1.978 0 1.092 0.885 1.978 1.978 1.978 1.092 0 1.978-0.886 1.978-1.978 0-1.093-0.886-1.978-1.978-1.978z" fill="#505051"/>
<path d="m390.84 209.23c-0.927 0-1.678 0.751-1.678 1.678h-6.713c-0.928 0-1.679 0.751-1.679 1.678v7.553c0 0.927 0.751 1.678 1.679 1.678h18.461c0.927 0 1.678-0.751 1.678-1.678v-7.553c0-0.927-0.751-1.678-1.678-1.678h-6.713c0-0.927-0.751-1.678-1.679-1.678h-1.678zm0.839 9.231c0.464 0 0.839 0.375 0.839 0.839 0 0.463-0.375 0.839-0.839 0.839-0.463 0-0.839-0.376-0.839-0.839 0-0.464 0.376-0.839 0.839-0.839zm-10.909 4.567v2.985c0 0.927 0.751 1.678 1.679 1.678h18.461c0.927 0 1.678-0.751 1.678-1.678v-2.985c-0.496 0.289-1.064 0.468-1.678 0.468h-18.461c-0.615 0-1.183-0.179-1.679-0.468z" fill="#292929"/>
<path d="m447.3 209.23c-1.243 0-2.251 1.008-2.251 2.251 0 1.244 1.008 2.252 2.251 2.252 1.244 0 2.252-1.008 2.252-2.252 0-1.243-1.008-2.251-2.252-2.251zm-4.728 2.701c-0.397 0-0.781 0.153-1.071 0.424l-3.762 3.033v5e-3c-0.498 0.334-0.795 0.894-0.795 1.492 0 0.626 0.327 1.206 0.86 1.533l3.474 2.364-0.711 4.22c-0.014 0.07-0.021 0.141-0.021 0.213 0 0.621 0.505 1.125 1.126 1.125 0.598 0 1.09-0.467 1.124-1.064l0.888-5.078v-1e-3c9e-3 -0.053 0.014-0.108 0.014-0.16 0-0.298-0.148-0.577-0.394-0.744l-2e-3 -4e-3 -2.418-1.785 2.457-2.169 1.873 2.072 6e-3 3e-3c0.168 0.236 0.439 0.375 0.729 0.375h3.378c0.62 0 1.125-0.505 1.125-1.126 0-0.62-0.505-1.125-1.125-1.125h-2.927l-2.519-2.902c-0.292-0.438-0.783-0.701-1.309-0.701zm-6.979 7.655c-2.232 0-4.053 1.821-4.053 4.053s1.821 4.052 4.053 4.052 4.053-1.82 4.053-4.052-1.821-4.053-4.053-4.053zm12.608 0c-2.232 0-4.053 1.821-4.053 4.053s1.821 4.052 4.053 4.052 4.052-1.82 4.052-4.052-1.82-4.053-4.052-4.053zm-12.608 0.901c1.747 0 3.152 1.405 3.152 3.152 0 1.746-1.405 3.152-3.152 3.152s-3.152-1.406-3.152-3.152c0-1.747 1.405-3.152 3.152-3.152zm12.608 0c1.746 0 3.152 1.405 3.152 3.152 0 1.746-1.406 3.152-3.152 3.152-1.747 0-3.152-1.406-3.152-3.152 0-1.747 1.405-3.152 3.152-3.152z" fill="#1B1B1B"/>
<path d="m69.231 246.15c-0.2011 0-0.3942 0.079-0.5379 0.219l-8.3909 6.863c-0.0097 7e-3 -0.0192 0.015-0.0286 0.023l-0.0285 0.024v1e-3c-0.0772 0.072-0.1387 0.159-0.1808 0.256-0.0422 0.096-0.064 0.201-0.0641 0.306 0 0.204 0.081 0.4 0.2253 0.544s0.3399 0.225 0.5439 0.225h0.7693v8.462c0 0.85 0.6884 1.538 1.5384 1.538h12.308c0.85 0 1.5385-0.688 1.5385-1.538v-8.462h0.7692c0.204 0 0.3997-0.081 0.5439-0.225 0.1443-0.144 0.2253-0.34 0.2253-0.544 1e-4 -0.106-0.0216-0.21-0.0637-0.307-0.0422-0.097-0.1038-0.184-0.1812-0.256l-0.012-9e-3c-0.0168-0.016-0.0344-0.03-0.0526-0.044l-2.7674-2.264v-3.274c0-0.424-0.3446-0.769-0.7692-0.769h-0.7692c-0.4247 0-0.7693 0.345-0.7693 0.769v1.387l-3.3248-2.719c-0.1417-0.132-0.3279-0.206-0.5213-0.206zm-2.3077 10.769h4.6154v6.154h-4.6154v-6.154z" fill="#292929"/>
<path d="m313.85 320c-0.201 0-0.394 0.079-0.538 0.219l-8.391 6.863c-9e-3 8e-3 -0.019 0.015-0.028 0.023l-0.029 0.024v1e-3c-0.077 0.072-0.138 0.159-0.181 0.256-0.042 0.097-0.064 0.201-0.064 0.306 0 0.204 0.081 0.4 0.226 0.544 0.144 0.144 0.34 0.226 0.544 0.226h0.769v8.461c0 0.85 0.688 1.539 1.538 1.539h12.308c0.85 0 1.538-0.689 1.538-1.539v-8.461h0.77c0.204 0 0.399-0.082 0.544-0.226 0.144-0.144 0.225-0.34 0.225-0.544 0-0.105-0.022-0.21-0.064-0.307s-0.104-0.184-0.181-0.256l-0.012-9e-3c-0.017-0.015-0.034-0.03-0.053-0.044l-2.767-2.264v-3.274c0-0.424-0.345-0.769-0.769-0.769h-0.769c-0.425 0-0.77 0.345-0.77 0.769v1.387l-3.325-2.719c-0.141-0.132-0.327-0.205-0.521-0.206zm-2.308 10.769h4.616v6.154h-4.616v-6.154z" fill="#505051"/>
<path d="m118.46 246.15c-1.32 0-2.408 1.058-2.408 2.364 0 0.472 0.134 0.926 0.262 1.309 0.129 0.383 0.254 0.737 0.26 0.785 0 7e-3 0.099 0.877-0.144 1.626v3e-3c-0.042 0.118-0.45 1.27-0.734 2.059-0.642-0.867-1.475-1.991-1.514-2.045-0.406-0.587-0.557-1.376-0.557-1.376-6e-3 -0.039 4e-3 -0.378 8e-3 -0.745 7e-3 -0.368-1e-3 -0.801-0.131-1.218-0.267-0.865-1.023-1.452-1.871-1.546-0.282-0.029-0.574-6e-3 -0.862 0.082-1.149 0.348-1.797 1.579-1.442 2.731 0.13 0.418 0.371 0.779 0.586 1.08 0.213 0.301 0.408 0.575 0.433 0.637l3e-3 4e-3 3e-3 7e-3s0.318 0.739 0.314 1.45l1e-3 -0.01c-5e-3 0.135-0.059 2.121-0.086 2.604l-2e-3 2e-3c-0.073 1.527 0.24 3.043 0.861 4.426 0.594 1.332 0.952 2.531 1.019 2.746l0.013 0.038c0.141 0.329 0.493 0.556 0.978 0.613 0.42 0.047 0.961-0.035 1.649-0.287 0.892 0.726 2.005 1.122 3.194 1.122 1.254 0 2.422-0.446 3.347-1.19 0.779 0.311 1.373 0.407 1.831 0.355 0.484-0.057 0.837-0.284 0.978-0.613l0.013-0.038c0.067-0.215 0.424-1.414 1.02-2.746v-2e-3c0.619-1.381 0.933-2.897 0.859-4.424v-2e-3c-0.028-0.483-0.083-2.469-0.088-2.604l2e-3 0.01c-5e-3 -0.711 0.314-1.45 0.314-1.45l3e-3 -7e-3 3e-3 -4e-3c0.025-0.062 0.219-0.336 0.433-0.637s0.456-0.662 0.584-1.08c0.356-1.152-0.291-2.383-1.442-2.731-0.287-0.088-0.579-0.113-0.861-0.082-0.846 0.093-1.603 0.681-1.87 1.545-0.13 0.417-0.138 0.851-0.132 1.219 7e-3 0.367 0.016 0.71 8e-3 0.748 0 3e-3 -0.152 0.787-0.556 1.373-0.041 0.057-0.885 1.195-1.529 2.064-0.284-0.792-0.685-1.927-0.724-2.04-0.245-0.753-0.144-1.632-0.144-1.632v-0.011c7e-3 -0.08 0.127-0.428 0.257-0.811 0.131-0.382 0.269-0.834 0.269-1.307 0-1.306-1.088-2.364-2.408-2.364zm0 0.803c0.897 0 1.606 0.699 1.606 1.561 0 0.309-0.104 0.691-0.226 1.049-0.121 0.356-0.263 0.654-0.296 0.987 0 5e-3 -0.018 0.181-0.024 0.416h-2.124c-5e-3 -0.267-0.027-0.463-0.027-0.463v-1e-3c-0.041-0.306-0.175-0.582-0.295-0.935-0.117-0.352-0.219-0.741-0.219-1.053 0-0.862 0.709-1.561 1.605-1.561zm-7.183 1.208c0.643-0.059 1.259 0.339 1.458 0.986 0.083 0.27 0.102 0.632 0.096 0.971-5e-3 0.337-0.046 0.61 3e-3 0.895v3e-3s0.036 0.176 0.103 0.412l-1.715 0.521c-0.069-0.204-0.13-0.354-0.133-0.361l-2e-3 -1e-3c-0.12-0.289-0.323-0.515-0.522-0.794-0.199-0.28-0.387-0.584-0.47-0.851-0.229-0.74 0.175-1.505 0.908-1.726 0.091-0.028 0.183-0.047 0.274-0.055zm14.367 0c0.091 8e-3 0.183 0.027 0.274 0.055 0.732 0.221 1.137 0.986 0.908 1.726-0.083 0.267-0.272 0.571-0.471 0.851-0.199 0.279-0.401 0.505-0.522 0.794v1e-3c-4e-3 7e-3 -0.066 0.157-0.135 0.361l-1.715-0.521c0.068-0.236 0.104-0.412 0.104-0.412v-5e-3c0.048-0.283 8e-3 -0.556 3e-3 -0.893-6e-3 -0.339 0.013-0.703 0.096-0.971 0.2-0.647 0.816-1.045 1.458-0.986zm-8.289 3.608h2.201c0.031 0.239 0.082 0.497 0.165 0.752l1e-3 6e-3 3e-3 5e-3s0.013 0.038 0.015 0.039h-2.578c2e-3 -4e-3 0.027-0.075 0.027-0.075l3e-3 -6e-3 2e-3 -7e-3c0.078-0.241 0.128-0.484 0.161-0.714zm-4.134 0.413c0.083 0.174 0.182 0.355 0.301 0.527l3e-3 5e-3 5e-3 3e-3c4e-3 8e-3 0.114 0.157 0.131 0.179l-2.199 0.666c2e-3 -0.025 6e-3 -0.183 6e-3 -0.188v-0.013c2e-3 -0.221-0.019-0.434-0.05-0.633l1.803-0.546zm10.479 0 1.803 0.546c-0.032 0.199-0.052 0.412-0.051 0.633v0.013c0 5e-3 5e-3 0.163 7e-3 0.188l-2.2-0.665c0.017-0.023 0.129-0.172 0.133-0.18l3e-3 -3e-3 4e-3 -5e-3c0.119-0.174 0.218-0.353 0.301-0.527zm-6.823 1.192h3.146c0.145 0.408 0.235 0.662 0.402 1.129-0.565-0.21-1.168-0.326-1.797-0.326-0.785 0-1.533 0.178-2.212 0.492 0.176-0.488 0.293-0.815 0.461-1.295zm-2.708 0.207c0.457 0.619 0.861 1.166 1.248 1.685-1.263 0.953-2.113 2.44-2.171 4.114-0.045 1.298 0.384 2.518 1.207 3.477-0.411 0.116-0.718 0.143-0.914 0.121-0.285-0.033-0.332-0.14-0.327-0.129-0.065-0.208-0.43-1.43-1.04-2.798v-2e-3c-0.572-1.273-0.857-2.663-0.792-4.054v-1e-3c0.019-0.33 0.035-0.939 0.054-1.585l2.735-0.828zm8.584 0 2.732 0.828c0.021 0.647 0.036 1.259 0.055 1.586 0.066 1.391-0.219 2.781-0.792 4.054v2e-3c-0.609 1.368-0.975 2.59-1.039 2.798 5e-3 -0.011-0.042 0.096-0.328 0.129-0.224 0.025-0.586-8e-3 -1.094-0.173 0.82-0.914 1.342-2.099 1.388-3.397 0.048-1.4-0.449-2.714-1.404-3.701-0.207-0.215-0.431-0.403-0.667-0.576 0.401-0.537 0.729-0.979 1.149-1.55zm-4.694 2.206c0.444 0 0.803 0.357 0.803 0.801 0 0.442-0.359 0.801-0.803 0.801-0.442 0-0.801-0.358-0.801-0.801 0-0.442 0.359-0.801 0.801-0.801zm2.406 0.801c0.443 0 0.802 0.359 0.802 0.801 0 0.444-0.359 0.803-0.802 0.803s-0.802-0.359-0.802-0.803c0-0.442 0.359-0.801 0.802-0.801zm-2.005 1.604c0.444 0 0.803 0.359 0.803 0.801 0 0.443-0.361 0.802-0.803 0.802s-0.802-0.359-0.802-0.802c0-0.442 0.359-0.801 0.802-0.801z" fill="#505051"/>
<path d="m69.23 320c-1.32 0-2.408 1.058-2.408 2.364 0 0.472 0.1332 0.927 0.2618 1.309 0.1286 0.383 0.254 0.737 0.2602 0.786 0 6e-3 0.0988 0.876-0.1442 1.625v3e-3c-0.0423 0.118-0.4499 1.27-0.7337 2.059-0.6427-0.867-1.4752-1.991-1.5144-2.044-0.406-0.588-0.5565-1.377-0.5565-1.377-0.0063-0.039 0.0031-0.378 0.0078-0.745 0.0063-0.368-0.0016-0.801-0.1317-1.218-0.2665-0.865-1.0222-1.451-1.8703-1.545-0.2822-0.03-0.5738-7e-3 -0.8622 0.081-1.1492 0.348-1.7967 1.579-1.4424 2.731 0.1302 0.419 0.3716 0.779 0.5864 1.08 0.2132 0.301 0.4076 0.576 0.4327 0.637l0.0031 4e-3 0.0031 7e-3s0.3183 0.74 0.3136 1.45l0.0016-0.01c-0.0047 0.135-0.0596 2.122-0.0863 2.604l-0.0015 2e-3c-0.0737 1.527 0.2398 3.043 0.8606 4.426 0.5942 1.332 0.9517 2.532 1.0191 2.746l0.0125 0.038c0.1411 0.329 0.4938 0.557 0.9783 0.613 0.4201 0.047 0.961-0.035 1.6492-0.287 0.8921 0.726 2.0051 1.123 3.1935 1.123 1.2542 0 2.4221-0.447 3.3471-1.19 0.7791 0.31 1.3733 0.406 1.8311 0.354 0.4844-0.056 0.8371-0.284 0.9782-0.613l0.0126-0.038c0.0674-0.214 0.4248-1.414 1.0206-2.746v-2e-3c0.6192-1.381 0.9328-2.897 0.8591-4.424v-2e-3c-0.0282-0.482-0.0831-2.469-0.0878-2.604l0.0015 0.01c-0.0047-0.71 0.3136-1.45 0.3136-1.45l0.0031-7e-3 0.0032-4e-3c0.025-0.061 0.2194-0.336 0.4327-0.637 0.2147-0.301 0.4562-0.661 0.5847-1.08 0.3559-1.152-0.2916-2.383-1.4423-2.731-0.2869-0.088-0.5785-0.113-0.8607-0.081-0.8465 0.092-1.6038 0.68-1.8703 1.544-0.1301 0.417-0.1379 0.851-0.1317 1.219 0.0063 0.367 0.0157 0.711 0.0079 0.748 0 3e-3 -0.1521 0.787-0.5566 1.374-0.0407 0.056-0.8842 1.194-1.5285 2.063-0.2837-0.792-0.6851-1.927-0.7243-2.04-0.2445-0.752-0.1442-1.632-0.1442-1.632v-0.011c0.0078-0.08 0.127-0.428 0.2571-0.81 0.1317-0.383 0.2696-0.834 0.2696-1.308 0-1.306-1.088-2.364-2.408-2.364zm0 0.803c0.8968 0 1.6054 0.699 1.6054 1.561 0 0.309-0.1035 0.691-0.2258 1.049-0.1207 0.356-0.2634 0.654-0.2963 0.988 0 4e-3 -0.0172 0.18-0.0235 0.415h-2.1243c-0.0047-0.266-0.0266-0.462-0.0266-0.462v-2e-3c-0.0408-0.306-0.1756-0.582-0.2948-0.934-0.1175-0.353-0.2194-0.742-0.2194-1.054 0-0.862 0.7086-1.561 1.6053-1.561zm-7.1833 1.208c0.6428-0.059 1.2589 0.339 1.458 0.986 0.0831 0.27 0.1019 0.632 0.0956 0.971-0.0047 0.337-0.0454 0.61 0.0032 0.895v3e-3s0.036 0.176 0.1034 0.413l-1.7151 0.52c-0.069-0.204-0.1301-0.354-0.1332-0.361l-0.0016-1e-3c-0.1207-0.289-0.3229-0.514-0.522-0.793-0.1991-0.281-0.3873-0.585-0.4704-0.852-0.2289-0.74 0.1756-1.505 0.9077-1.726 0.091-0.028 0.1835-0.047 0.2744-0.055zm14.367 0c0.091 8e-3 0.1835 0.027 0.2744 0.055 0.7321 0.221 1.1366 0.986 0.9077 1.726-0.0831 0.267-0.2712 0.571-0.4703 0.852-0.1991 0.279-0.4014 0.504-0.5221 0.793v1e-3c-0.0047 7e-3 -0.0658 0.157-0.1348 0.361l-1.7151-0.52c0.0674-0.237 0.1035-0.413 0.1035-0.413v-4e-3c0.0486-0.284 0.0078-0.557 0.0031-0.894-0.0062-0.339 0.0126-0.702 0.0957-0.971 0.2006-0.647 0.8167-1.045 1.4579-0.986zm-8.2885 3.608h2.2011c0.0313 0.24 0.0815 0.497 0.1646 0.752l0.0015 7e-3 0.0032 4e-3s0.0125 0.038 0.0141 0.039h-2.5774c0.0016-4e-3 0.0267-0.075 0.0267-0.075l0.0031-6e-3 0.0016-6e-3c0.0784-0.242 0.1286-0.485 0.1615-0.715zm-4.1341 0.414c0.0831 0.174 0.1818 0.354 0.301 0.526l0.0031 5e-3 0.0047 3e-3c0.0047 8e-3 0.1145 0.157 0.1317 0.179l-2.1995 0.666c0.0016-0.025 0.0063-0.183 0.0063-0.188v-0.012c0.0015-0.222-0.0189-0.435-0.0502-0.634l1.8029-0.545zm10.479 0 1.8028 0.545c-0.0313 0.199-0.0517 0.412-0.0501 0.634v0.012c0 5e-3 0.0047 0.163 0.0062 0.188l-2.1995-0.665c0.0173-0.023 0.1286-0.172 0.1333-0.18l0.0031-3e-3 0.0032-5e-3c0.1191-0.174 0.2179-0.352 0.301-0.526zm-6.8228 1.191h3.1464c0.1443 0.408 0.2352 0.662 0.4014 1.129-0.5644-0.21-1.168-0.326-1.7966-0.326-0.7855 0-1.5333 0.178-2.2121 0.492 0.1756-0.488 0.2932-0.815 0.4609-1.295zm-2.7074 0.207c0.4562 0.619 0.8606 1.166 1.2479 1.685-1.2636 0.954-2.1133 2.44-2.1713 4.114-0.0455 1.298 0.3841 2.518 1.2071 3.477-0.4107 0.116-0.718 0.143-0.914 0.121-0.2853-0.033-0.3323-0.14-0.3276-0.129-0.0643-0.208-0.4296-1.429-1.0394-2.798v-2e-3c-0.5722-1.273-0.8576-2.663-0.7917-4.054v-1e-3c0.0188-0.329 0.0345-0.939 0.0533-1.585l2.7357-0.828zm8.5833 0 2.7325 0.828c0.0204 0.647 0.0361 1.259 0.0549 1.586 0.0658 1.391-0.2195 2.781-0.7917 4.054v2e-3c-0.6099 1.369-0.9752 2.59-1.0394 2.798 0.0047-0.011-0.0424 0.096-0.3277 0.129-0.2242 0.025-0.5863-8e-3 -1.0943-0.172 0.82-0.914 1.342-2.1 1.3875-3.398 0.0486-1.4-0.4484-2.713-1.4031-3.701-0.207-0.215-0.4312-0.403-0.6679-0.575 0.4013-0.538 0.729-0.98 1.1492-1.551zm-4.6938 2.206c0.4436 0 0.8027 0.357 0.8027 0.801 0 0.442-0.3591 0.801-0.8027 0.801-0.4421 0-0.8011-0.357-0.8011-0.801 0-0.442 0.359-0.801 0.8011-0.801zm2.4064 0.801c0.4421 0 0.8011 0.359 0.8011 0.801 0 0.444-0.359 0.803-0.8011 0.803-0.4436 0-0.8026-0.359-0.8026-0.803 0-0.442 0.359-0.801 0.8026-0.801zm-2.0051 1.604c0.4437 0 0.8027 0.359 0.8027 0.801 0 0.443-0.3606 0.802-0.8027 0.802s-0.8027-0.359-0.8027-0.802c0-0.442 0.3591-0.801 0.8027-0.801z" fill="#292929"/>
<path d="m163.83 246.15c-0.2 3e-3 -0.391 0.084-0.532 0.225l-3.621 3.621h-6e-3c-0.787 0-1.447 0.595-1.529 1.378l-1.214 11.538c-0.096 0.908 0.616 1.699 1.529 1.699h15.385c0.913 0 1.624-0.791 1.529-1.699l-1.214-11.538c-0.082-0.783-0.742-1.378-1.529-1.378h-0.505l-2.852-2.851c-0.072-0.073-0.159-0.131-0.255-0.17-0.095-0.038-0.197-0.057-0.301-0.056-0.183 3e-3 -0.359 0.071-0.497 0.192l-1.643 1.453-2.189-2.189c-0.073-0.073-0.16-0.13-0.255-0.169-0.096-0.039-0.198-0.058-0.301-0.056zm0.012 1.857 1.989 1.989h-3.978l1.989-1.989zm4.852 0.738 1.252 1.251h-1.94l-0.341-0.341 1.029-0.91zm-6.006 3.559c0.637 0 1.154 0.517 1.154 1.154v1.923c0 1.272 1.035 2.307 2.307 2.307 1.273 0 2.308-1.035 2.308-2.307v-1.923c0-0.637 0.517-1.154 1.154-1.154s1.154 0.517 1.154 1.154c0 0.501-0.323 0.924-0.769 1.083v0.84c0 2.12-1.726 3.846-3.847 3.846-2.12 0-3.846-1.726-3.846-3.846v-0.84c-0.447-0.159-0.769-0.582-0.769-1.083 0-0.637 0.517-1.154 1.154-1.154z" fill="#505051"/>
<path d="m260.76 320c-0.2 3e-3 -0.391 0.084-0.532 0.225l-3.621 3.621h-6e-3c-0.787 0-1.447 0.595-1.529 1.378l-1.214 11.538c-0.096 0.908 0.616 1.7 1.529 1.7h15.385c0.913 0 1.625-0.792 1.529-1.7l-1.214-11.538c-0.082-0.783-0.742-1.378-1.529-1.378h-0.505l-2.852-2.851c-0.072-0.073-0.159-0.131-0.255-0.169-0.095-0.039-0.197-0.058-0.3-0.057-0.184 3e-3 -0.36 0.071-0.498 0.193l-1.643 1.452-2.189-2.189c-0.073-0.072-0.16-0.13-0.255-0.169-0.096-0.038-0.198-0.057-0.301-0.056zm0.012 1.857 1.989 1.989h-3.978l1.989-1.989zm4.853 0.738 1.251 1.251h-1.94l-0.341-0.341 1.03-0.91zm-6.007 3.559c0.637 0 1.154 0.517 1.154 1.154v1.923c0 1.272 1.035 2.307 2.307 2.307 1.273 0 2.308-1.035 2.308-2.307v-1.923c0-0.637 0.517-1.154 1.154-1.154s1.154 0.517 1.154 1.154c0 0.501-0.322 0.925-0.769 1.083v0.84c0 2.121-1.726 3.846-3.847 3.846-2.12 0-3.846-1.725-3.846-3.846v-0.84c-0.447-0.158-0.769-0.582-0.769-1.083 0-0.637 0.517-1.154 1.154-1.154z" fill="#505051"/>
<path d="m210.09 246.15c-0.259 8e-3 -0.505 0.116-0.686 0.302l-2.534 2.534-0.541-0.541c-0.092-0.095-0.202-0.172-0.324-0.224-0.121-0.053-0.252-0.081-0.385-0.082-0.132-2e-3 -0.264 0.024-0.387 0.074-0.122 0.05-0.234 0.124-0.328 0.218-0.093 0.093-0.168 0.205-0.218 0.328-0.05 0.122-0.075 0.254-0.074 0.387 2e-3 0.132 0.03 0.263 0.082 0.385 0.053 0.122 0.129 0.232 0.225 0.323l1.246 1.246c0.186 0.187 0.44 0.292 0.704 0.292s0.518-0.105 0.705-0.292l3.239-3.239c0.144-0.14 0.242-0.32 0.282-0.517s0.019-0.401-0.059-0.586-0.211-0.342-0.38-0.45c-0.169-0.109-0.367-0.164-0.567-0.158zm3.507 1.505c-0.132-2e-3 -0.263 0.022-0.386 0.072-0.122 0.049-0.234 0.122-0.328 0.215-0.094 0.092-0.168 0.203-0.219 0.325s-0.078 0.252-0.078 0.384c0 0.133 0.027 0.263 0.078 0.385s0.125 0.232 0.219 0.325 0.206 0.166 0.328 0.215c0.123 0.05 0.254 0.074 0.386 0.072h9.966c0.132 2e-3 0.263-0.022 0.386-0.072 0.122-0.049 0.234-0.122 0.328-0.215s0.169-0.203 0.22-0.325 0.077-0.252 0.077-0.385c0-0.132-0.026-0.262-0.077-0.384s-0.126-0.233-0.22-0.325c-0.094-0.093-0.206-0.166-0.328-0.215-0.123-0.05-0.254-0.074-0.386-0.072h-9.966zm-3.507 5.222c-0.259 8e-3 -0.505 0.116-0.686 0.302l-2.534 2.534-0.541-0.541c-0.092-0.096-0.202-0.172-0.324-0.224-0.121-0.053-0.252-0.081-0.385-0.082-0.132-2e-3 -0.264 0.024-0.387 0.074-0.122 0.05-0.234 0.124-0.328 0.218-0.093 0.093-0.168 0.205-0.218 0.328-0.05 0.122-0.075 0.254-0.074 0.387 2e-3 0.132 0.03 0.263 0.082 0.385 0.053 0.122 0.129 0.232 0.225 0.323l1.246 1.246c0.186 0.187 0.44 0.292 0.704 0.292s0.518-0.105 0.705-0.292l3.239-3.239c0.144-0.14 0.242-0.32 0.282-0.517s0.019-0.401-0.059-0.586-0.211-0.342-0.38-0.45c-0.169-0.109-0.367-0.164-0.567-0.158zm3.507 1.754c-0.132-2e-3 -0.263 0.023-0.386 0.072-0.122 0.049-0.234 0.122-0.328 0.215s-0.168 0.203-0.219 0.325-0.078 0.253-0.078 0.385 0.027 0.262 0.078 0.384 0.125 0.233 0.219 0.325c0.094 0.093 0.206 0.166 0.328 0.215 0.123 0.05 0.254 0.074 0.386 0.072h9.966c0.132 2e-3 0.263-0.022 0.386-0.072 0.122-0.049 0.234-0.122 0.328-0.215 0.094-0.092 0.169-0.203 0.22-0.325s0.077-0.252 0.077-0.384-0.026-0.263-0.077-0.385-0.126-0.232-0.22-0.325-0.206-0.166-0.328-0.215c-0.123-0.049-0.254-0.074-0.386-0.072h-9.966zm-4.493 4.968c-0.264 7e-3 -0.514 0.117-0.696 0.307l-0.79 0.79-0.791-0.79c-0.093-0.096-0.204-0.172-0.327-0.223-0.123-0.052-0.255-0.079-0.388-0.079-0.198 0-0.392 0.06-0.556 0.171-0.164 0.11-0.292 0.268-0.366 0.451-0.075 0.184-0.093 0.386-0.052 0.58 0.04 0.194 0.138 0.371 0.28 0.509l0.79 0.79-0.79 0.791c-0.096 0.092-0.172 0.202-0.225 0.323-0.052 0.122-0.08 0.253-0.081 0.386-2e-3 0.132 0.023 0.264 0.074 0.386 0.05 0.123 0.124 0.235 0.218 0.328 0.093 0.094 0.205 0.168 0.328 0.218 0.122 0.051 0.254 0.076 0.386 0.074 0.133-1e-3 0.264-0.029 0.386-0.081 0.121-0.053 0.231-0.129 0.323-0.225l0.791-0.79 0.79 0.79c0.092 0.096 0.202 0.172 0.323 0.225 0.122 0.052 0.253 0.08 0.386 0.081 0.132 2e-3 0.264-0.023 0.387-0.074 0.122-0.05 0.234-0.124 0.328-0.218 0.093-0.093 0.167-0.205 0.218-0.328 0.05-0.122 0.075-0.254 0.073-0.386-1e-3 -0.133-0.029-0.264-0.081-0.386-0.053-0.121-0.129-0.231-0.225-0.323l-0.79-0.791 0.79-0.79c0.145-0.139 0.245-0.319 0.286-0.515 0.041-0.197 0.022-0.401-0.055-0.587-0.078-0.185-0.209-0.343-0.377-0.453-0.169-0.109-0.366-0.165-0.567-0.161zm4.493 2.008c-0.132-2e-3 -0.263 0.023-0.386 0.072-0.122 0.049-0.234 0.122-0.328 0.215s-0.168 0.203-0.219 0.325-0.078 0.253-0.078 0.385 0.027 0.263 0.078 0.384c0.051 0.122 0.125 0.233 0.219 0.325 0.094 0.093 0.206 0.166 0.328 0.216 0.123 0.049 0.254 0.073 0.386 0.071h9.966c0.132 2e-3 0.263-0.022 0.386-0.071 0.122-0.05 0.234-0.123 0.328-0.216 0.094-0.092 0.169-0.203 0.22-0.325 0.051-0.121 0.077-0.252 0.077-0.384s-0.026-0.263-0.077-0.385-0.126-0.232-0.22-0.325-0.206-0.166-0.328-0.215c-0.123-0.049-0.254-0.074-0.386-0.072h-9.966z" fill="#fff"/>
<path d="m263.08 246.15c-2.199 0-4.218 0.776-5.805 2.064l6.764 6.368v-3.774h2.578c0.737 0 1.395 0.182 1.976 0.545 0.581 0.364 1.035 0.88 1.361 1.55 0.326 0.671 0.489 1.431 0.489 2.283v0.422c0 0.852-0.16 1.612-0.48 2.275-0.256 0.533-0.602 0.965-1.027 1.305l1.648 1.551c1.082-1.513 1.727-3.36 1.727-5.358 0-5.09-4.141-9.231-9.231-9.231zm-7.121 3.362c-1.318 1.596-2.11 3.642-2.11 5.869 0 5.089 4.141 9.23 9.231 9.23 2.427 0 4.632-0.949 6.281-2.486l-2.309-2.172c-0.138 0.014-0.275 0.028-0.417 0.029h-2.596v-2.865l-2.636-2.483 1.677 5.344h-1.864l-0.503-1.886h-2.647l-0.503 1.886h-1.864l2.596-8.268-2.336-2.198zm9.807 2.827v3.867l2.014 1.893c0.136-0.101 0.261-0.215 0.368-0.36 0.356-0.484 0.539-1.174 0.546-2.074v-0.486c0-0.933-0.175-1.639-0.528-2.119-0.354-0.48-0.87-0.721-1.549-0.721h-0.851zm-6.377 0.79-0.914 3.431h1.829l-0.915-3.431z" fill="#505051"/>
<path d="m308.74 246.15c-0.203 0-0.369 0.166-0.369 0.369v12.185h9.969c0.611 0 1.108 0.497 1.108 1.107 0 0.603-0.486 1.095-1.084 1.108-0.119 0.066-0.393 0.473-0.393 1.108 0 0.699 0.463 1.745 1.2 1.823h1.281c0.738-0.61 1.212-1.532 1.212-2.562v-14.769c0-0.203-0.165-0.369-0.37-0.369h-12.554zm-0.738 13.292c-1.018 0-1.846 1.16-1.846 2.585s0.828 2.584 1.846 2.584h10.338c0.205 0 0.469-0.033 0.658-0.069-1.142 0-1.765-1.532-1.765-2.515 0-0.984 0.518-1.846 1.107-1.846 0.205 0 0.37-0.165 0.37-0.37 0-0.204-0.165-0.369-0.37-0.369h-10.338z" fill="#505051"/>
<path d="m209.51 320c-0.204 0-0.37 0.166-0.37 0.369v12.185h9.97c0.61 0 1.107 0.497 1.107 1.108 0 0.602-0.486 1.094-1.084 1.107-0.118 0.067-0.393 0.473-0.393 1.108 0 0.699 0.463 1.745 1.2 1.823h1.281c0.739-0.61 1.212-1.532 1.212-2.562v-14.769c0-0.203-0.165-0.369-0.369-0.369h-12.554zm-0.739 13.292c-1.018 0-1.846 1.16-1.846 2.585s0.828 2.585 1.846 2.585h10.339c0.205 0 0.468-0.034 0.657-0.07-1.142 0-1.765-1.531-1.765-2.515s0.518-1.846 1.108-1.846c0.205 0 0.369-0.165 0.369-0.369 0-0.205-0.164-0.37-0.369-0.37h-10.339z" fill="#505051"/>
<path d="m371.61 249.37-3.281 3.282c0.567 0.766 0.9 1.712 0.9 2.737 0 1.024-0.333 1.97-0.9 2.737l3.281 3.281c1.394-1.615 2.234-3.72 2.234-6.018 0-2.299-0.84-4.403-2.234-6.019zm-6.997 1.403c1.025 0 1.971 0.333 2.737 0.9l3.282-3.281c-1.616-1.394-3.72-2.234-6.019-2.234-2.298 0-4.403 0.84-6.018 2.234l3.281 3.281c0.767-0.567 1.713-0.9 2.737-0.9zm0 9.231c-1.024 0-1.97-0.332-2.737-0.9l-3.281 3.282c1.615 1.393 3.72 2.233 6.018 2.233 2.299 0 4.403-0.84 6.019-2.233l-3.282-3.282c-0.766 0.568-1.712 0.9-2.737 0.9zm-4.615-4.615c0-1.025 0.332-1.971 0.9-2.737l-3.282-3.282c-1.393 1.616-2.233 3.72-2.233 6.019 0 2.298 0.84 4.403 2.233 6.018l3.282-3.281c-0.568-0.767-0.9-1.713-0.9-2.737z" fill="#505051"/>
<path d="m125.46 323.21-3.281 3.282c0.568 0.766 0.9 1.712 0.9 2.737 0 1.024-0.332 1.971-0.9 2.737l3.281 3.281c1.394-1.615 2.234-3.72 2.234-6.018 0-2.299-0.84-4.403-2.234-6.019zm-6.996 1.403c1.024 0 1.97 0.333 2.736 0.9l3.282-3.281c-1.615-1.394-3.72-2.234-6.018-2.234-2.299 0-4.404 0.84-6.019 2.234l3.282 3.281c0.766-0.567 1.712-0.9 2.737-0.9zm0 9.231c-1.025 0-1.971-0.332-2.737-0.9l-3.282 3.282c1.615 1.394 3.72 2.234 6.019 2.234 2.298 0 4.403-0.84 6.018-2.234l-3.282-3.282c-0.766 0.568-1.712 0.9-2.736 0.9zm-4.616-4.615c0-1.025 0.332-1.971 0.9-2.737l-3.281-3.282c-1.394 1.616-2.234 3.72-2.234 6.019 0 2.298 0.84 4.403 2.234 6.018l3.281-3.281c-0.568-0.766-0.9-1.713-0.9-2.737z" fill="#505051"/>
<path d="m416.92 246.15c-5.09 0-9.231 4.141-9.231 9.231 0 5.089 4.141 9.23 9.231 9.23s9.231-4.141 9.231-9.23c0-5.09-4.141-9.231-9.231-9.231zm0.692 13.615c0 0.382-0.31 0.693-0.692 0.693s-0.692-0.311-0.692-0.693v-5.077c0-0.382 0.31-0.692 0.692-0.692s0.692 0.31 0.692 0.692v5.077zm-0.692-7.154c-0.51 0-0.923-0.413-0.923-0.923s0.413-0.923 0.923-0.923 0.923 0.413 0.923 0.923-0.413 0.923-0.923 0.923z" fill="#292929"/>
<path d="m166.15 320c-5.09 0-9.231 4.141-9.231 9.231s4.141 9.231 9.231 9.231 9.231-4.141 9.231-9.231-4.141-9.231-9.231-9.231zm0.692 13.615c0 0.383-0.31 0.693-0.692 0.693s-0.692-0.31-0.692-0.693v-5.077c0-0.382 0.31-0.692 0.692-0.692s0.692 0.31 0.692 0.692v5.077zm-0.692-7.153c-0.51 0-0.923-0.414-0.923-0.924s0.413-0.923 0.923-0.923 0.923 0.413 0.923 0.923-0.413 0.924-0.923 0.924z" fill="#505051"/>
<path d="m43.748 283.09c-0.2144 0.038-0.3579 0.205-0.4288 0.34l-2.8253 5.6c-0.3626-0.485-0.9239-0.807-1.5766-0.807-0.8183 0-1.5009 0.506-1.8163 1.211-0.2459 0-0.4698 0.063-0.6937 0.126-0.2932-0.304-0.6685-0.53-1.1225-0.53-0.2034 0-0.3816 0.071-0.555 0.139-0.2065-0.072-0.421-0.139-0.6559-0.139-0.9932 0-1.7784 0.743-1.9424 1.691-0.9475 0.164-1.6901 0.949-1.6901 1.942h-0.8072c-0.2223 0-0.4036 0.18-0.4036 0.404v1.463c0 3.998 4.2947 7.012 7.0758 7.012h4.4145c2.7812 0 7.0759-3.014 7.0759-7.012v-1.463c0-0.224-0.1798-0.404-0.4036-0.404h-0.4667c-0.1214-0.399-0.4099-0.721-0.7694-0.933-0.0615-0.752-0.6338-1.348-1.3748-1.451-0.1151-0.271-0.2822-0.508-0.4919-0.706l2.7748-3.91c0.1403-0.202 0.2255-0.563-0.227-0.883-0.4509-0.32-0.7631-0.055-0.8955 0.151l-2.6109 4.137c-0.123-0.025-0.2475-0.038-0.3784-0.038-0.5345 0-0.9917 0.242-1.3496 0.581-0.0819-0.032-0.1687-0.059-0.2522-0.089l3.1532-5.474c0.1214-0.214 0.1766-0.581-0.3027-0.857-0.1797-0.104-0.3264-0.125-0.4541-0.101zm-4.8307 5.94c0.5865 0 1.0705 0.412 1.1856 0.959l0.0883 0.429 0.4162-0.126c0.1183-0.033 0.2239-0.051 0.328-0.051 0.2049 0 0.402 0.054 0.5801 0.152l0.2901 0.164 0.2145-0.265c0.2254-0.278 0.5518-0.454 0.9333-0.454 0.5692 0 1.039 0.383 1.173 0.908l0.0757 0.328 0.3279-0.025c0.0773-4e-3 0.0883 0 0.0379 0 0.4509 0 0.8072 0.356 0.8072 0.807 0-0.038-0.0079-0.019-0.0126 0.05l-0.0126 0.303 0.2901 0.101c0.1829 0.063 0.3326 0.192 0.4288 0.353h-6.7479c0-0.222-0.1813-0.404-0.4036-0.404s-0.4036 0.182-0.4036 0.404h-7.2651c0-0.673 0.5377-1.211 1.2109-1.211h0.4036v-0.403c0-0.674 0.5376-1.211 1.2108-1.211 0.1735 0 0.339 0.033 0.4919 0.101l0.1766 0.088 0.1766-0.088c0.1198-0.062 0.2365-0.101 0.3658-0.101 0.2869 0 0.536 0.142 0.6811 0.365l0.1765 0.278 0.3028-0.114c0.2049-0.078 0.4256-0.126 0.6558-0.126 0.0678 0 0.1309 5e-3 0.2018 0.013l0.3532 0.038 0.0883-0.341c0.1308-0.528 0.6023-0.921 1.173-0.921zm-4.4398 1.615c-0.2223 0-0.4036 0.181-0.4036 0.404 0 0.222 0.1813 0.403 0.4036 0.403s0.4037-0.181 0.4037-0.403c0-0.223-0.1814-0.404-0.4037-0.404zm1.2109 0.807c-0.2223 0-0.4036 0.181-0.4036 0.404 0 0.222 0.1813 0.403 0.4036 0.403s0.4036-0.181 0.4036-0.403c0-0.223-0.1813-0.404-0.4036-0.404zm6.0542 0c-0.2223 0-0.4036 0.181-0.4036 0.404 0 0.222 0.1813 0.403 0.4036 0.403s0.4036-0.181 0.4036-0.403c0-0.223-0.1813-0.404-0.4036-0.404z" fill="#1B1B1B"/>
<path d="m101.93 283.08c-0.294 0-0.588 0.111-0.812 0.335l-8.7313 8.732-0.3863 2.01 2.0101-0.386 8.7315-8.731c0.217-0.217 0.337-0.506 0.337-0.812 0-0.307-0.12-0.596-0.337-0.813-0.224-0.224-0.518-0.335-0.812-0.335zm-14.412 0.526c-1.5898 0-2.9012 1.312-2.9012 2.902v12.132c0 1.59 1.3114 2.901 2.9012 2.901h12.133c1.5898 0 2.9008-1.311 2.9008-2.901v-8.704c2e-3 -0.139-0.023-0.278-0.076-0.408-0.052-0.13-0.129-0.248-0.227-0.347-0.098-0.1-0.215-0.179-0.344-0.233s-0.268-0.082-0.408-0.082c-0.139 0-0.278 0.028-0.407 0.082s-0.246 0.133-0.344 0.233c-0.098 0.099-0.175 0.217-0.228 0.347-0.052 0.13-0.078 0.269-0.076 0.408v8.704c0 0.45-0.341 0.791-0.7908 0.791h-12.133c-0.4494 0-0.7912-0.341-0.7912-0.791v-12.132c0-0.45 0.3418-0.792 0.7912-0.792h8.7038c0.1398 2e-3 0.2786-0.023 0.4084-0.076 0.1297-0.052 0.2478-0.129 0.3473-0.227 0.0996-0.098 0.1786-0.215 0.2326-0.344s0.0818-0.268 0.0818-0.408c0-0.139-0.0278-0.278-0.0818-0.407s-0.133-0.246-0.2326-0.344c-0.0995-0.098-0.2176-0.175-0.3473-0.228-0.1298-0.052-0.2686-0.078-0.4084-0.076h-8.7038z" fill="#292929"/>
<path d="m372.7 320c-0.293 0-0.587 0.111-0.811 0.335l-8.732 8.732-0.386 2.011 2.01-0.387 8.731-8.731c0.217-0.217 0.337-0.506 0.337-0.812 0-0.307-0.12-0.596-0.337-0.813-0.224-0.224-0.518-0.335-0.812-0.335zm-14.412 0.526c-1.59 0-2.901 1.312-2.901 2.902v12.132c0 1.59 1.311 2.902 2.901 2.902h12.132c1.59 0 2.902-1.312 2.902-2.902v-8.704c2e-3 -0.139-0.024-0.278-0.076-0.408s-0.13-0.248-0.228-0.347c-0.098-0.1-0.215-0.179-0.344-0.233s-0.267-0.082-0.407-0.082-0.279 0.028-0.408 0.082c-0.128 0.054-0.245 0.133-0.344 0.233-0.098 0.099-0.175 0.217-0.227 0.347s-0.078 0.269-0.076 0.408v8.704c0 0.45-0.342 0.792-0.792 0.792h-12.132c-0.45 0-0.791-0.342-0.791-0.792v-12.132c0-0.45 0.341-0.792 0.791-0.792h8.704c0.139 2e-3 0.278-0.023 0.408-0.076 0.13-0.052 0.248-0.129 0.347-0.227 0.1-0.098 0.179-0.215 0.233-0.344s0.082-0.268 0.082-0.408c0-0.139-0.028-0.278-0.082-0.407s-0.133-0.246-0.233-0.344c-0.099-0.098-0.217-0.175-0.347-0.228-0.13-0.052-0.269-0.078-0.408-0.076h-8.704z" fill="#505051"/>
<path d="m149.32 283.08c-0.489 0-0.978 0.185-1.348 0.555l-0.729 0.729c-0.141 0.141-0.157 0.365-0.036 0.525l-0.853 0.853c-0.61 0.612-1.192 1.073-1.75 1.437l2.835 2.835c0.363-0.559 0.824-1.139 1.436-1.75l0.853-0.853c0.16 0.12 0.384 0.105 0.525-0.036l0.729-0.729c0.742-0.742 0.742-1.956 0-2.697l-0.313-0.314c-0.372-0.37-0.859-0.557-1.349-0.555zm0 0.796c0.283 2e-3 0.565 0.11 0.783 0.327l0.312 0.313c0.434 0.435 0.434 1.128 0 1.562l-0.446 0.445-1.875-1.875 0.444-0.445c0.218-0.217 0.5-0.327 0.782-0.327zm-7.012 4e-3c-0.221 0-0.401 0.18-0.401 0.401s0.18 0.401 0.401 0.401 0.402-0.18 0.402-0.401-0.181-0.401-0.402-0.401zm2.409 1.204c-0.221 0-0.402 0.18-0.402 0.401s0.181 0.402 0.402 0.402 0.401-0.181 0.401-0.402-0.18-0.401-0.401-0.401zm-0.827 2.518c-0.486 0.259-0.958 0.456-1.419 0.627l0.979 2.939 2.937 0.983c0.17-0.464 0.368-0.936 0.628-1.424l-3.125-3.125zm-2.178 0.891c-0.073 0.025-0.149 0.05-0.222 0.073-1.374 0.457-2.793 0.927-4.251 2.385l-3.683 3.682c-0.64 0.64-0.64 1.681 0 2.321l4.108 4.106c0.32 0.322 0.74 0.481 1.16 0.481s0.841-0.159 1.16-0.481l3.682-3.682c1.46-1.458 1.929-2.877 2.385-4.25 0.024-0.072 0.047-0.146 0.072-0.218l-3.119-1.045c-0.119-0.039-0.213-0.133-0.252-0.252l-1.04-3.12zm8.223 1.006c-0.221 0-0.401 0.181-0.401 0.402s0.18 0.401 0.401 0.401 0.401-0.18 0.401-0.401-0.18-0.402-0.401-0.402zm1.204 1.606c-0.221 0-0.401 0.18-0.401 0.401s0.18 0.402 0.401 0.402 0.402-0.181 0.402-0.402-0.181-0.401-0.402-0.401zm-2.007 0.803c-0.221 0-0.401 0.18-0.401 0.401s0.18 0.402 0.401 0.402 0.402-0.181 0.402-0.402-0.181-0.401-0.402-0.401zm-7.627 0.401c0.444 0 0.803 0.359 0.803 0.803s-0.359 0.803-0.803 0.803c-0.443 0-0.802-0.359-0.802-0.803s0.359-0.803 0.802-0.803zm-3.082 0.63 3.255 3.256-2.529 2.529-3.254-3.255 2.528-2.53z" fill="#505051"/>
<path d="m188.31 283.08v2.026c-2.388 0.616-4.154 2.778-4.154 5.359v5.538l-1.846 1.846v0.923h14.769v-0.923l-1.846-1.846v-5.538c0-2.581-1.766-4.743-4.154-5.359v-2.026h-2.769zm-0.462 16.615c0 1.016 0.831 1.846 1.846 1.846 1.016 0 1.846-0.83 1.846-1.846h-3.692z" fill="#505051"/>
<path d="m415.23 320v2.026c-2.388 0.616-4.154 2.778-4.154 5.359v5.538l-1.846 1.846v0.923h14.769v-0.923l-1.846-1.846v-5.538c0-2.581-1.766-4.743-4.154-5.359v-2.026h-2.769zm-0.462 16.615c0 1.016 0.831 1.847 1.846 1.847 1.016 0 1.847-0.831 1.847-1.847h-3.693z" fill="#292929"/>
<path d="m232.16 283.08c-1.614 0-2.927 1.313-2.927 2.927v13.508c0 0.254 0.142 0.486 0.367 0.602 0.226 0.115 0.497 0.095 0.703-0.054l4.351-3.133c-7e-3 -0.113-0.018-0.226-0.018-0.342 0-0.499 0.07-0.981 0.188-1.445l-4.24 3.054v-12.19c0-0.869 0.707-1.576 1.576-1.576h6.754c0.869 0 1.576 0.707 1.576 1.576v4.728c0.465 0 0.916 0.06 1.351 0.163v-4.891c0-1.614-1.313-2.927-2.927-2.927h-6.754zm8.33 8.555c-2.736 0-4.953 2.218-4.953 4.953 0 2.736 2.217 4.953 4.953 4.953 2.735 0 4.953-2.217 4.953-4.953 0-2.735-2.218-4.953-4.953-4.953zm0 1.801c0.216 0 0.409 0.138 0.479 0.343l0.501 1.459h1.665c0.218 0 0.411 0.139 0.48 0.344 0.07 0.207 0 0.434-0.174 0.566l-1.348 1.023 0.456 1.461c0.066 0.21-0.011 0.438-0.19 0.565-0.088 0.062-0.191 0.093-0.293 0.093-0.107 0-0.214-0.034-0.304-0.101l-1.272-0.953-1.273 0.953c-0.175 0.132-0.416 0.136-0.596 9e-3 -0.179-0.127-0.257-0.356-0.191-0.566l0.457-1.461-1.349-1.023c-0.173-0.132-0.243-0.359-0.174-0.565 0.07-0.206 0.263-0.345 0.48-0.345h1.665l0.502-1.459c0.07-0.205 0.263-0.343 0.479-0.343z" fill="#505051"/>
<path d="m288.11 283.08c-5.322 0-9.651 3.763-9.651 8.389 0 2.599 1.405 5.07 3.77 6.652-0.053 0.436-0.272 1.525-1.173 2.804-0.084 0.119-0.095 0.275-0.028 0.404 0.067 0.13 0.2 0.212 0.346 0.212h0.025c2.293 0 3.836-1.417 4.328-1.94 0.776 0.17 1.576 0.257 2.383 0.257 5.322 0 9.652-3.763 9.652-8.389s-4.33-8.389-9.652-8.389zm-4.63 5.442h9.26c0.233 0 0.421 0.189 0.421 0.421 0 0.233-0.188 0.421-0.421 0.421h-9.26c-0.232 0-0.421-0.188-0.421-0.421 0-0.232 0.189-0.421 0.421-0.421zm-1.684 3.368c-0.232 0-0.42-0.188-0.42-0.421s0.188-0.421 0.42-0.421h7.156c0.232 0 0.421 0.188 0.421 0.421s-0.189 0.421-0.421 0.421h-7.156zm10.944 2.525h-9.26c-0.232 0-0.421-0.188-0.421-0.421 0-0.232 0.189-0.421 0.421-0.421h9.26c0.233 0 0.421 0.189 0.421 0.421 0 0.233-0.188 0.421-0.421 0.421zm1.684-2.525h-2.946c-0.233 0-0.421-0.188-0.421-0.421s0.188-0.421 0.421-0.421h2.946c0.232 0 0.421 0.188 0.421 0.421s-0.189 0.421-0.421 0.421z" fill="#505051"/>
<path d="m343.25 283.08c-0.877-9e-3 -1.77 0.257-2.545 0.84-0.141 0.105-0.135 0.317 0.011 0.416 0.727 0.489 1.302 1.224 1.584 2.107 0.021 0.066 0.07 0.12 0.132 0.15 2.002 0.964 2.035-0.135 3.56-0.201 0.328-0.014 0.65 0.037 0.962 0.14 0.191 0.062 0.375-0.115 0.324-0.309-0.505-1.954-2.232-3.124-4.028-3.143zm-4.762 1.192c-1.462 0-2.711 0.933-3.183 2.235-0.054 0.149 0.052 0.306 0.21 0.313 0.676 0.029 1.083-0.211 1.85-0.241 1.058-0.043 1.549 0.337 2.246 0.477 0.643 0.13 1.313 0.024 1.936-0.19 0.122-0.042 0.188-0.173 0.147-0.295-0.453-1.335-1.719-2.299-3.206-2.299zm7.614 2.733c-0.028 0-0.056 1e-3 -0.084 2e-3 -0.926 0.04-1.771 0.961-3.191 0.457-0.157-0.056-0.337 0.051-0.339 0.245-1e-3 0.141 0.112 0.256 0.253 0.257 2.974 0.016 3.794-0.025 4.208 8e-3 0.403 0.033 0.598-0.478 0.323-0.632-0.363-0.203-0.753-0.336-1.17-0.337zm-8.54 0.186c-0.264-2e-3 -0.571 0.03-0.944 0.114-0.446 0.101-0.829 0.159-1.265 0.121-0.133-0.012-0.249 0.094-0.249 0.228 0 0.031 0 0.061 1e-3 0.091 3e-3 0.128 0.112 0.228 0.24 0.223 0.352-0.013 1.396 3e-3 6.295-3e-3 0.125-1e-3 0.229-0.1 0.232-0.225 4e-3 -0.172-0.153-0.28-0.302-0.234-0.68 0.209-1.392 0.292-2.081 0.153-0.718-0.145-1.134-0.462-1.927-0.468zm-2.114 1.389c-0.641 0-1.201 0.431-1.362 1.048-0.569 2.169-0.1 4.444 1.287 6.241 2.895 3.753 8.557 3.754 11.453 1e-3 1.387-1.797 1.856-4.072 1.288-6.242-0.162-0.617-0.722-1.048-1.363-1.048h-11.303zm0.962 3.494c0.143 5e-3 0.268 0.11 0.293 0.256 0.13 0.776 0.456 1.518 0.943 2.147 0.158 0.204 7e-3 0.496-0.243 0.496-0.092 0-0.184-0.041-0.244-0.119-0.549-0.709-0.917-1.546-1.063-2.422-0.029-0.167 0.084-0.326 0.252-0.354 0.021-4e-3 0.042-5e-3 0.062-4e-3zm2.018 3.273c0.059 2e-3 0.118 0.022 0.17 0.059 0.021 0.017 0.044 0.033 0.066 0.048 0.139 0.099 0.172 0.291 0.074 0.429s-0.29 0.173-0.43 0.073c-0.025-0.017-0.05-0.035-0.075-0.054-0.137-0.101-0.166-0.293-0.066-0.43 0.063-0.085 0.162-0.129 0.261-0.125zm1.32 3.842c-0.123 1e-3 -0.236 0.078-0.282 0.197-0.213 0.56-0.527 1.081-0.932 1.54h-1.084c-0.177 0-0.319 0.149-0.307 0.328 0.01 0.164 0.153 0.287 0.317 0.287h7.287c0.164 0 0.307-0.123 0.318-0.287 0.011-0.179-0.131-0.328-0.307-0.328h-1.093c-0.404-0.459-0.719-0.98-0.932-1.541-0.052-0.135-0.192-0.216-0.335-0.192-0.862 0.142-1.749 0.14-2.597 0-0.018-3e-3 -0.036-4e-3 -0.053-4e-3z" fill="#fff"/>
<path d="m391.34 283.08c-1.61 0-2.915 1.305-2.915 2.915v5.83c0 1.61 1.305 2.915 2.915 2.915s2.915-1.305 2.915-2.915v-5.83c0-1.61-1.305-2.915-2.915-2.915zm-5.745 8.745c-0.588 0-1.063 0.522-0.967 1.104 0.476 2.915 2.807 5.201 5.74 5.622v2.019c0 0.536 0.436 0.971 0.972 0.971s0.972-0.435 0.972-0.971v-2.019c2.933-0.421 5.264-2.707 5.74-5.622 0.096-0.582-0.379-1.104-0.967-1.104-0.48 0-0.876 0.353-0.957 0.827-0.393 2.289-2.387 4.031-4.788 4.031s-4.395-1.742-4.788-4.031c-0.081-0.474-0.476-0.827-0.957-0.827z" fill="#292929"/>
<path d="m440.22 283.08c-0.933 0-1.827 0.37-2.487 1.03-0.659 0.659-1.03 1.554-1.03 2.486 0 0.933 0.371 1.827 1.03 2.487 0.66 0.659 1.554 1.03 2.487 1.03 0.932 0 1.827-0.371 2.486-1.03 0.66-0.66 1.03-1.554 1.03-2.487 0-0.932-0.37-1.827-1.03-2.486-0.659-0.66-1.554-1.03-2.486-1.03zm0 9.67c-2.762 0-7.912 1.359-7.912 3.956v1.319c0 0.485 0.394 0.879 0.879 0.879h7.52c0.349 0 0.681-0.138 0.928-0.385l3.913-3.913c0.231-0.231 0.167-0.631-0.132-0.76-1.67-0.724-3.755-1.096-5.196-1.096zm8.973 0.879c-0.112 0-0.225 0.043-0.311 0.129l-0.879 0.879 1.758 1.759 0.879-0.88c0.172-0.171 0.172-0.45 0-0.621l-1.136-1.137c-0.086-0.086-0.199-0.129-0.311-0.129zm-1.811 1.63-4.525 4.524v1.758h1.758l4.525-4.524-1.758-1.758z" fill="#1B1B1B"/>
<path d="m139.08 135.38v2.026c-2.388 0.616-4.154 2.778-4.154 5.358v5.539l-1.846 1.846v0.923h14.769v-0.923l-1.846-1.846v-5.539c0-2.58-1.766-4.742-4.154-5.358v-2.026h-2.769zm-0.462 16.615c0 1.015 0.831 1.846 1.847 1.846 1.015 0 1.846-0.831 1.846-1.846h-3.693z" fill="#505051"/>
</svg>
