<?xml version="1.0" encoding="UTF-8"?>
<svg viewBox="0 0 220 184" xmlns="http://www.w3.org/2000/svg">
<rect width="220" height="183.33" fill="#121212"/>
<path d="m18.927 28.205c-1.8112 0-4.2744 0.4719-4.2769 0.4723h-8e-4c-0.5292 0.1083-0.9425 0.5298-1.0421 1.0621l-0.0017 0.0017-0.8759 4.7788 9e-4 8e-4c-0.0245 0.1177-0.0383 0.2396-0.0383 0.3645 0 0.9838 0.7976 1.7814 1.7814 1.7814 0.5283 0 0.9976-0.2348 1.3238-0.6002l0.0061 0.0035 0.6741-0.7394h4.8988l0.6741 0.7394 0.0061-0.0035c0.3262 0.3654 0.7955 0.6002 1.3238 0.6002 0.9838 0 1.7814-0.7976 1.7814-1.7814 0-0.1249-0.0138-0.2468-0.0383-0.3645l9e-4 -8e-4 -0.8759-4.7788-0.0017-0.0017c-0.0997-0.5326-0.5134-0.9541-1.0429-1.0621h-9e-4c-0.0021-4e-4 -2.4648-0.4723-4.276-0.4723zm-3.1174 2.6721c0.2458 0 0.4453 0.1995 0.4453 0.4453v0.4454h0.4454c0.2458 0 0.4453 0.1995 0.4453 0.4453 0 0.2459-0.1995 0.4454-0.4453 0.4454h-0.4454v0.4453c0 0.2459-0.1995 0.4454-0.4453 0.4454s-0.4454-0.1995-0.4454-0.4454v-0.4453h-0.4453c-0.2458 0-0.4453-0.1995-0.4453-0.4454 0-0.2458 0.1995-0.4453 0.4453-0.4453h0.4453v-0.4454c0-0.2458 0.1996-0.4453 0.4454-0.4453zm6.2348 0c0.2458 0 0.4454 0.1995 0.4454 0.4453 0 0.2459-0.1996 0.4454-0.4454 0.4454s-0.4453-0.1995-0.4453-0.4454c0-0.2458 0.1995-0.4453 0.4453-0.4453zm-0.8907 0.8907c0.2458 0 0.4454 0.1995 0.4454 0.4453 0 0.2459-0.1996 0.4454-0.4454 0.4454s-0.4453-0.1995-0.4453-0.4454c0-0.2458 0.1995-0.4453 0.4453-0.4453zm1.7814 0c0.2458 0 0.4453 0.1995 0.4453 0.4453 0 0.2459-0.1995 0.4454-0.4453 0.4454s-0.4453-0.1995-0.4453-0.4454c0-0.2458 0.1995-0.4453 0.4453-0.4453zm-0.8907 0.8907c0.2458 0 0.4454 0.1995 0.4454 0.4453 0 0.2459-0.1996 0.4454-0.4454 0.4454s-0.4453-0.1995-0.4453-0.4454c0-0.2458 0.1995-0.4453 0.4453-0.4453z" fill="#1B1B1B"/>
<path d="m42.306 28.205c-2.332 0-4.229 1.8972-4.229 4.229v1.8203l3e-4 0.0013v0.4727c0 0.4687 0.1832 0.9128 0.511 1.244l0.4863 0.4899 0.7048 0.2044h0.0106c0.5815 0 1.0573-0.4758 1.0573-1.0573v-2.0792c0-0.5815-0.4758-1.0573-1.0573-1.0573h-0.0106l-0.7048 0.2079-0.2928 0.294v-0.5407c0-1.9432 1.5811-3.5241 3.5242-3.5241s3.5242 1.5809 3.5242 3.5241v0.5404l-0.2925-0.2937-0.7048-0.2079h-0.0106c-0.5815 0-1.0573 0.4758-1.0573 1.0573v2.0792c0 0.5815 0.4758 1.0573 1.0573 1.0573h0.0106l0.7048-0.2044 0.4863-0.4899c0.3278-0.3312 0.511-0.7753 0.511-1.244v-2.2943c0-2.3318-1.897-4.229-4.229-4.229z" fill="#292929"/>
<path d="m64.378 36.667-0.1526-0.1264c-0.2397-0.1986-0.5618-0.4177-0.9336-0.6715-1.4767-1.0076-3.7082-2.5302-3.7082-4.9583 0-1.4918 1.222-2.7054 2.724-2.7054 0.8035 0 1.5554 0.3493 2.0704 0.9486 0.5151-0.5993 1.268-0.9486 2.0705-0.9486 1.502 0 2.724 1.2136 2.724 2.7054 0 2.4281-2.2315 3.9507-3.7082 4.9583-0.3727 0.2538-0.6939 0.4729-0.9336 0.6715l-0.1527 0.1264z" fill="#505051"/>
<path d="m86.378 28.205c-2.3345 0-4.2307 1.8963-4.2307 4.2308s1.8962 4.2308 4.2307 4.2308c2.3346 0 4.2308-1.8963 4.2308-4.2308s-1.8962-4.2308-4.2308-4.2308zm0 0.3679c2.1355 0 3.8629 1.7274 3.8629 3.8629s-1.7274 3.8629-3.8629 3.8629-3.8628-1.7274-3.8628-3.8629 1.7273-3.8629 3.8628-3.8629zm-0.0143 0.5519c-0.8113 0-1.5923 0.2931-2.2038 0.8277l-0.1926 0.1761c-0.1034 0.0991-0.1624 0.2335-0.1645 0.3786-0.0029 0.1624 0.0639 0.3212 0.1875 0.4477l3.781 3.8578c0.1279 0.1308 0.2931 0.1976 0.4534 0.1976 0.1372 0 0.2709-0.0488 0.3751-0.1487l0.2091-0.2041c0.5676-0.6107 0.8802-1.4047 0.8802-2.2361 0-1.8179-1.4917-3.2966-3.3254-3.2966zm0.3822 0.9197c0.1013 0 0.184 0.0826 0.184 0.184 0 0.1013-0.0827 0.1839-0.184 0.1839s-0.1839-0.0826-0.1839-0.1839c0-0.1014 0.0826-0.184 0.1839-0.184zm0.5519 0.3679c0.1013 0 0.1839 0.0826 0.1839 0.1839 0 0.1014-0.0826 0.184-0.1839 0.184-0.1014 0-0.184-0.0826-0.184-0.184 0-0.1013 0.0826-0.1839 0.184-0.1839zm-0.5519 0.3679c0.1013 0 0.184 0.0826 0.184 0.1839 0 0.1014-0.0827 0.184-0.184 0.184s-0.1839-0.0826-0.1839-0.184c0-0.1013 0.0826-0.1839 0.1839-0.1839zm-3.0983 0.3334c-0.0022 0.0014-0.0051 0.0029-0.0079 5e-3 -0.1322 0.0999-0.2048 0.2407-0.2048 0.3974 0 0.2342 0.0654 0.3276 0.1387 0.4095 0.0301 0.0338 0.0452 0.0511 0.0452 0.1653 0 0.0273-0.0668 0.0819-0.1164 0.1214-0.1056 0.0863-0.2515 0.2048-0.2515 0.4075 0 0.1085 0.0331 0.1961 0.0992 0.2615 0.1128 0.1128 0.2695 0.1128 0.4132 0.1114 0.0668-7e-4 0.1825-7e-4 0.2069 0.0237 0.0057 5e-3 0.0165 0.0309 0.0165 0.0862 0 0.0668-0.0215 0.0913-0.1157 0.1674-0.1006 0.0819-0.2522 0.2048-0.2522 0.4534 0 0.3248 0.2436 0.447 0.3888 0.5203 0.148 0.074 0.1631 0.0941 0.1631 0.1465 0 0.2163 0.0833 0.5677 0.6115 0.6151-0.0374-0.0963-0.0597-0.2005-0.0597-0.3097 0-0.1854 0.0611-0.3643 0.171-0.5123-0.1099-0.148-0.171-0.3269-0.171-0.5123 0-0.1897 0.0632-0.3643 0.1667-0.5073-0.0438-0.028-0.0855-0.0596-0.1229-0.097-0.2486-0.2486-0.2859-0.6259-0.1192-0.9169l-0.919-0.9377c-0.0302-0.0309-0.0547-0.0654-0.0805-0.0984zm1.2761 1.3192c-0.0316 0.1294 7e-4 0.2724 0.1028 0.3737 0.0474 0.0474 0.107 0.0776 0.1717 0.0948 0.0424-0.0215 0.0869-0.0388 0.1322-0.0539l-0.4067-0.4146zm2.9259 0.3708c0.1013 0 0.1839 0.0826 0.1839 0.1839 0 0.1014-0.0826 0.184-0.1839 0.184s-0.1839-0.0826-0.1839-0.184c0-0.1013 0.0826-0.1839 0.1839-0.1839zm-2.2598 0.3679c-0.2752 0-0.4994 0.2242-0.4994 0.4994 0 0.1437 0.0618 0.2759 0.1732 0.3736 0.0402 0.0352 0.0625 0.0855 0.0625 0.1387s-0.0223 0.1035-0.0625 0.1387c-0.1114 0.0977-0.1732 0.2299-0.1732 0.3736 0 0.2752 0.2242 0.4994 0.4994 0.4994 0.1437 0 0.2759-0.0618 0.3736-0.1732 0.0704-0.0797 0.207-0.0797 0.2774 0 0.0977 0.1114 0.2299 0.1732 0.3736 0.1732 0.2752 0 0.4994-0.2242 0.4994-0.4994 0-0.0108-0.0029-0.0215-0.0036-0.0323l-1.455-1.4852c-0.0216-0.0029-0.0431-0.0065-0.0654-0.0065zm2.8116 0c0.1014 0 0.184 0.0826 0.184 0.1839 0 0.1014-0.0826 0.184-0.184 0.184-0.1013 0-0.1839-0.0826-0.1839-0.184 0-0.1013 0.0826-0.1839 0.1839-0.1839zm-0.5518 0.1839c0.1013 0 0.1839 0.0827 0.1839 0.184s-0.0826 0.1839-0.1839 0.1839-0.1839-0.0826-0.1839-0.1839 0.0826-0.184 0.1839-0.184zm-0.4225 1.6318c-0.0532 0.1481-0.1444 0.276-0.2637 0.3744 0.0711 0.0115 0.1444 0.0173 0.2263 0.0173 0.1725 0 0.3119-0.0388 0.4247-0.0942-0.1128-0.0517-0.217-0.1243-0.3061-0.2155l-0.0812-0.082z" fill="#505051"/>
<path d="m105.62 28.205c-0.403 0-0.749 0.2435-0.901 0.5904h6.017c0.759 0 1.377 0.6179 1.377 1.3774v4.049c0.347-0.1523 0.591-0.4981 0.591-0.9005v-4.1324c0-0.5425-0.442-0.9839-0.984-0.9839h-6.1zm-0.984 0.9839c-0.543 0-0.984 0.4414-0.984 0.9839v4.1324c0 0.5425 0.441 0.9839 0.984 0.9839h0.784c-0.018 0.4955-0.119 0.7876-0.492 1.012-0.076 0.0454-0.112 0.1361-0.089 0.2214 0.024 0.0852 0.102 0.1441 0.19 0.1441 0.578 0 1.6-0.1826 2.102-1.3775h3.605c0.542 0 0.984-0.4414 0.984-0.9839v-4.1324c0-0.5425-0.442-0.9839-0.984-0.9839h-6.1z" fill="#505051"/>
<path d="m105.62 28.205c-0.403 0-0.749 0.2435-0.901 0.5904h6.017c0.759 0 1.377 0.6179 1.377 1.3774v4.049c0.347-0.1523 0.591-0.4981 0.591-0.9005v-4.1324c0-0.5425-0.442-0.9839-0.984-0.9839h-6.1zm-0.984 0.9839c-0.543 0-0.984 0.4414-0.984 0.9839v4.1324c0 0.5425 0.441 0.9839 0.984 0.9839h0.784c-0.018 0.4955-0.119 0.7876-0.492 1.012-0.076 0.0454-0.112 0.1361-0.089 0.2214 0.024 0.0852 0.102 0.1441 0.19 0.1441 0.578 0 1.6-0.1826 2.102-1.3775h3.605c0.542 0 0.984-0.4414 0.984-0.9839v-4.1324c0-0.5425-0.442-0.9839-0.984-0.9839h-6.1z" fill="#505051"/>
<path d="m130.2 28.205c-0.32 0-0.613 0.1809-0.757 0.4677l-0.167 0.3339c-0.143 0.2864-0.436 0.4677-0.757 0.4677h-1.803c-0.468 0-0.847 0.3786-0.847 0.8461v5.5c0 0.4675 0.379 0.8462 0.847 0.8462h9.307c0.468 0 0.846-0.3787 0.846-0.8462v-5.5c0-0.4675-0.378-0.8461-0.846-0.8461h-1.804c-0.32 0-0.613-0.1809-0.756-0.4677l-0.167-0.3339c-0.144-0.2864-0.437-0.4677-0.757-0.4677h-2.339zm-2.638 0.4231c-0.234 0-0.423 0.1896-0.423 0.4231h1.269c0-0.2335-0.19-0.4231-0.423-0.4231h-0.423zm3.807 1.2692c1.634 0 2.962 1.3285 2.962 2.9616s-1.328 2.9615-2.962 2.9615c-1.633 0-2.961-1.3284-2.961-2.9615s1.328-2.9616 2.961-2.9616zm3.808 0.4231c0.234 0 0.423 0.1896 0.423 0.4231s-0.189 0.4231-0.423 0.4231c-0.233 0-0.423-0.1896-0.423-0.4231s0.19-0.4231 0.423-0.4231zm-3.808 0.4231c-0.561 0-1.099 0.2229-1.495 0.6196-0.397 0.3967-0.62 0.9348-0.62 1.4958s0.223 1.0991 0.62 1.4958c0.396 0.3967 0.934 0.6196 1.495 0.6196 0.562 0 1.1-0.2229 1.496-0.6196 0.397-0.3967 0.62-0.9348 0.62-1.4958s-0.223-1.0991-0.62-1.4958c-0.396-0.3967-0.934-0.6196-1.496-0.6196z" fill="#505051"/>
<path d="m151.1 28.205c-0.501 0-0.907 0.4059-0.907 0.9066v6.6484c0 0.5007 0.406 0.9066 0.907 0.9066h9.066c0.501 0 0.907-0.4059 0.907-0.9066v-6.6484c0-0.5007-0.406-0.9066-0.907-0.9066h-9.066zm0 0.3022h9.066c0.334 0 0.604 0.2705 0.604 0.6044v5.7695l-2.577-2.3178c-0.403-0.362-1.015-0.3615-1.417 0.0018l-2.095 1.8928-1.002-0.8576c-0.397-0.3393-0.982-0.3385-1.378 0.0024l-1.805 1.5552v-6.0463c0-0.3339 0.27-0.6044 0.604-0.6044zm1.813 1.511c-0.501 0-0.906 0.4059-0.906 0.9066 0 0.5008 0.405 0.9066 0.906 0.9066s0.907-0.4058 0.907-0.9066c0-0.5007-0.406-0.9066-0.907-0.9066z" fill="#505051"/>
<path d="m178.43 28.205c-0.425 0-0.77 0.3443-0.77 0.7693h-3.077c-0.425 0-0.769 0.3442-0.769 0.7692v3.4615c0 0.425 0.344 0.7693 0.769 0.7693h8.462c0.425 0 0.769-0.3443 0.769-0.7693v-3.4615c0-0.425-0.344-0.7692-0.769-0.7692h-3.077c0-0.425-0.344-0.7693-0.769-0.7693h-0.769zm0.384 4.2308c0.213 0 0.385 0.1723 0.385 0.3846s-0.172 0.3846-0.385 0.3846c-0.212 0-0.384-0.1723-0.384-0.3846s0.172-0.3846 0.384-0.3846zm-5 2.0936v1.3679c0 0.425 0.344 0.7693 0.769 0.7693h8.462c0.425 0 0.769-0.3443 0.769-0.7693v-1.3679c-0.227 0.1323-0.487 0.2141-0.769 0.2141h-8.462c-0.281 0-0.541-0.0818-0.769-0.2141z" fill="#292929"/>
<path d="m204.31 28.205c-0.57 0-1.032 0.462-1.032 1.0319 0 0.57 0.462 1.0319 1.032 1.0319 0.569 0 1.031-0.4619 1.031-1.0319 0-0.5699-0.462-1.0319-1.031-1.0319zm-2.167 1.2383c-0.183 0-0.358 0.0701-0.491 0.1943l-1.725 1.3898v0.0025c-0.228 0.1531-0.364 0.4095-0.364 0.6836 0 0.287 0.15 0.553 0.394 0.703l1.592 1.0835-0.325 1.9339c-7e-3 0.0323-0.01 0.0645-0.01 0.0976 0 0.2846 0.231 0.5159 0.516 0.5159 0.274 0 0.5-0.2144 0.515-0.4877l0.407-2.3274v-8e-4c4e-3 -0.0242 6e-3 -0.0492 6e-3 -0.0734 0-0.1362-0.067-0.2644-0.18-0.341l-1e-3 -0.0016-1.108-0.8182 1.126-0.9941 0.858 0.9497 3e-3 0.0016c0.077 0.1081 0.201 0.1717 0.334 0.1717h1.548c0.285 0 0.516-0.2313 0.516-0.5159s-0.231-0.516-0.516-0.516h-1.341l-1.155-1.3301c-0.133-0.2008-0.358-0.3209-0.599-0.3209zm-3.199 3.5085c-1.023 0-1.858 0.8343-1.858 1.8574 0 1.023 0.835 1.8574 1.858 1.8574s1.857-0.8344 1.857-1.8574c0-1.0231-0.834-1.8574-1.857-1.8574zm5.778 0c-1.023 0-1.857 0.8343-1.857 1.8574 0 1.023 0.834 1.8574 1.857 1.8574s1.858-0.8344 1.858-1.8574c0-1.0231-0.835-1.8574-1.858-1.8574zm-5.778 0.4127c0.8 0 1.444 0.6441 1.444 1.4447 0 0.8005-0.644 1.4446-1.444 1.4446-0.801 0-1.445-0.6441-1.445-1.4446 0-0.8006 0.644-1.4447 1.445-1.4447zm5.778 0c0.801 0 1.445 0.6441 1.445 1.4447 0 0.8005-0.644 1.4446-1.445 1.4446-0.8 0-1.444-0.6441-1.444-1.4446 0-0.8006 0.644-1.4447 1.444-1.4447z" fill="#1B1B1B"/>
<path d="m31.026 45.128c-0.0922 0-0.1807 0.0361-0.2465 0.1005l-3.8459 3.1456c-0.0044 0.0033-0.0088 0.0068-0.0131 0.0103l-0.013 0.011v7e-4c-0.0354 0.033-0.0636 0.0728-0.0829 0.1171s-0.0293 0.0921-0.0294 0.1404c0 0.0936 0.0372 0.1832 0.1033 0.2493 0.0661 0.0662 0.1558 0.1033 0.2493 0.1033h0.3526v3.8782c0 0.3896 0.3155 0.7051 0.7051 0.7051h5.641c0.3896 0 0.7051-0.3155 0.7051-0.7051v-3.8782h0.3526c0.0935 0 0.1832-0.0371 0.2493-0.1033 0.0661-0.0661 0.1033-0.1557 0.1033-0.2493 0-0.0484-0.01-0.0963-0.0293-0.1408-0.0193-0.0444-0.0475-0.0844-0.083-0.1174l-0.0055-0.0041c-0.0077-7e-3 -0.0158-0.0137-0.0241-0.02l-1.2684-1.0377v-1.5005c0-0.1946-0.1579-0.3525-0.3526-0.3525h-0.3525c-0.1946 0-0.3526 0.1579-0.3526 0.3525v0.6356l-1.5239-1.2464c-0.0649-0.0603-0.1502-0.094-0.2389-0.0943zm-1.0577 4.9359h2.1154v2.8205h-2.1154v-2.8205z" fill="#292929"/>
<path d="m143.14 78.974c-0.092 0-0.181 0.0361-0.247 0.1005l-3.845 3.1455c-5e-3 0.0034-9e-3 0.0068-0.014 0.0104l-0.013 0.011v7e-4c-0.035 0.0329-0.063 0.0728-0.082 0.1171-0.02 0.0443-0.03 0.0921-0.03 0.1404 0 0.0935 0.037 0.1832 0.103 0.2493 0.067 0.0661 0.156 0.1033 0.25 0.1033h0.352v3.8782c0 0.3896 0.316 0.7051 0.705 0.7051h5.641c0.39 0 0.706-0.3155 0.706-0.7051v-3.8782h0.352c0.094 0 0.183-0.0372 0.249-0.1033 0.067-0.0661 0.104-0.1558 0.104-0.2493 0-0.0484-0.01-0.0964-0.03-0.1408-0.019-0.0444-0.047-0.0844-0.083-0.1174l-5e-3 -0.0042c-8e-3 -7e-3 -0.016-0.0136-0.024-0.0199l-1.269-1.0377v-1.5005c0-0.1946-0.158-0.3526-0.352-0.3526h-0.353c-0.194 0-0.352 0.158-0.352 0.3526v0.6356l-1.524-1.2464c-0.065-0.0604-0.15-0.0941-0.239-0.0943zm-1.058 4.9359h2.116v2.8205h-2.116v-2.8205z" fill="#505051"/>
<path d="m53.59 45.128c-0.605 0-1.1036 0.485-1.1036 1.0836 0 0.2162 0.061 0.4246 0.12 0.5999 0.0589 0.1754 0.1164 0.3378 0.1192 0.36 0 0.0029 0.0453 0.4017-0.0661 0.7452v0.0014c-0.0194 0.0539-0.2062 0.582-0.3362 0.9434-0.2946-0.3973-0.6762-0.9125-0.6942-0.9369-0.1861-0.2695-0.255-0.6309-0.255-0.6309-0.0029-0.018 0.0014-0.1732 0.0036-0.3413 0.0028-0.1689-8e-4 -0.3672-0.0604-0.5583-0.1222-0.3967-0.4685-0.6654-0.8572-0.7085-0.1294-0.0137-0.263-0.0029-0.3952 0.0374-0.5267 0.1595-0.8235 0.7235-0.6611 1.2517 0.0597 0.1918 0.1703 0.3571 0.2688 0.495 0.0977 0.138 0.1868 0.2637 0.1983 0.2918l0.0014 0.0021 0.0014 0.0029s0.1459 0.3391 0.1438 0.6646l7e-4 -0.0043c-0.0022 0.0618-0.0273 0.9722-0.0395 1.1935l-8e-4 7e-4c-0.0337 0.6999 0.11 1.3947 0.3945 2.0285 0.2723 0.6107 0.4362 1.1604 0.4671 1.2589l0.0057 0.0172c0.0647 0.1509 0.2264 0.2551 0.4484 0.281 0.1926 0.0215 0.4405-0.0158 0.7559-0.1315 0.4088 0.3327 0.919 0.5144 1.4637 0.5144 0.5748 0 1.1101-0.2047 1.534-0.5453 0.3572 0.1422 0.6295 0.1861 0.8393 0.1624 0.222-0.0259 0.3837-0.1301 0.4484-0.281l0.0057-0.0172c0.0309-0.0985 0.1947-0.6482 0.4678-1.2589v-7e-4c0.2838-0.6331 0.4275-1.3279 0.3937-2.0278v-7e-4c-0.0129-0.2213-0.038-1.1317-0.0402-1.1935l7e-4 0.0043c-0.0021-0.3255 0.1437-0.6646 0.1437-0.6646l0.0015-0.0029 0.0014-0.0021c0.0115-0.0281 0.1006-0.1538 0.1983-0.2918 0.0985-0.1379 0.2091-0.3032 0.268-0.495 0.1632-0.5282-0.1336-1.0922-0.661-1.2517-0.1315-0.0403-0.2652-0.0518-0.3945-0.0374-0.388 0.0424-0.7351 0.3118-0.8572 0.7078-0.0597 0.1911-0.0632 0.3901-0.0604 0.559 0.0029 0.1681 0.0072 0.3255 0.0036 0.3427 0 0.0015-0.0697 0.3607-0.2551 0.6295-0.0186 0.0258-0.4052 0.5475-0.7005 0.9456-0.1301-0.3629-0.314-0.8831-0.332-0.9349-0.1121-0.3449-0.0661-0.748-0.0661-0.748v-5e-3c0.0036-0.0366 0.0582-0.1961 0.1178-0.3715 0.0604-0.1753 0.1236-0.3822 0.1236-0.5992 0-0.5986-0.4986-1.0836-1.1037-1.0836zm0 0.3679c0.411 0 0.7358 0.3205 0.7358 0.7157 0 0.1415-0.0474 0.3168-0.1034 0.4807-0.0554 0.1631-0.1208 0.2996-0.1358 0.4526 0 0.0022-8e-3 0.0827-0.0108 0.1905h-0.9736c-0.0022-0.1222-0.0123-0.212-0.0123-0.212v-7e-4c-0.0186-0.1401-0.0804-0.2666-0.135-0.4283-0.0539-0.1616-0.1006-0.3398-0.1006-0.4828 0-0.3952 0.3247-0.7157 0.7357-0.7157zm-3.2923 0.554c0.2946-0.0273 0.577 0.1552 0.6682 0.452 0.0381 0.1235 0.0467 0.2895 0.0439 0.4447-0.0022 0.1545-0.0209 0.2795 0.0014 0.4103v0.0015s0.0165 0.0804 0.0474 0.1889l-0.7861 0.2386c-0.0316-0.0934-0.0596-0.1624-0.061-0.1653l-8e-4 -7e-4c-0.0553-0.1322-0.148-0.2357-0.2392-0.3636-0.0913-0.1286-0.1775-0.268-0.2156-0.3901-0.1049-0.3392 0.0805-0.6898 0.416-0.7912 0.0417-0.0129 0.0841-0.0215 0.1258-0.0251zm6.5847 0c0.0417 0.0036 0.0841 0.0122 0.1257 0.0251 0.3356 0.1014 0.521 0.452 0.4161 0.7912-0.0381 0.1221-0.1243 0.2615-0.2156 0.3901-0.0912 0.1279-0.1839 0.2314-0.2393 0.3636v7e-4c-0.0021 0.0029-0.0301 0.0719-0.0618 0.1653l-0.786-0.2386c0.0309-0.1085 0.0474-0.1889 0.0474-0.1889v-0.0022c0.0223-0.1301 0.0036-0.2551 0.0014-0.4096-0.0029-0.1552 0.0058-0.3219 0.0439-0.4447 0.0919-0.2968 0.3743-0.4793 0.6682-0.452zm-3.7989 1.6534h1.0088c0.0144 0.1099 0.0374 0.2277 0.0754 0.3449l8e-4 0.0028 0.0014 0.0022s0.0058 0.0172 0.0065 0.0179h-1.1813c7e-4 -0.0021 0.0122-0.0344 0.0122-0.0344l0.0014-0.0029 8e-4 -0.0029c0.0359-0.1106 0.0589-0.222 0.074-0.3276zm-1.8948 0.1897c0.0381 0.0797 0.0833 0.1623 0.1379 0.2414l0.0015 0.0021 0.0021 0.0015c0.0022 0.0036 0.0525 0.0718 0.0604 0.0819l-1.0081 0.3054c7e-4 -0.0115 0.0028-0.0841 0.0028-0.0863v-0.0057c8e-4 -0.1013-0.0086-0.199-0.0229-0.2903l0.8263-0.25zm4.8027 0 0.8263 0.25c-0.0143 0.0913-0.0237 0.189-0.023 0.2903v0.0057c0 0.0022 0.0022 0.0748 0.0029 0.0863l-1.0081-0.3047c0.0079-0.0108 0.0589-0.079 0.0611-0.0826l0.0014-0.0015 0.0014-0.0021c0.0547-0.0798 0.0999-0.1617 0.138-0.2414zm-3.1271 0.546h1.4421c0.0661 0.1869 0.1078 0.3033 0.184 0.5174-0.2587-0.0963-0.5353-0.1495-0.8235-0.1495-0.36 0-0.7027 0.0819-1.0138 0.2257 0.0804-0.2235 0.1343-0.3737 0.2112-0.5936zm-1.2409 0.0949c0.2091 0.2838 0.3945 0.5346 0.572 0.7724-0.5792 0.4369-0.9686 1.1181-0.9952 1.8855-0.0209 0.5949 0.176 1.1539 0.5533 1.5937-0.1883 0.0532-0.3291 0.0654-0.419 0.0553-0.1307-0.0151-0.1523-0.0639-0.1501-0.0589-0.0295-0.0956-0.1969-0.6553-0.4764-1.2826v-7e-4c-0.2623-0.5835-0.3931-1.2208-0.3629-1.8582v-7e-4c0.0086-0.1509 0.0158-0.4304 0.0244-0.7264l1.2539-0.3794zm3.934 0 1.2524 0.3794c0.0094 0.2967 0.0166 0.577 0.0252 0.7271 0.0302 0.6374-0.1006 1.2747-0.3629 1.8582v7e-4c-0.2795 0.6273-0.4469 1.187-0.4764 1.2826 0.0022-5e-3 -0.0194 0.0438-0.1502 0.0589-0.1027 0.0115-0.2687-0.0036-0.5015-0.079 0.3758-0.4189 0.6151-0.9621 0.6359-1.5571 0.0223-0.6417-0.2055-1.2438-0.6431-1.6965-0.0948-0.0984-0.1976-0.1846-0.3061-0.2637 0.184-0.2464 0.3341-0.4491 0.5267-0.7106zm-2.1513 1.011c0.2033 0 0.3679 0.1638 0.3679 0.3672 0 0.2026-0.1646 0.3671-0.3679 0.3671-0.2026 0-0.3672-0.1638-0.3672-0.3671 0-0.2027 0.1646-0.3672 0.3672-0.3672zm1.103 0.3672c0.2026 0 0.3671 0.1645 0.3671 0.3671 0 0.2034-0.1645 0.3679-0.3671 0.3679-0.2034 0-0.3679-0.1645-0.3679-0.3679 0-0.2026 0.1645-0.3671 0.3679-0.3671zm-0.9191 0.735c0.2034 0 0.3679 0.1646 0.3679 0.3672 0 0.2033-0.1652 0.3679-0.3679 0.3679-0.2026 0-0.3679-0.1646-0.3679-0.3679 0-0.2026 0.1646-0.3672 0.3679-0.3672z" fill="#fff"/>
<path d="m31.026 78.974c-0.605 0-1.1037 0.485-1.1037 1.0835 0 0.2163 0.0611 0.4247 0.12 0.6s0.1164 0.3377 0.1193 0.36c0 0.0029 0.0452 0.4017-0.0661 0.7451v0.0015c-0.0194 0.0539-0.2063 0.582-0.3363 0.9434-0.2946-0.3973-0.6762-0.9125-0.6941-0.937-0.1861-0.2694-0.2551-0.6309-0.2551-0.6309-0.0029-0.0179 0.0014-0.1731 0.0036-0.3413 0.0029-0.1688-7e-4 -0.3671-0.0604-0.5583-0.1221-0.3966-0.4685-0.6653-0.8572-0.7084-0.1293-0.0137-0.263-0.0029-0.3952 0.0373-0.5267 0.1595-0.8234 0.7236-0.661 1.2517 0.0596 0.1919 0.1703 0.3571 0.2687 0.4951 0.0977 0.138 0.1868 0.2637 0.1983 0.2917l0.0014 0.0022 0.0015 0.0028s0.1458 0.3392 0.1437 0.6647l7e-4 -0.0043c-0.0021 0.0618-0.0273 0.9722-0.0395 1.1935l-7e-4 7e-4c-0.0338 0.6999 0.1099 1.3947 0.3945 2.0284 0.2723 0.6108 0.4361 1.1605 0.467 1.2589l0.0058 0.0173c0.0646 0.1509 0.2263 0.2551 0.4483 0.2809 0.1926 0.0216 0.4405-0.0158 0.7559-0.1315 0.4089 0.3327 0.919 0.5145 1.4637 0.5145 0.5748 0 1.1101-0.2048 1.5341-0.5454 0.3571 0.1423 0.6294 0.1861 0.8392 0.1624 0.2221-0.0258 0.3837-0.13 0.4484-0.2809l0.0058-0.0173c0.0308-0.0984 0.1947-0.6481 0.4677-1.2589v-7e-4c0.2838-0.633 0.4276-1.3278 0.3938-2.0277v-7e-4c-0.013-0.2213-0.0381-1.1317-0.0403-1.1935l8e-4 0.0043c-0.0022-0.3255 0.1437-0.6647 0.1437-0.6647l0.0014-0.0028 0.0014-0.0022c0.0115-0.028 0.1006-0.1537 0.1984-0.2917 0.0984-0.138 0.2091-0.3032 0.268-0.4951 0.1631-0.5281-0.1337-1.0922-0.6611-1.2517-0.1315-0.0402-0.2651-0.0517-0.3945-0.0373-0.388 0.0423-0.735 0.3118-0.8572 0.7077-0.0596 0.1911-0.0632 0.3902-0.0603 0.559 0.0028 0.1682 0.0072 0.3255 0.0036 0.3428 0 0.0014-0.0697 0.3607-0.2551 0.6294-0.0187 0.0259-0.4053 0.5476-0.7006 0.9456-0.1301-0.3628-0.314-0.8831-0.332-0.9348-0.1121-0.3449-0.0661-0.748-0.0661-0.748v-5e-3c0.0036-0.0367 0.0582-0.1962 0.1179-0.3715 0.0603-0.1753 0.1236-0.3823 0.1236-0.5993 0-0.5985-0.4987-1.0835-1.1037-1.0835zm0 0.3679c0.411 0 0.7358 0.3204 0.7358 0.7156 0 0.1416-0.0475 0.3169-0.1035 0.4807-0.0553 0.1631-0.1207 0.2997-0.1358 0.4527 0 0.0022-0.0079 0.0826-0.0108 0.1904h-0.9736c-0.0022-0.1221-0.0122-0.2119-0.0122-0.2119v-8e-4c-0.0187-0.1401-0.0805-0.2665-0.1351-0.4282-0.0539-0.1617-0.1006-0.3399-0.1006-0.4829 0-0.3952 0.3248-0.7156 0.7358-0.7156zm-3.2924 0.554c0.2946-0.0274 0.577 0.1552 0.6683 0.4519 0.038 0.1236 0.0467 0.2896 0.0438 0.4448-0.0022 0.1545-0.0208 0.2795 0.0014 0.4103v0.0014s0.0166 0.0805 0.0475 0.189l-0.7861 0.2385c-0.0316-0.0934-0.0597-0.1623-0.0611-0.1652l-7e-4 -7e-4c-0.0553-0.1322-0.148-0.2357-0.2393-0.3636-0.0913-0.1286-0.1775-0.268-0.2156-0.3902-0.1049-0.3391 0.0805-0.6898 0.4161-0.7911 0.0417-0.0129 0.084-0.0216 0.1257-0.0251zm6.5847 0c0.0417 0.0035 0.0841 0.0122 0.1258 0.0251 0.3355 0.1013 0.5209 0.452 0.416 0.7911-0.0381 0.1222-0.1243 0.2616-0.2156 0.3902-0.0912 0.1279-0.1839 0.2314-0.2392 0.3636v7e-4c-0.0022 0.0029-0.0302 0.0718-0.0618 0.1652l-0.7861-0.2385c0.0309-0.1085 0.0474-0.189 0.0474-0.189v-0.0021c0.0223-0.1301 0.0036-0.2551 0.0015-0.4096-0.0029-0.1552 0.0057-0.3219 0.0438-0.4448 0.092-0.2967 0.3743-0.4793 0.6682-0.4519zm-3.7989 1.6533h1.0088c0.0144 0.11 0.0374 0.2278 0.0755 0.3449l7e-4 0.0029 0.0014 0.0021s0.0058 0.0173 0.0065 0.018h-1.1813c7e-4 -0.0021 0.0122-0.0345 0.0122-0.0345l0.0015-0.0029 7e-4 -0.0028c0.0359-0.1107 0.0589-0.2221 0.074-0.3277zm-1.8948 0.1897c0.0381 0.0798 0.0834 0.1624 0.138 0.2414l0.0014 0.0022 0.0022 0.0014c0.0021 0.0036 0.0524 0.0719 0.0603 0.0819l-1.0081 0.3054c7e-4 -0.0115 0.0029-0.084 0.0029-0.0862v-0.0057c7e-4 -0.1014-0.0086-0.1991-0.023-0.2903l0.8263-0.2501zm4.8027 0 0.8264 0.2501c-0.0144 0.0912-0.0237 0.1889-0.023 0.2903v0.0057c0 0.0022 0.0021 0.0747 0.0028 0.0862l-1.0081-0.3046c0.0079-0.0108 0.059-0.0791 0.0611-0.0827l0.0014-0.0014 0.0015-0.0022c0.0546-0.0797 0.0999-0.1616 0.1379-0.2414zm-3.127 0.5461h1.4421c0.0661 0.1868 0.1077 0.3032 0.1839 0.5174-0.2587-0.0963-0.5353-0.1495-0.8234-0.1495-0.36 0-0.7028 0.0819-1.0139 0.2256 0.0805-0.2234 0.1344-0.3736 0.2113-0.5935zm-1.241 0.0948c0.2091 0.2839 0.3945 0.5346 0.572 0.7725-0.5792 0.4369-0.9686 1.118-0.9952 1.8854-0.0208 0.595 0.1761 1.154 0.5533 1.5938-0.1883 0.0531-0.3291 0.0653-0.4189 0.0553-0.1308-0.0151-0.1524-0.064-0.1502-0.0589-0.0295-0.0956-0.1969-0.6553-0.4764-1.2826v-8e-4c-0.2623-0.5834-0.393-1.2208-0.3629-1.8581v-7e-4c0.0087-0.1509 0.0159-0.4304 0.0245-0.7265l1.2538-0.3794zm3.934 0 1.2525 0.3794c0.0093 0.2968 0.0165 0.577 0.0251 0.7272 0.0302 0.6373-0.1006 1.2747-0.3629 1.8581v8e-4c-0.2795 0.6273-0.4469 1.187-0.4763 1.2826 0.0021-0.0051-0.0194 0.0438-0.1502 0.0589-0.1028 0.0115-0.2688-0.0036-0.5016-0.0791 0.3758-0.4189 0.6151-0.9621 0.6359-1.557 0.0223-0.6417-0.2055-1.2438-0.643-1.6965-0.0949-0.0984-0.1976-0.1847-0.3061-0.2637 0.1839-0.2465 0.3341-0.4491 0.5266-0.7107zm-2.1513 1.011c0.2034 0 0.3679 0.1639 0.3679 0.3672 0 0.2026-0.1645 0.3672-0.3679 0.3672-0.2026 0-0.3671-0.1638-0.3671-0.3672 0-0.2026 0.1645-0.3672 0.3671-0.3672zm1.103 0.3672c0.2026 0 0.3672 0.1646 0.3672 0.3672 0 0.2033-0.1646 0.3679-0.3672 0.3679-0.2034 0-0.3679-0.1646-0.3679-0.3679 0-0.2026 0.1645-0.3672 0.3679-0.3672zm-0.919 0.7351c0.2033 0 0.3679 0.1645 0.3679 0.3672 0 0.2033-0.1653 0.3678-0.3679 0.3678-0.2027 0-0.3679-0.1645-0.3679-0.3678 0-0.2027 0.1645-0.3672 0.3679-0.3672z" fill="#292929"/>
<path d="m74.385 45.128c-0.0916 0.0015-0.179 0.0385-0.2438 0.1033l-1.6595 1.6596h-0.0028c-0.3606 0-0.6632 0.2725-0.701 0.6314l-0.5563 5.2884c-0.0438 0.4161 0.2825 0.7788 0.7009 0.7788h7.0513c0.4185 0 0.7447-0.3627 0.701-0.7788l-0.5564-5.2884c-0.0377-0.3589-0.3403-0.6314-0.701-0.6314h-0.2314l-1.3069-1.307c-0.0334-0.0334-0.0732-0.0598-0.1169-0.0775-0.0438-0.0177-0.0907-0.0265-0.1379-0.0258-0.0841 0.0013-0.1649 0.0325-0.2279 0.0881l-0.7534 0.6659-1.0032-1.0033c-0.0334-0.0334-0.0732-0.0597-0.117-0.0775-0.0437-0.0177-0.0906-0.0265-0.1378-0.0258zm0.0055 0.8512 0.9117 0.9117h-1.8234l0.9117-0.9117zm2.2242 0.3381 0.5736 0.5736h-0.889l-0.1563-0.1564 0.4717-0.4172zm-2.7531 1.6312c0.292 0 0.5289 0.237 0.5289 0.5289v0.8814c0 0.5831 0.4745 1.0577 1.0577 1.0577 0.5831 0 1.0577-0.4746 1.0577-1.0577v-0.8814c0-0.2919 0.2369-0.5289 0.5288-0.5289s0.5288 0.237 0.5288 0.5289c0 0.2299-0.1477 0.4238-0.3525 0.4965v0.3849c0 0.972-0.7908 1.7628-1.7628 1.7628s-1.7628-0.7908-1.7628-1.7628v-0.3849c-0.2049-0.0727-0.3526-0.2666-0.3526-0.4965 0-0.2919 0.2369-0.5289 0.5288-0.5289z" fill="#505051"/>
<path d="m118.81 78.974c-0.091 0.0015-0.179 0.0385-0.243 0.1033l-1.66 1.6595h-3e-3c-0.36 0-0.663 0.2726-0.701 0.6315l-0.556 5.2884c-0.044 0.416 0.283 0.7788 0.701 0.7788h7.051c0.419 0 0.745-0.3628 0.701-0.7788l-0.556-5.2884c-0.038-0.3589-0.34-0.6315-0.701-0.6315h-0.231l-1.307-1.3069c-0.034-0.0334-0.074-0.0598-0.117-0.0775-0.044-0.0178-0.091-0.0266-0.138-0.0258-0.084 0.0012-0.165 0.0325-0.228 0.0881l-0.753 0.6659-1.004-1.0033c-0.033-0.0334-0.073-0.0598-0.117-0.0775-0.043-0.0177-0.09-0.0265-0.138-0.0258zm6e-3 0.8511 0.912 0.9117h-1.824l0.912-0.9117zm2.224 0.3381 0.574 0.5736h-0.889l-0.157-0.1563 0.472-0.4173zm-2.753 1.6313c0.292 0 0.529 0.2369 0.529 0.5288v0.8815c0 0.5831 0.475 1.0576 1.058 1.0576s1.057-0.4745 1.057-1.0576v-0.8815c0-0.2919 0.237-0.5288 0.529-0.5288s0.529 0.2369 0.529 0.5288c0 0.2299-0.148 0.4239-0.353 0.4965v0.385c0 0.972-0.79 1.7628-1.762 1.7628s-1.763-0.7908-1.763-1.7628v-0.385c-0.205-0.0726-0.353-0.2666-0.353-0.4965 0-0.2919 0.237-0.5288 0.529-0.5288z" fill="#fff"/>
<path d="m95.587 45.128c-0.1186 0.0035-0.2313 0.0531-0.314 0.1383l-1.1615 1.1615-0.2481-0.248c-0.042-0.0438-0.0925-0.0788-0.1482-0.1029-0.0558-0.0241-0.1159-0.0369-0.1766-0.0375-0.0608-6e-4 -0.1211 0.0109-0.1773 0.0339-0.0563 0.0229-0.1074 0.0569-0.1504 0.0999s-0.0769 0.0941-0.0999 0.1503c-0.023 0.0563-0.0345 0.1166-0.0339 0.1774 6e-4 0.0607 0.0134 0.1208 0.0375 0.1765 0.0241 0.0558 0.0591 0.1062 0.1029 0.1483l0.571 0.571c0.0857 0.0856 0.2018 0.1337 0.323 0.1337 0.1211 0 0.2372-0.0481 0.3229-0.1337l1.4845-1.4845c0.066-0.0642 0.1111-0.1468 0.1294-0.237 0.0182-0.0902 0.0088-0.1838-0.0271-0.2686s-0.0965-0.1567-0.174-0.2065c-0.0775-0.0497-0.1682-0.0748-0.2602-0.0721zm1.6077 0.6896c-0.0606-8e-4 -0.1207 0.0103-0.1768 0.0329-0.0562 0.0226-0.1073 0.0561-0.1504 0.0986s-0.0774 0.0931-0.1007 0.149c-0.0234 0.0558-0.0354 0.1158-0.0354 0.1763s0.012 0.1205 0.0354 0.1763c0.0233 0.0558 0.0576 0.1065 0.1007 0.149s0.0942 0.076 0.1504 0.0986c0.0561 0.0225 0.1162 0.0337 0.1768 0.0329h4.5675c0.061 8e-4 0.121-0.0104 0.177-0.0329 0.056-0.0226 0.107-0.0561 0.15-0.0986s0.078-0.0932 0.101-0.149 0.035-0.1158 0.035-0.1763-0.012-0.1205-0.035-0.1763c-0.023-0.0559-0.058-0.1065-0.101-0.149s-0.094-0.076-0.15-0.0986-0.116-0.0337-0.177-0.0329h-4.5675zm-1.6077 2.3936c-0.1186 0.0035-0.2313 0.0531-0.314 0.1383l-1.1615 1.1615-0.2481-0.248c-0.042-0.0438-0.0925-0.0788-0.1482-0.1029-0.0558-0.0241-0.1159-0.0369-0.1766-0.0375-0.0608-6e-4 -0.1211 0.0109-0.1773 0.0339-0.0563 0.023-0.1074 0.0569-0.1504 0.0999s-0.0769 0.0941-0.0999 0.1503c-0.023 0.0563-0.0345 0.1166-0.0339 0.1774 6e-4 0.0607 0.0134 0.1208 0.0375 0.1765 0.0241 0.0558 0.0591 0.1062 0.1029 0.1483l0.571 0.571c0.0857 0.0856 0.2018 0.1337 0.323 0.1337 0.1211 0 0.2372-0.0481 0.3229-0.1337l1.4845-1.4845c0.066-0.0642 0.1111-0.1468 0.1294-0.237 0.0182-0.0902 0.0088-0.1838-0.0271-0.2686s-0.0965-0.1567-0.174-0.2065c-0.0775-0.0497-0.1682-0.0748-0.2602-0.0721zm1.6077 0.8038c-0.0606-8e-4 -0.1207 0.0103-0.1768 0.0329-0.0562 0.0226-0.1073 0.0561-0.1504 0.0986s-0.0774 0.0931-0.1007 0.149c-0.0234 0.0558-0.0354 0.1158-0.0354 0.1763s0.012 0.1204 0.0354 0.1763c0.0233 0.0558 0.0576 0.1065 0.1007 0.149s0.0942 0.076 0.1504 0.0986c0.0561 0.0225 0.1162 0.0337 0.1768 0.0329h4.5675c0.061 8e-4 0.121-0.0104 0.177-0.0329 0.056-0.0226 0.107-0.0561 0.15-0.0986s0.078-0.0932 0.101-0.149c0.023-0.0559 0.035-0.1158 0.035-0.1763s-0.012-0.1205-0.035-0.1763c-0.023-0.0559-0.058-0.1065-0.101-0.149s-0.094-0.076-0.15-0.0986-0.116-0.0337-0.177-0.0329h-4.5675zm-2.0595 2.2772c-0.1207 0.0028-0.2354 0.0533-0.319 0.1405l-0.3622 0.3622-0.3622-0.3622c-0.0426-0.0438-0.0936-0.0786-0.1499-0.1024-0.0563-0.0237-0.1168-0.0359-0.1779-0.0359-0.0909 1e-4 -0.1796 0.0273-0.2549 0.0781s-0.1338 0.1229-0.1679 0.207c-0.0341 0.0842-0.0424 0.1766-0.0237 0.2655 0.0186 0.0889 0.0633 0.1702 0.1284 0.2336l0.3622 0.3622-0.3622 0.3622c-0.0438 0.0421-0.0788 0.0925-0.1029 0.1483s-0.0369 0.1158-0.0375 0.1766c-6e-4 0.0607 0.0109 0.121 0.0339 0.1773 0.0229 0.0563 0.0569 0.1074 0.0999 0.1503 0.043 0.043 0.0941 0.077 0.1503 0.1 0.0563 0.0229 0.1166 0.0344 0.1774 0.0338 0.0607-6e-4 0.1208-0.0133 0.1765-0.0375 0.0558-0.0241 0.1062-0.0591 0.1483-0.1029l0.3622-0.3622 0.3622 0.3622c0.0421 0.0438 0.0925 0.0788 0.1483 0.103 0.0558 0.0241 0.1158 0.0368 0.1766 0.0374s0.1211-0.0109 0.1773-0.0338c0.0563-0.023 0.1074-0.057 0.1504-0.1 0.043-0.0429 0.0769-0.094 0.0999-0.1503s0.0345-0.1166 0.0339-0.1773c-7e-4 -0.0608-0.0134-0.1208-0.0375-0.1766s-0.0591-0.1062-0.103-0.1483l-0.3622-0.3622 0.3622-0.3622c0.0665-0.0637 0.1122-0.1461 0.131-0.2362 0.0189-0.0901 0.01-0.1839-0.0253-0.2689-0.0354-0.085-0.0956-0.1574-0.1728-0.2076s-0.1678-0.0759-0.2598-0.0737zm2.0595 0.9202c-0.0606-8e-4 -0.1207 0.0103-0.1768 0.0329-0.0562 0.0226-0.1073 0.0561-0.1504 0.0986s-0.0774 0.0931-0.1007 0.149c-0.0234 0.0558-0.0354 0.1157-0.0354 0.1763 0 0.0605 0.012 0.1204 0.0354 0.1763 0.0233 0.0558 0.0576 0.1065 0.1007 0.149s0.0942 0.076 0.1504 0.0986c0.0561 0.0225 0.1162 0.0337 0.1768 0.0329h4.5675c0.061 8e-4 0.121-0.0104 0.177-0.0329 0.056-0.0226 0.107-0.0561 0.15-0.0986s0.078-0.0932 0.101-0.149c0.023-0.0559 0.035-0.1158 0.035-0.1763 0-0.0606-0.012-0.1205-0.035-0.1763-0.023-0.0559-0.058-0.1065-0.101-0.149s-0.094-0.076-0.15-0.0986-0.116-0.0337-0.177-0.0329h-4.5675z" fill="#505051"/>
<path d="m119.87 45.128c-1.008 0-1.933 0.3555-2.661 0.9461l3.1 2.9186v-1.7295h1.182c0.338 0 0.639 0.0833 0.906 0.2496 0.266 0.1667 0.474 0.4035 0.624 0.7106 0.149 0.3072 0.224 0.6556 0.224 1.0461v0.1934c0 0.3905-0.074 0.739-0.22 1.0428-0.118 0.2441-0.276 0.4422-0.471 0.5983l0.755 0.7106c0.496-0.6934 0.792-1.5399 0.792-2.4558 0-2.3329-1.898-4.2308-4.231-4.2308zm-3.264 1.5411c-0.604 0.7315-0.967 1.6692-0.967 2.6897 0 2.3328 1.898 4.2307 4.231 4.2307 1.112 0 2.123-0.435 2.879-1.1395l-1.059-0.9957c-0.063 0.0068-0.125 0.0128-0.191 0.0132h-1.19v-1.313l-1.208-1.1378 0.769 2.4492h-0.855l-0.23-0.8643h-1.213l-0.231 0.8643h-0.854l1.19-3.7895-1.071-1.0073zm4.495 1.2957v1.7724l0.923 0.8677c0.062-0.0466 0.12-0.0989 0.169-0.1653 0.163-0.2217 0.247-0.5378 0.25-0.9503v-0.2231c0-0.4273-0.08-0.7509-0.242-0.9709s-0.399-0.3305-0.71-0.3305h-0.39zm-2.923 0.3619-0.419 1.5725h0.838l-0.419-1.5725z" fill="#505051"/>
<path d="m140.8 45.128c-0.093 0-0.169 0.076-0.169 0.1692v5.5847h4.569c0.28 0 0.508 0.228 0.508 0.5076 0 0.2764-0.223 0.5018-0.497 0.5077-0.055 0.0304-0.18 0.2169-0.18 0.5077 0 0.3206 0.212 0.7999 0.55 0.8356h0.587c0.338-0.2796 0.555-0.702 0.555-1.174v-6.7693c0-0.0932-0.075-0.1692-0.169-0.1692h-5.754zm-0.338 6.0923c-0.467 0-0.847 0.5315-0.847 1.1846 0 0.6532 0.38 1.1846 0.847 1.1846h4.738c0.094 0 0.215-0.0152 0.302-0.0317-0.524 0-0.81-0.702-0.81-1.1529 0-0.4508 0.238-0.8461 0.508-0.8461 0.094 0 0.169-0.0754 0.169-0.1693 0-0.0938-0.075-0.1692-0.169-0.1692h-4.738z" fill="#505051"/>
<path d="m95.319 78.974c-0.0932 0-0.1692 0.076-0.1692 0.1692v5.5846h4.5692c0.2797 0 0.5079 0.2281 0.5079 0.5077 0 0.2763-0.223 0.5017-0.4973 0.5077-0.0542 0.0304-0.1798 0.2168-0.1798 0.5077 0 0.3206 0.2122 0.7999 0.5501 0.8356h0.587c0.338-0.2797 0.555-0.7021 0.555-1.1741v-6.7692c0-0.0932-0.075-0.1692-0.169-0.1692h-5.7539zm-0.3384 6.0923c-0.4667 0-0.8462 0.5315-0.8462 1.1846s0.3795 1.1846 0.8462 1.1846h4.7384c0.0939 0 0.2149-0.0152 0.3019-0.0317-0.524 0-0.8096-0.7021-0.8096-1.1529 0-0.4509 0.2374-0.8462 0.5077-0.8462 0.0939 0 0.1693-0.0753 0.1693-0.1692s-0.0754-0.1692-0.1693-0.1692h-4.7384z" fill="#505051"/>
<path d="m169.62 46.6-1.504 1.5041c0.26 0.3511 0.413 0.7848 0.413 1.2544s-0.153 0.9032-0.413 1.2544l1.504 1.504c0.639-0.7403 1.024-1.705 1.024-2.7584 0-1.0535-0.385-2.0181-1.024-2.7585zm-3.207 0.6431c0.47 0 0.903 0.1523 1.255 0.4125l1.504-1.504c-0.741-0.6389-1.705-1.0239-2.759-1.0239-1.053 0-2.018 0.385-2.758 1.0239l1.504 1.504c0.351-0.2602 0.785-0.4125 1.254-0.4125zm0 4.2308c-0.469 0-0.903-0.1523-1.254-0.4125l-1.504 1.504c0.74 0.6388 1.705 1.0238 2.758 1.0238 1.054 0 2.018-0.385 2.759-1.0238l-1.504-1.504c-0.352 0.2602-0.785 0.4125-1.255 0.4125zm-2.115-2.1154c0-0.4696 0.152-0.9033 0.412-1.2544l-1.504-1.5041c-0.639 0.7404-1.024 1.705-1.024 2.7585 0 1.0534 0.385 2.0181 1.024 2.7584l1.504-1.504c-0.26-0.3512-0.412-0.7848-0.412-1.2544z" fill="#505051"/>
<path d="m56.797 80.447-1.5041 1.504c0.2602 0.3512 0.4125 0.7848 0.4125 1.2544s-0.1523 0.9033-0.4125 1.2545l1.5041 1.504c0.6388-0.7404 1.0238-1.705 1.0238-2.7585 0-1.0534-0.385-2.018-1.0238-2.7584zm-3.2069 0.643c0.4696 0 0.9032 0.1524 1.2544 0.4125l1.504-1.504c-0.7404-0.6388-1.705-1.0238-2.7584-1.0238-1.0535 0-2.0181 0.385-2.7585 1.0238l1.504 1.504c0.3512-0.2601 0.7848-0.4125 1.2545-0.4125zm0 4.2308c-0.4697 0-0.9033-0.1523-1.2545-0.4125l-1.504 1.5041c0.7404 0.6388 1.705 1.0238 2.7585 1.0238 1.0534 0 2.018-0.385 2.7584-1.0238l-1.504-1.5041c-0.3512 0.2602-0.7848 0.4125-1.2544 0.4125zm-2.1154-2.1154c0-0.4696 0.1523-0.9032 0.4125-1.2544l-1.5041-1.504c-0.6388 0.7404-1.0238 1.705-1.0238 2.7584 0 1.0535 0.385 2.0181 1.0238 2.7585l1.5041-1.504c-0.2602-0.3512-0.4125-0.7849-0.4125-1.2545z" fill="#505051"/>
<path d="m190.38 45.128c-2.333 0-4.231 1.8979-4.231 4.2308 0 2.3328 1.898 4.2307 4.231 4.2307 2.332 0 4.23-1.8979 4.23-4.2307 0-2.3329-1.898-4.2308-4.23-4.2308zm0.317 6.2404c0 0.1751-0.142 0.3173-0.317 0.3173-0.176 0-0.318-0.1422-0.318-0.3173v-2.3269c0-0.1752 0.142-0.3173 0.318-0.3173 0.175 0 0.317 0.1421 0.317 0.3173v2.3269zm-0.317-3.2789c-0.234 0-0.423-0.1893-0.423-0.423 0-0.2338 0.189-0.4231 0.423-0.4231 0.233 0 0.423 0.1893 0.423 0.4231 0 0.2337-0.19 0.423-0.423 0.423z" fill="#292929"/>
<path d="m75.449 78.974c-2.3329 0-4.2308 1.8979-4.2308 4.2307 0 2.3329 1.8979 4.2308 4.2308 4.2308 2.3328 0 4.2308-1.8979 4.2308-4.2308 0-2.3328-1.898-4.2307-4.2308-4.2307zm0.3173 6.2403c0 0.1752-0.1422 0.3174-0.3173 0.3174-0.1752 0-0.3173-0.1422-0.3173-0.3174v-2.3269c0-0.1751 0.1421-0.3173 0.3173-0.3173 0.1751 0 0.3173 0.1422 0.3173 0.3173v2.3269zm-0.3173-3.2788c-0.2338 0-0.4231-0.1893-0.4231-0.4231 0-0.2337 0.1893-0.4231 0.4231-0.4231 0.2337 0 0.4231 0.1894 0.4231 0.4231 0 0.2338-0.1894 0.4231-0.4231 0.4231z" fill="#505051"/>
<path d="m19.346 62.055c-0.0983 0.0174-0.164 0.094-0.1965 0.1561l-1.295 2.5667c-0.1662-0.2225-0.4234-0.3699-0.7226-0.3699-0.375 0-0.6879 0.2319-0.8324 0.5549-0.1128 0-0.2154 0.0289-0.318 0.0578-0.1344-0.1394-0.3064-0.2428-0.5145-0.2428-0.0932 0-0.1748 0.0326-0.2543 0.0636-0.0947-0.0332-0.193-0.0636-0.3006-0.0636-0.4553 0-0.8152 0.3404-0.8903 0.7747-0.4343 0.0751-0.7746 0.435-0.7746 0.8902h-0.37c-0.1019 0-0.185 0.0824-0.185 0.185v0.6706c0 1.8326 1.9684 3.2142 3.2431 3.2142h2.0233c1.2747 0 3.2431-1.3816 3.2431-3.2142v-0.6706c0-0.1026-0.0824-0.185-0.185-0.185h-0.2139c-0.0556-0.1828-0.1879-0.3302-0.3526-0.4277-0.0282-0.3447-0.2905-0.6179-0.6301-0.6649-0.0528-0.1242-0.1294-0.2326-0.2255-0.3237l1.2718-1.7921c0.0643-0.0925 0.1033-0.2579-0.1041-0.4046-0.2066-0.1467-0.3497-0.0253-0.4104 0.0693l-1.1967 1.8962c-0.0563-0.0116-0.1134-0.0174-0.1734-0.0174-0.2449 0-0.4545 0.1106-0.6185 0.266-0.0376-0.0145-0.0774-0.0268-0.1157-0.0405l1.4453-2.5089c0.0556-0.0983 0.0809-0.2667-0.1388-0.3931-0.0823-0.0477-0.1496-0.0571-0.2081-0.0463zm-2.2141 2.7228c0.2688 0 0.4907 0.1886 0.5434 0.4394l0.0405 0.1965 0.1908-0.0578c0.0542-0.0151 0.1026-0.0231 0.1503-0.0231 0.0939 0 0.1842 0.0246 0.2659 0.0694l0.133 0.0751 0.0982-0.1214c0.1034-0.1271 0.2529-0.2081 0.4278-0.2081 0.2609 0 0.4762 0.1756 0.5376 0.4162l0.0347 0.1503 0.1503-0.0115c0.0354-0.0015 0.0405 0 0.0174 0 0.2066 0 0.37 0.1633 0.37 0.37 0-0.0174-0.0037-0.0087-0.0058 0.0231l-0.0058 0.1387 0.133 0.0463c0.0838 0.0289 0.1524 0.0881 0.1965 0.1618h-3.0928c0-0.1018-0.0831-0.1849-0.185-0.1849s-0.185 0.0831-0.185 0.1849h-3.3298c0-0.3085 0.2464-0.5549 0.555-0.5549h0.185v-0.185c0-0.3086 0.2464-0.555 0.555-0.555 0.0794 0 0.1553 0.0152 0.2254 0.0463l0.0809 0.0404 0.081-0.0404c0.0549-0.0282 0.1084-0.0463 0.1676-0.0463 0.1315 0 0.2457 0.0651 0.3122 0.1677l0.0809 0.1271 0.1388-0.052c0.0939-0.0361 0.1951-0.0578 0.3006-0.0578 0.031 0 0.06 0.0022 0.0925 0.0058l0.1618 0.0173 0.0405-0.1561c0.06-0.242 0.276-0.422 0.5376-0.422zm-2.0349 0.74c-0.1018 0-0.1849 0.0831-0.1849 0.185s0.0831 0.185 0.1849 0.185c0.1019 0 0.185-0.0831 0.185-0.185s-0.0831-0.185-0.185-0.185zm0.555 0.37c-0.1019 0-0.185 0.0831-0.185 0.185s0.0831 0.185 0.185 0.185 0.185-0.0831 0.185-0.185-0.0831-0.185-0.185-0.185zm2.7749 0c-0.1019 0-0.185 0.0831-0.185 0.185s0.0831 0.185 0.185 0.185c0.1018 0 0.1849-0.0831 0.1849-0.185s-0.0831-0.185-0.1849-0.185z" fill="#1B1B1B"/>
<path d="m46.012 62.051c-0.1347 0-0.2695 0.0509-0.3721 0.1534l-4.002 4.0025-0.1771 0.9213 0.9213-0.1771 4.002-4.002c0.0994-0.0994 0.1544-0.2316 0.1544-0.3721s-0.055-0.273-0.1544-0.3726c-0.1026-0.1025-0.2374-0.1534-0.3721-0.1534zm-6.6058 0.2413c-0.7286 0-1.3297 0.601-1.3297 1.3297v5.5608c0 0.7286 0.6011 1.3297 1.3297 1.3297h5.5608c0.7287 0 1.3297-0.6011 1.3297-1.3297v-3.9893c9e-4 -0.064-0.0109-0.1277-0.0348-0.1871-0.0239-0.0595-0.0593-0.1136-0.1043-0.1592-0.045-0.0457-0.0986-0.0819-0.1578-0.1066-0.0591-0.0248-0.1225-0.0375-0.1866-0.0375s-0.1275 0.0127-0.1866 0.0375c-0.0592 0.0247-0.1128 0.0609-0.1578 0.1066-0.045 0.0456-0.0804 0.0997-0.1043 0.1592-0.0239 0.0594-0.0358 0.1231-0.0348 0.1871v3.9893c0 0.206-0.1567 0.3626-0.3627 0.3626h-5.5608c-0.206 0-0.3626-0.1566-0.3626-0.3626v-5.5608c0-0.206 0.1566-0.3626 0.3626-0.3626h3.9893c0.0641 9e-4 0.1277-0.011 0.1871-0.0349 0.0595-0.0239 0.1136-0.0593 0.1592-0.1043 0.0457-0.045 0.0819-0.0986 0.1066-0.1577 0.0248-0.0592 0.0375-0.1226 0.0375-0.1867s-0.0127-0.1275-0.0375-0.1866c-0.0247-0.0591-0.0609-0.1128-0.1066-0.1577-0.0456-0.045-0.0997-0.0805-0.1592-0.1044-0.0594-0.0239-0.123-0.0357-0.1871-0.0348h-3.9893z" fill="#292929"/>
<path d="m170.12 78.974c-0.135 0-0.27 0.0509-0.372 0.1534l-4.002 4.0025-0.177 0.9213 0.921-0.1771 4.002-4.002c0.099-0.0994 0.154-0.2316 0.154-0.3721s-0.055-0.273-0.154-0.3726c-0.103-0.1025-0.237-0.1534-0.372-0.1534zm-6.606 0.2413c-0.728 0-1.33 0.601-1.33 1.3297v5.5608c0 0.7286 0.602 1.3297 1.33 1.3297h5.561c0.729 0 1.33-0.6011 1.33-1.3297v-3.9893c1e-3 -0.064-0.011-0.1277-0.035-0.1871-0.024-0.0595-0.06-0.1136-0.105-0.1592-0.044-0.0457-0.098-0.0819-0.157-0.1066-0.059-0.0248-0.123-0.0375-0.187-0.0375s-0.127 0.0127-0.187 0.0375c-0.059 0.0247-0.112 0.0609-0.157 0.1066-0.045 0.0456-0.081 0.0997-0.105 0.1592-0.023 0.0594-0.035 0.1231-0.034 0.1871v3.9893c0 0.206-0.157 0.3626-0.363 0.3626h-5.561c-0.206 0-0.362-0.1566-0.362-0.3626v-5.5608c0-0.206 0.156-0.3626 0.362-0.3626h3.989c0.064 9e-4 0.128-0.011 0.188-0.0349 0.059-0.0239 0.113-0.0593 0.159-0.1043 0.045-0.045 0.082-0.0986 0.106-0.1578 0.025-0.0591 0.038-0.1225 0.038-0.1866s-0.013-0.1275-0.038-0.1866c-0.024-0.0591-0.061-0.1128-0.106-0.1578-0.046-0.0449-0.1-0.0804-0.159-0.1043-0.06-0.0239-0.124-0.0357-0.188-0.0348h-3.989z" fill="#505051"/>
<path d="m89.593 62.051c-0.2242 0-0.4484 0.0848-0.618 0.2544l-0.3342 0.3342c-0.0647 0.0646-0.0719 0.1674-0.0166 0.2407l-0.3909 0.391c-0.2796 0.2802-0.5462 0.4915-0.802 0.6583l1.2993 1.2993c0.1667-0.2558 0.378-0.5217 0.6583-0.802l0.391-0.391c0.0733 0.0554 0.176 0.0482 0.2407-0.0165l0.3342-0.3342c0.3399-0.3399 0.3399-0.8962 0-1.2361l-0.1437-0.1437c-0.1704-0.1696-0.3939-0.2551-0.6181-0.2544zm0 0.3651c0.1294 7e-4 0.2587 0.0503 0.3586 0.1494l0.143 0.1438c0.1991 0.199 0.1991 0.5167 0 0.7158l-0.2041 0.2041-0.8595-0.8596 0.2034-0.2041c0.0999-0.0991 0.2292-0.1494 0.3586-0.1494zm-3.2139 0.0014c-0.1013 0-0.1839 0.0826-0.1839 0.184 0 0.1013 0.0826 0.1839 0.1839 0.1839 0.1014 0 0.184-0.0826 0.184-0.1839 0-0.1014-0.0826-0.184-0.184-0.184zm1.1039 0.5519c-0.1013 0-0.184 0.0827-0.184 0.184s0.0827 0.184 0.184 0.184 0.184-0.0827 0.184-0.184-0.0827-0.184-0.184-0.184zm-0.3787 1.1542c-0.2228 0.1186-0.4391 0.2091-0.6504 0.2875l0.4484 1.3467 1.3461 0.4506c0.0783-0.2127 0.1689-0.429 0.2882-0.6525l-1.4323-1.4323zm-0.9982 0.4082c-0.0338 0.0115-0.0683 0.023-0.1021 0.0338-0.6295 0.2091-1.2799 0.4247-1.9483 1.0931l-1.6881 1.6874c-0.2932 0.2932-0.2932 0.7704 0 1.0636l1.8829 1.8822c0.1466 0.1473 0.3392 0.2206 0.5318 0.2206s0.3852-0.0733 0.5318-0.2206l1.6874-1.6874c0.6691-0.6684 0.884-1.3188 1.0931-1.9483 0.0108-0.0331 0.0216-0.0669 0.0331-0.0999l-1.4295-0.4787c-0.0546-0.0179-0.0977-0.061-0.1157-0.1157l-0.4764-1.4301zm3.7686 0.4614c-0.1013 0-0.184 0.0826-0.184 0.184 0 0.1013 0.0827 0.1839 0.184 0.1839 0.1014 0 0.184-0.0826 0.184-0.1839 0-0.1014-0.0826-0.184-0.184-0.184zm0.552 0.7359c-0.1014 0-0.184 0.0826-0.184 0.184 0 0.1013 0.0826 0.1839 0.184 0.1839 0.1013 0 0.1839-0.0826 0.1839-0.1839 0-0.1014-0.0826-0.184-0.1839-0.184zm-0.9199 0.3679c-0.1014 0-0.184 0.0827-0.184 0.184 0 0.1014 0.0826 0.184 0.184 0.184 0.1013 0 0.1839-0.0826 0.1839-0.184 0-0.1013-0.0826-0.184-0.1839-0.184zm-3.4956 0.184c0.2034 0 0.3679 0.1646 0.3679 0.368s-0.1645 0.3679-0.3679 0.3679-0.368-0.1645-0.368-0.3679 0.1646-0.368 0.368-0.368zm-1.4129 0.2889 1.4919 1.492-1.1592 1.1592-1.4912-1.492 1.1585-1.1592z" fill="#fff"/>
<path d="m189.61 78.974v0.9288c-1.095 0.2821-1.904 1.2732-1.904 2.4558v2.5384l-0.846 0.8462v0.4231h6.769v-0.4231l-0.846-0.8462v-2.5384c0-1.1826-0.809-2.1737-1.904-2.4558v-0.9288h-1.269zm-0.212 7.6153c0 0.4654 0.381 0.8462 0.847 0.8462 0.465 0 0.846-0.3808 0.846-0.8462h-1.693z" fill="#292929"/>
<path d="m105.7 62.051c-0.739 0-1.341 0.6018-1.341 1.3414v6.1914c0 0.1162 0.065 0.2229 0.168 0.2757 0.104 0.0528 0.228 0.0435 0.322-0.0246l1.994-1.4358c-3e-3 -0.0522-8e-3 -0.1037-8e-3 -0.1568 0-0.2288 0.033-0.4499 0.087-0.6622l-1.944 1.3995v-5.5872c0-0.3983 0.324-0.7223 0.722-0.7223h3.096c0.398 0 0.722 0.324 0.722 0.7223v2.167c0.214 0 0.42 0.0277 0.619 0.075v-2.242c0-0.7396-0.601-1.3414-1.341-1.3414h-3.096zm3.818 3.9212c-1.253 0-2.27 1.0164-2.27 2.2701 0 1.2538 1.017 2.2702 2.27 2.2702 1.254 0 2.271-1.0164 2.271-2.2702 0-1.2537-1.017-2.2701-2.271-2.2701zm0 0.8255c0.099 0 0.188 0.0631 0.22 0.1568l0.23 0.6687h0.763c0.1 0 0.188 0.0637 0.22 0.158 0.032 0.0945 0 0.1989-0.08 0.2592l-0.618 0.4688 0.209 0.6699c0.031 0.0962-5e-3 0.2006-0.087 0.2588-0.04 0.0285-0.087 0.0427-0.134 0.0427-0.049 0-0.098-0.0154-0.139-0.0463l-0.584-0.4366-0.583 0.4366c-0.08 0.0604-0.191 0.0622-0.273 4e-3s-0.118-0.163-0.088-0.2592l0.21-0.6695-0.618-0.4692c-0.08-0.0603-0.112-0.1643-0.08-0.2588s0.12-0.1584 0.22-0.1584h0.763l0.23-0.6687c0.032-0.0937 0.12-0.1568 0.219-0.1568z" fill="#505051"/>
<path d="m131.35 62.051c-2.44 0-4.424 1.7249-4.424 3.8449 0 1.1915 0.644 2.3237 1.728 3.0491-0.024 0.1995-0.125 0.6988-0.538 1.2849-0.038 0.0546-0.043 0.126-0.012 0.1854 0.03 0.0594 0.092 0.0968 0.158 0.0972h0.012c1.051-2e-4 1.758-0.6496 1.983-0.8896 0.356 0.0782 0.723 0.1179 1.093 0.1179 2.439 0 4.423-1.7247 4.423-3.8449s-1.984-3.8449-4.423-3.8449zm-2.122 2.4944h4.244c0.106 0 0.193 0.0863 0.193 0.193s-0.087 0.1929-0.193 0.1929h-4.244c-0.107 0-0.193-0.0862-0.193-0.1929s0.086-0.193 0.193-0.193zm-0.772 1.5434c-0.107 0-0.193-0.0862-0.193-0.1929s0.086-0.1929 0.193-0.1929h3.28c0.106 0 0.193 0.0862 0.193 0.1929s-0.087 0.1929-0.193 0.1929h-3.28zm5.016 1.1575h-4.244c-0.107 0-0.193-0.0862-0.193-0.1929s0.086-0.1929 0.193-0.1929h4.244c0.106 0 0.193 0.0862 0.193 0.1929s-0.087 0.1929-0.193 0.1929zm0.772-1.1575h-1.351c-0.106 0-0.193-0.0862-0.193-0.1929s0.087-0.1929 0.193-0.1929h1.351c0.106 0 0.193 0.0862 0.193 0.1929s-0.087 0.1929-0.193 0.1929z" fill="#505051"/>
<path d="m156.62 62.051c-0.402-0.0042-0.811 0.1175-1.166 0.3847-0.065 0.0485-0.062 0.1457 5e-3 0.1907 0.333 0.2242 0.597 0.561 0.726 0.9659 0.01 0.0302 0.032 0.0548 0.06 0.0685 0.918 0.4422 0.933-0.0615 1.632-0.0919 0.15-0.0064 0.298 0.017 0.441 0.064 0.087 0.0287 0.172-0.0525 0.149-0.1417-0.232-0.8953-1.024-1.4317-1.847-1.4402zm-2.182 0.5462c-0.671 0-1.243 0.4276-1.459 1.0244-0.025 0.0683 0.024 0.1404 0.096 0.1435 0.31 0.0132 0.496-0.0965 0.848-0.1107 0.485-0.0196 0.71 0.1547 1.029 0.2188 0.295 0.0597 0.602 0.0109 0.888-0.087 0.056-0.0192 0.086-0.0795 0.067-0.1354-0.208-0.6119-0.788-1.0536-1.469-1.0536zm3.49 1.2528c-0.013 0-0.026 2e-4 -0.039 8e-4 -0.424 0.0181-0.812 0.4404-1.463 0.2094-0.072-0.0256-0.154 0.0232-0.155 0.1124-1e-3 0.0644 0.052 0.1173 0.116 0.1177 1.363 0.0075 1.739-0.0115 1.929 0.0039 0.184 0.0149 0.274-0.2191 0.148-0.2897-0.167-0.0932-0.346-0.1544-0.536-0.1545zm-3.915 0.0851c-0.121-1e-3 -0.261 0.0137-0.432 0.0525-0.205 0.0462-0.38 0.0724-0.58 0.0552-0.061-0.0053-0.114 0.0433-0.114 0.1046v0.0415c2e-3 0.0587 0.051 0.1046 0.11 0.1023 0.162-0.0061 0.64 0.0014 2.885-0.0015 0.058-1e-4 0.105-0.0456 0.107-0.1029 2e-3 -0.0789-0.07-0.1284-0.139-0.1074-0.311 0.096-0.637 0.134-0.954 0.0704-0.329-0.0667-0.519-0.2117-0.883-0.2147zm-0.969 0.6365c-0.293 0-0.55 0.1976-0.624 0.4804-0.261 0.9944-0.046 2.0369 0.59 2.8606 1.327 1.7199 3.922 1.7205 5.249 5e-4 0.636-0.8236 0.851-1.8665 0.591-2.8611-0.074-0.2828-0.331-0.4804-0.625-0.4804h-5.181zm0.441 1.6014c0.066 0.0024 0.123 0.0505 0.134 0.1176 0.06 0.3556 0.209 0.6958 0.433 0.9838 0.072 0.0936 3e-3 0.2274-0.112 0.2274-0.042 0-0.084-0.0188-0.111-0.0546-0.252-0.3247-0.42-0.7085-0.488-1.1099-0.013-0.0767 0.039-0.1495 0.116-0.1624 9e-3 -0.0016 0.019-0.0022 0.028-0.0019zm0.925 1.5002c0.027 0.0011 0.054 0.01 0.078 0.0273 0.01 0.0074 0.02 0.0148 0.03 0.022 0.064 0.045 0.079 0.1331 0.034 0.1966-0.045 0.0631-0.132 0.079-0.197 0.0335-0.011-0.0081-0.023-0.0164-0.034-0.0249-0.063-0.0462-0.076-0.1343-0.03-0.197 0.029-0.0393 0.074-0.0593 0.119-0.0575zm0.605 1.7609c-0.056 7e-4 -0.108 0.0359-0.129 0.0902-0.098 0.257-0.242 0.4955-0.427 0.7061h-0.497c-0.081 0-0.146 0.0682-0.141 0.1503 5e-3 0.075 0.071 0.1317 0.146 0.1317h3.34c0.075 0 0.14-0.0567 0.145-0.1317 5e-3 -0.0821-0.06-0.1503-0.141-0.1503h-0.5c-0.186-0.2106-0.33-0.4491-0.428-0.7062-0.023-0.062-0.088-0.099-0.153-0.0882-0.395 0.0652-0.802 0.0641-1.19 0-9e-3 -0.0014-0.017-2e-3 -0.025-0.0019z" fill="#505051"/>
<path d="m178.66 62.051c-0.738 0-1.336 0.5981-1.336 1.336v2.6721c0 0.7379 0.598 1.336 1.336 1.336s1.336-0.5981 1.336-1.336v-2.6721c0-0.7379-0.598-1.336-1.336-1.336zm-2.633 4.0081c-0.27 0-0.487 0.2394-0.443 0.5062 0.218 1.3359 1.286 2.3836 2.631 2.5764v0.9255c0 0.2458 0.199 0.4453 0.445 0.4453s0.445-0.1995 0.445-0.4453v-0.9255c1.345-0.1928 2.413-1.2405 2.632-2.5764 0.043-0.2668-0.174-0.5062-0.444-0.5062-0.22 0-0.401 0.1619-0.438 0.3792-0.181 1.0488-1.095 1.8475-2.195 1.8475s-2.014-0.7987-2.195-1.8475c-0.036-0.2173-0.217-0.3792-0.438-0.3792z" fill="#292929"/>
<path d="m201.06 62.051c-0.427 0-0.837 0.1698-1.139 0.472-0.303 0.3023-0.473 0.7122-0.473 1.1397 0 0.4274 0.17 0.8374 0.473 1.1397 0.302 0.3022 0.712 0.472 1.139 0.472 0.428 0 0.838-0.1698 1.14-0.472 0.302-0.3023 0.472-0.7123 0.472-1.1397 0-0.4275-0.17-0.8374-0.472-1.1397-0.302-0.3022-0.712-0.472-1.14-0.472zm0 4.4322c-1.265 0-3.626 0.6229-3.626 1.8132v0.6044c0 0.2224 0.18 0.4029 0.403 0.4029h3.447c0.159 0 0.312-0.0634 0.425-0.1763l1.793-1.7935c0.106-0.1059 0.077-0.2894-0.06-0.3486-0.766-0.3316-1.721-0.5021-2.382-0.5021zm4.113 0.4029c-0.052 0-0.103 0.0198-0.143 0.0591l-0.402 0.4029 0.805 0.8058 0.403-0.4029c0.079-0.0786 0.079-0.2063 0-0.2849l-0.521-0.5209c-0.039-0.0393-0.091-0.0591-0.142-0.0591zm-0.83 0.7469-2.074 2.0736v0.8059h0.806l2.073-2.0737-0.805-0.8058z" fill="#1B1B1B"/>
<path d="m19.632 95.897c-1.8112 0-4.2744 0.4719-4.2769 0.4723h-9e-4c-0.5291 0.1083-0.9424 0.5298-1.042 1.0621l-0.0017 0.0017-0.8759 4.7785 8e-4 1e-3c-0.0244 0.118-0.0382 0.24-0.0382 0.365 0 0.983 0.7976 1.781 1.7813 1.781 0.5284 0 0.9977-0.235 1.3239-0.6l0.0061 3e-3 0.6741-0.739h4.8988l0.6741 0.739 0.0061-3e-3c0.3262 0.365 0.7955 0.6 1.3238 0.6 0.9838 0 1.7814-0.798 1.7814-1.781 0-0.125-0.0138-0.247-0.0383-0.365l9e-4 -1e-3 -0.8759-4.7785-0.0017-0.0017c-0.0997-0.5326-0.5134-0.9541-1.043-1.0621h-8e-4c-0.0021-4e-4 -2.4648-0.4723-4.276-0.4723zm-3.1174 2.6721c0.2458 0 0.4453 0.1995 0.4453 0.4453v0.4454h0.4454c0.2458 0 0.4453 0.1995 0.4453 0.4453 0 0.2455-0.1995 0.4455-0.4453 0.4455h-0.4454v0.445c0 0.246-0.1995 0.446-0.4453 0.446-0.2459 0-0.4454-0.2-0.4454-0.446v-0.445h-0.4453c-0.2458 0-0.4454-0.2-0.4454-0.4455 0-0.2458 0.1996-0.4453 0.4454-0.4453h0.4453v-0.4454c0-0.2458 0.1995-0.4453 0.4454-0.4453zm6.2348 0c0.2458 0 0.4453 0.1995 0.4453 0.4453 0 0.2459-0.1995 0.4454-0.4453 0.4454s-0.4454-0.1995-0.4454-0.4454c0-0.2458 0.1996-0.4453 0.4454-0.4453zm-0.8907 0.8907c0.2458 0 0.4453 0.1995 0.4453 0.4453 0 0.2455-0.1995 0.4455-0.4453 0.4455s-0.4453-0.2-0.4453-0.4455c0-0.2458 0.1995-0.4453 0.4453-0.4453zm1.7814 0c0.2458 0 0.4453 0.1995 0.4453 0.4453 0 0.2455-0.1995 0.4455-0.4453 0.4455-0.2459 0-0.4454-0.2-0.4454-0.4455 0-0.2458 0.1995-0.4453 0.4454-0.4453zm-0.8907 0.8908c0.2458 0 0.4453 0.199 0.4453 0.445s-0.1995 0.446-0.4453 0.446-0.4454-0.2-0.4454-0.446 0.1996-0.445 0.4454-0.445z" fill="#1B1B1B"/>
<path d="m43.011 95.897c-2.332 0-4.229 1.8972-4.229 4.2286v1.821l2e-4 1e-3v0.473c0 0.468 0.1833 0.912 0.511 1.244l0.4864 0.49 0.7048 0.204h0.0106c0.5815 0 1.0572-0.476 1.0572-1.057v-2.08c0-0.581-0.4757-1.057-1.0572-1.057h-0.0106l-0.7048 0.208-0.2928 0.294v-0.541c0-1.9428 1.5811-3.5237 3.5242-3.5237s3.5242 1.5809 3.5242 3.5237v0.541l-0.2925-0.294-0.7049-0.208h-0.0105c-0.5815 0-1.0573 0.476-1.0573 1.057v2.08c0 0.581 0.4758 1.057 1.0573 1.057h0.0105l0.7049-0.204 0.4863-0.49c0.3278-0.332 0.511-0.776 0.511-1.244v-2.295c0-2.3314-1.897-4.2286-4.229-4.2286z" fill="#292929"/>
<path d="m65.083 104.36-0.1527-0.126c-0.2397-0.199-0.5618-0.418-0.9336-0.672-1.4767-1.007-3.7082-2.53-3.7082-4.9582 0-1.4918 1.222-2.7054 2.724-2.7054 0.8035 0 1.5554 0.3493 2.0705 0.9486 0.515-0.5993 1.2679-0.9486 2.0704-0.9486 1.502 0 2.7241 1.2136 2.7241 2.7054 0 2.4282-2.2315 3.9512-3.7083 4.9582-0.3727 0.254-0.6939 0.473-0.9336 0.672l-0.1526 0.126z" fill="#fff"/>
<path d="m87.083 95.897c-2.3345 0-4.2308 1.8963-4.2308 4.2306 0 2.335 1.8963 4.231 4.2308 4.231s4.2308-1.896 4.2308-4.231c0-2.3343-1.8963-4.2306-4.2308-4.2306zm0 0.3679c2.1355 0 3.8629 1.7274 3.8629 3.8627 0 2.136-1.7274 3.863-3.8629 3.863s-3.8629-1.727-3.8629-3.863c0-2.1353 1.7274-3.8627 3.8629-3.8627zm-0.0144 0.5519c-0.8112 0-1.5922 0.2931-2.2037 0.8277l-0.1926 0.1761c-0.1035 0.0991-0.1624 0.2335-0.1645 0.3786-0.0029 0.1624 0.0639 0.3212 0.1875 0.4477l3.781 3.8577c0.1279 0.131 0.2931 0.198 0.4534 0.198 0.1372 0 0.2708-0.049 0.375-0.149l0.2091-0.204c0.5677-0.611 0.8802-1.405 0.8802-2.236 0-1.8181-1.4916-3.2968-3.3254-3.2968zm0.3823 0.9197c0.1013 0 0.1839 0.0826 0.1839 0.1839 0 0.1014-0.0826 0.184-0.1839 0.184s-0.1839-0.0826-0.1839-0.184c0-0.1013 0.0826-0.1839 0.1839-0.1839zm0.5518 0.3679c0.1014 0 0.184 0.0826 0.184 0.1839s-0.0826 0.184-0.184 0.184c-0.1013 0-0.1839-0.0827-0.1839-0.184s0.0826-0.1839 0.1839-0.1839zm-0.5518 0.3679c0.1013 0 0.1839 0.0826 0.1839 0.1839s-0.0826 0.184-0.1839 0.184-0.1839-0.0827-0.1839-0.184 0.0826-0.1839 0.1839-0.1839zm-3.0983 0.3334c-0.0022 0.0014-0.0051 0.0029-8e-3 5e-3 -0.1322 0.0999-0.2047 0.2407-0.2047 0.3974 0 0.2342 0.0654 0.3276 0.1386 0.4095 0.0302 0.0338 0.0453 0.0511 0.0453 0.1653 0 0.0273-0.0668 0.0819-0.1164 0.1214-0.1056 0.0863-0.2515 0.2053-0.2515 0.4073 0 0.109 0.0331 0.196 0.0992 0.262 0.1128 0.113 0.2694 0.113 0.4131 0.111 0.0669-1e-3 0.1825-1e-3 0.207 0.024 0.0057 5e-3 0.0165 0.031 0.0165 0.086 0 0.067-0.0216 0.091-0.1157 0.167-0.1006 0.082-0.2522 0.205-0.2522 0.454 0 0.325 0.2436 0.447 0.3887 0.52 0.1481 0.074 0.1632 0.094 0.1632 0.147 0 0.216 0.0833 0.567 0.6114 0.615-0.0373-0.097-0.0596-0.201-0.0596-0.31 0-0.185 0.0611-0.364 0.171-0.512-0.1099-0.148-0.171-0.327-0.171-0.513 0-0.189 0.0632-0.364 0.1667-0.507-0.0438-0.028-0.0855-0.06-0.1229-0.097-0.2486-0.249-0.286-0.626-0.1193-0.9168l-0.919-0.9377c-0.0301-0.0309-0.0546-0.0654-0.0804-0.0984zm1.2761 1.3189c-0.0316 0.13 7e-4 0.273 0.1027 0.374 0.0475 0.047 0.1071 0.078 0.1718 0.095 0.0424-0.022 0.0869-0.039 0.1322-0.054l-0.4067-0.415zm2.9259 0.371c0.1013 0 0.1839 0.083 0.1839 0.184s-0.0826 0.184-0.1839 0.184-0.184-0.083-0.184-0.184 0.0827-0.184 0.184-0.184zm-2.2598 0.368c-0.2752 0-0.4994 0.224-0.4994 0.499 0 0.144 0.0618 0.276 0.1732 0.374 0.0402 0.035 0.0625 0.086 0.0625 0.139s-0.0223 0.103-0.0625 0.138c-0.1114 0.098-0.1732 0.23-0.1732 0.374 0 0.275 0.2242 0.499 0.4994 0.499 0.1437 0 0.2759-0.061 0.3736-0.173 0.0704-0.08 0.2069-0.08 0.2774 0 0.0977 0.112 0.2299 0.173 0.3736 0.173 0.2752 0 0.4994-0.224 0.4994-0.499 0-0.011-0.0029-0.022-0.0036-0.032l-1.455-1.486c-0.0216-2e-3 -0.0432-6e-3 -0.0654-6e-3zm2.8116 0c0.1013 0 0.184 0.083 0.184 0.184s-0.0827 0.184-0.184 0.184-0.1839-0.083-0.1839-0.184 0.0826-0.184 0.1839-0.184zm-0.5518 0.184c0.1013 0 0.1839 0.083 0.1839 0.184s-0.0826 0.184-0.1839 0.184-0.184-0.083-0.184-0.184 0.0827-0.184 0.184-0.184zm-0.4225 1.632c-0.0532 0.148-0.1444 0.276-0.2637 0.374 0.0711 0.012 0.1444 0.017 0.2263 0.017 0.1725 0 0.3119-0.038 0.4247-0.094-0.1128-0.052-0.217-0.124-0.3061-0.215l-0.0812-0.082z" fill="#505051"/>
<path d="m106.33 95.897c-0.403 0-0.749 0.2434-0.901 0.5904h6.017c0.76 0 1.377 0.6179 1.377 1.3774v4.0488c0.347-0.152 0.591-0.498 0.591-0.9v-4.1327c0-0.5425-0.442-0.9839-0.984-0.9839h-6.1zm-0.984 0.9839c-0.543 0-0.984 0.4414-0.984 0.9839v4.1328c0 0.542 0.441 0.984 0.984 0.984h0.784c-0.018 0.495-0.118 0.787-0.492 1.011-0.076 0.046-0.112 0.137-0.089 0.222 0.024 0.085 0.102 0.144 0.19 0.144 0.578 0 1.6-0.183 2.102-1.377h3.605c0.542 0 0.984-0.442 0.984-0.984v-4.1328c0-0.5425-0.442-0.9839-0.984-0.9839h-6.1z" fill="#505051"/>
<path d="m106.33 95.897c-0.403 0-0.749 0.2434-0.901 0.5904h6.017c0.76 0 1.377 0.6179 1.377 1.3774v4.0488c0.347-0.152 0.591-0.498 0.591-0.9v-4.1327c0-0.5425-0.442-0.9839-0.984-0.9839h-6.1zm-0.984 0.9839c-0.543 0-0.984 0.4414-0.984 0.9839v4.1328c0 0.542 0.441 0.984 0.984 0.984h0.784c-0.018 0.495-0.118 0.787-0.492 1.011-0.076 0.046-0.112 0.137-0.089 0.222 0.024 0.085 0.102 0.144 0.19 0.144 0.578 0 1.6-0.183 2.102-1.377h3.605c0.542 0 0.984-0.442 0.984-0.984v-4.1328c0-0.5425-0.442-0.9839-0.984-0.9839h-6.1z" fill="#505051"/>
<path d="m130.9 95.897c-0.32 0-0.613 0.1809-0.757 0.4677l-0.167 0.3339c-0.143 0.2864-0.436 0.4677-0.756 0.4677h-1.804c-0.468 0-0.846 0.3786-0.846 0.8461v5.5002c0 0.467 0.378 0.846 0.846 0.846h9.307c0.468 0 0.847-0.379 0.847-0.846v-5.5002c0-0.4675-0.379-0.8461-0.847-0.8461h-1.803c-0.321 0-0.614-0.1809-0.757-0.4677l-0.167-0.3339c-0.144-0.2864-0.437-0.4677-0.757-0.4677h-2.339zm-2.638 0.4231c-0.234 0-0.423 0.1895-0.423 0.4231h1.269c0-0.2336-0.19-0.4231-0.423-0.4231h-0.423zm3.808 1.2692c1.633 0 2.961 1.3285 2.961 2.9613 0 1.633-1.328 2.962-2.961 2.962-1.634 0-2.962-1.329-2.962-2.962 0-1.6328 1.328-2.9613 2.962-2.9613zm3.807 0.4231c0.234 0 0.423 0.1896 0.423 0.4231s-0.189 0.4231-0.423 0.4231c-0.233 0-0.423-0.1896-0.423-0.4231s0.19-0.4231 0.423-0.4231zm-3.807 0.4231c-0.561 0-1.1 0.2229-1.496 0.6196-0.397 0.3967-0.62 0.9347-0.62 1.4955 0 0.561 0.223 1.099 0.62 1.496 0.396 0.397 0.935 0.62 1.496 0.62s1.099-0.223 1.495-0.62c0.397-0.397 0.62-0.935 0.62-1.496 0-0.5608-0.223-1.0988-0.62-1.4955-0.396-0.3967-0.934-0.6196-1.495-0.6196z" fill="#505051"/>
<path d="m151.8 95.897c-0.501 0-0.907 0.4059-0.907 0.9066v6.648c0 0.501 0.406 0.907 0.907 0.907h9.066c0.501 0 0.907-0.406 0.907-0.907v-6.648c0-0.5007-0.406-0.9066-0.907-0.9066h-9.066zm0 0.3022h9.066c0.334 0 0.604 0.2705 0.604 0.6044v5.77l-2.577-2.318c-0.403-0.3623-1.015-0.3618-1.417 1e-3l-2.094 1.893-1.003-0.857c-0.397-0.34-0.982-0.339-1.378 2e-3l-1.805 1.555v-6.046c0-0.3339 0.27-0.6044 0.604-0.6044zm1.813 1.511c-0.501 0-0.906 0.4059-0.906 0.9066 0 0.5008 0.405 0.9066 0.906 0.9066s0.907-0.4058 0.907-0.9066c0-0.5007-0.406-0.9066-0.907-0.9066z" fill="#505051"/>
<path d="m179.14 95.897c-0.425 0-0.77 0.3443-0.77 0.7693h-3.076c-0.425 0-0.77 0.3442-0.77 0.7692v3.4611c0 0.425 0.345 0.77 0.77 0.77h8.461c0.425 0 0.769-0.345 0.769-0.77v-3.4611c0-0.425-0.344-0.7692-0.769-0.7692h-3.077c0-0.425-0.344-0.7693-0.769-0.7693h-0.769zm0.384 4.2306c0.213 0 0.385 0.173 0.385 0.385s-0.172 0.384-0.385 0.384c-0.212 0-0.384-0.172-0.384-0.384s0.172-0.385 0.384-0.385zm-5 2.094v1.368c0 0.425 0.345 0.769 0.77 0.769h8.461c0.425 0 0.769-0.344 0.769-0.769v-1.368c-0.227 0.132-0.487 0.214-0.769 0.214h-8.461c-0.282 0-0.542-0.082-0.77-0.214z" fill="#292929"/>
<path d="m205.01 95.897c-0.57 0-1.032 0.462-1.032 1.0319 0 0.57 0.462 1.0319 1.032 1.0319s1.032-0.4619 1.032-1.0319c0-0.5699-0.462-1.0319-1.032-1.0319zm-2.167 1.2383c-0.182 0-0.358 0.0701-0.491 0.1943l-1.724 1.3898v0.0024c-0.229 0.1532-0.365 0.4096-0.365 0.6837 0 0.287 0.15 0.553 0.394 0.7031l1.593 1.083-0.326 1.934c-7e-3 0.033-0.01 0.065-0.01 0.098 0 0.284 0.232 0.516 0.516 0.516 0.274 0 0.5-0.215 0.515-0.488l0.407-2.327v-1e-3c4e-3 -0.024 7e-3 -0.049 7e-3 -0.073 0-0.137-0.068-0.265-0.181-0.341l-1e-3 -2e-3 -1.108-0.8184 1.126-0.994 0.859 0.9497 2e-3 0.0016c0.078 0.108 0.202 0.1717 0.335 0.1717h1.548c0.284 0 0.515-0.2313 0.515-0.5159s-0.231-0.516-0.515-0.516h-1.342l-1.154-1.3301c-0.134-0.2008-0.359-0.3209-0.6-0.3209zm-3.199 3.5083c-1.023 0-1.857 0.835-1.857 1.858s0.834 1.857 1.857 1.857 1.857-0.834 1.857-1.857-0.834-1.858-1.857-1.858zm5.779 0c-1.023 0-1.858 0.835-1.858 1.858s0.835 1.857 1.858 1.857 1.857-0.834 1.857-1.857-0.834-1.858-1.857-1.858zm-5.779 0.413c0.801 0 1.445 0.644 1.445 1.445 0 0.8-0.644 1.444-1.445 1.444s-1.445-0.644-1.445-1.444c0-0.801 0.644-1.445 1.445-1.445zm5.779 0c0.8 0 1.444 0.644 1.444 1.445 0 0.8-0.644 1.444-1.444 1.444-0.801 0-1.445-0.644-1.445-1.444 0-0.801 0.644-1.445 1.445-1.445z" fill="#1B1B1B"/>
<path d="m31.731 112.82c-0.0922 1e-3 -0.1807 0.037-0.2466 0.101l-3.8458 3.146c-0.0044 3e-3 -0.0088 6e-3 -0.0131 0.01l-0.0131 0.011v1e-3c-0.0353 0.033-0.0635 0.072-0.0828 0.117-0.0193 0.044-0.0293 0.092-0.0294 0.14 0 0.094 0.0371 0.183 0.1033 0.249 0.0661 0.067 0.1558 0.104 0.2493 0.104h0.3525v3.878c0 0.389 0.3156 0.705 0.7052 0.705h5.641c0.3896 0 0.7051-0.316 0.7051-0.705v-3.878h0.3526c0.0935 0 0.1832-0.037 0.2493-0.104 0.0661-0.066 0.1032-0.155 0.1032-0.249 1e-4 -0.048-0.0099-0.096-0.0292-0.141-0.0193-0.044-0.0476-0.084-0.083-0.117l-0.0055-4e-3c-0.0077-7e-3 -0.0158-0.014-0.0241-0.02l-1.2684-1.038v-1.5c0-0.195-0.158-0.353-0.3526-0.353h-0.3525c-0.1947 0-0.3526 0.158-0.3526 0.353v0.635l-1.5239-1.246c-0.0649-0.061-0.1503-0.094-0.2389-0.095zm-1.0577 4.936h2.1154v2.821h-2.1154v-2.821z" fill="#292929"/>
<path d="m143.85 146.67c-0.092 0-0.18 0.036-0.246 0.1l-3.846 3.146c-5e-3 3e-3 -9e-3 7e-3 -0.013 0.01l-0.013 0.011v1e-3c-0.036 0.033-0.064 0.073-0.083 0.117s-0.029 0.092-0.03 0.14c0 0.094 0.038 0.183 0.104 0.25 0.066 0.066 0.156 0.103 0.249 0.103h0.353v3.878c0 0.39 0.315 0.705 0.705 0.705h5.641c0.389 0 0.705-0.315 0.705-0.705v-3.878h0.352c0.094 0 0.184-0.037 0.25-0.103 0.066-0.067 0.103-0.156 0.103-0.25 0-0.048-0.01-0.096-0.029-0.141-0.02-0.044-0.048-0.084-0.083-0.117l-6e-3 -4e-3c-7e-3 -7e-3 -0.016-0.014-0.024-0.02l-1.268-1.038v-1.5c0-0.195-0.158-0.353-0.353-0.353h-0.352c-0.195 0-0.353 0.158-0.353 0.353v0.635l-1.524-1.246c-0.065-0.06-0.15-0.094-0.239-0.094zm-1.057 4.936h2.115v2.82h-2.115v-2.82z" fill="#505051"/>
<path d="m54.295 112.82c-0.605 0-1.1037 0.486-1.1037 1.084 0 0.216 0.0611 0.425 0.12 0.6s0.1164 0.338 0.1193 0.36c0 3e-3 0.0452 0.402-0.0661 0.745v2e-3c-0.0194 0.053-0.2063 0.582-0.3363 0.943-0.2946-0.397-0.6762-0.913-0.6941-0.937-0.1861-0.269-0.2551-0.631-0.2551-0.631-0.0029-0.018 0.0014-0.173 0.0036-0.341 0.0029-0.169-7e-4 -0.367-0.0604-0.558-0.1221-0.397-0.4685-0.666-0.8572-0.709-0.1293-0.014-0.263-3e-3 -0.3952 0.037-0.5267 0.16-0.8234 0.724-0.6611 1.252 0.0597 0.192 0.1703 0.357 0.2688 0.495 0.0977 0.138 0.1868 0.264 0.1983 0.292l0.0014 2e-3 0.0015 3e-3s0.1458 0.339 0.1437 0.665l7e-4 -5e-3c-0.0022 0.062-0.0273 0.973-0.0395 1.194l-7e-4 1e-3c-0.0338 0.699 0.1099 1.394 0.3944 2.028 0.2724 0.611 0.4362 1.16 0.4671 1.259l0.0057 0.017c0.0647 0.151 0.2264 0.255 0.4484 0.281 0.1926 0.022 0.4405-0.016 0.7559-0.131 0.4089 0.332 0.919 0.514 1.4637 0.514 0.5748 0 1.1101-0.205 1.5341-0.545 0.3571 0.142 0.6294 0.186 0.8392 0.162 0.2221-0.026 0.3837-0.13 0.4484-0.281l0.0057-0.017c0.0309-0.099 0.1948-0.648 0.4678-1.259v-1e-3c0.2838-0.633 0.4275-1.328 0.3938-2.027v-1e-3c-0.013-0.221-0.0381-1.132-0.0403-1.194l7e-4 5e-3c-0.0021-0.326 0.1438-0.665 0.1438-0.665l0.0014-3e-3 0.0014-2e-3c0.0115-0.028 0.1006-0.154 0.1983-0.292 0.0985-0.138 0.2091-0.303 0.2681-0.495 0.1631-0.528-0.1337-1.092-0.6611-1.252-0.1315-0.04-0.2651-0.051-0.3945-0.037-0.388 0.042-0.735 0.312-0.8572 0.708-0.0596 0.191-0.0632 0.39-0.0603 0.559 0.0028 0.168 0.0071 0.325 0.0035 0.343 0 1e-3 -0.0697 0.36-0.255 0.629-0.0187 0.026-0.4053 0.548-0.7006 0.946-0.1301-0.363-0.314-0.883-0.332-0.935-0.1121-0.345-0.0661-0.748-0.0661-0.748v-5e-3c0.0036-0.037 0.0582-0.196 0.1179-0.372 0.0603-0.175 0.1235-0.382 0.1235-0.599 0-0.598-0.4986-1.084-1.1036-1.084zm0 0.368c0.411 0 0.7358 0.321 0.7358 0.716 0 0.142-0.0475 0.317-0.1035 0.481-0.0553 0.163-0.1207 0.299-0.1358 0.452 0 3e-3 -0.0079 0.083-0.0108 0.191h-0.9736c-0.0022-0.122-0.0122-0.212-0.0122-0.212v-1e-3c-0.0187-0.14-0.0805-0.266-0.1351-0.428-0.0539-0.162-0.1006-0.34-0.1006-0.483 0-0.395 0.3248-0.716 0.7358-0.716zm-3.2924 0.554c0.2946-0.027 0.577 0.156 0.6683 0.452 0.038 0.124 0.0467 0.29 0.0438 0.445-0.0022 0.155-0.0209 0.28 0.0014 0.41v2e-3s0.0165 0.08 0.0474 0.189l-0.786 0.238c-0.0317-0.093-0.0597-0.162-0.0611-0.165l-7e-4 -1e-3c-0.0554-0.132-0.1481-0.235-0.2393-0.363-0.0913-0.129-0.1775-0.268-0.2156-0.39-0.1049-0.34 0.0805-0.69 0.4161-0.791 0.0416-0.013 0.084-0.022 0.1257-0.026zm6.5847 0c0.0417 4e-3 0.0841 0.013 0.1258 0.026 0.3355 0.101 0.5209 0.451 0.416 0.791-0.0381 0.122-0.1243 0.261-0.2156 0.39-0.0912 0.128-0.1839 0.231-0.2392 0.363v1e-3c-0.0022 3e-3 -0.0302 0.072-0.0618 0.165l-0.7861-0.238c0.0309-0.109 0.0474-0.189 0.0474-0.189v-2e-3c0.0223-0.13 0.0036-0.255 0.0014-0.41-0.0028-0.155 0.0058-0.322 0.0439-0.445 0.0919-0.296 0.3743-0.479 0.6682-0.452zm-3.7989 1.654h1.0088c0.0144 0.11 0.0374 0.228 0.0755 0.345l7e-4 3e-3 0.0014 2e-3s0.0058 0.017 0.0065 0.018h-1.1813c7e-4 -3e-3 0.0122-0.035 0.0122-0.035l0.0015-3e-3 7e-4 -3e-3c0.0359-0.11 0.0589-0.222 0.074-0.327zm-1.8948 0.189c0.0381 0.08 0.0834 0.163 0.138 0.242l0.0014 2e-3 0.0022 1e-3c0.0021 4e-3 0.0524 0.072 0.0603 0.082l-1.0081 0.306c7e-4 -0.012 0.0029-0.084 0.0029-0.086v-6e-3c7e-4 -0.102-0.0087-0.199-0.023-0.291l0.8263-0.25zm4.8027 0 0.8264 0.25c-0.0144 0.092-0.0238 0.189-0.023 0.291v6e-3c0 2e-3 0.0021 0.074 0.0028 0.086l-1.0081-0.305c0.0079-0.011 0.0589-0.079 0.0611-0.083l0.0014-1e-3 0.0015-2e-3c0.0546-0.08 0.0998-0.162 0.1379-0.242zm-3.1271 0.547h1.4421c0.0662 0.186 0.1078 0.303 0.184 0.517-0.2587-0.096-0.5353-0.15-0.8235-0.15-0.3599 0-0.7027 0.082-1.0138 0.226 0.0805-0.223 0.1344-0.374 0.2112-0.593zm-1.2409 0.094c0.2091 0.284 0.3945 0.535 0.572 0.773-0.5792 0.437-0.9686 1.118-0.9952 1.885-0.0208 0.595 0.176 1.154 0.5533 1.594-0.1883 0.053-0.3291 0.065-0.4189 0.055-0.1308-0.015-0.1524-0.064-0.1502-0.059-0.0295-0.095-0.1969-0.655-0.4764-1.282v-1e-3c-0.2623-0.583-0.393-1.221-0.3629-1.858v-1e-3c0.0087-0.151 0.0158-0.43 0.0245-0.726l1.2538-0.38zm3.934 0 1.2524 0.38c0.0094 0.297 0.0166 0.577 0.0252 0.727 0.0302 0.637-0.1006 1.275-0.3629 1.858v1e-3c-0.2795 0.627-0.4469 1.187-0.4764 1.282 0.0022-5e-3 -0.0194 0.044-0.1501 0.059-0.1028 0.012-0.2688-3e-3 -0.5016-0.079 0.3758-0.419 0.6151-0.962 0.6359-1.557 0.0223-0.641-0.2055-1.244-0.6431-1.696-0.0948-0.099-0.1976-0.185-0.3061-0.264 0.184-0.246 0.3342-0.449 0.5267-0.711zm-2.1513 1.011c0.2034 0 0.3679 0.164 0.3679 0.368 0 0.202-0.1645 0.367-0.3679 0.367-0.2026 0-0.3672-0.164-0.3672-0.367s0.1646-0.368 0.3672-0.368zm1.103 0.368c0.2026 0 0.3672 0.164 0.3672 0.367s-0.1646 0.368-0.3672 0.368c-0.2034 0-0.3679-0.165-0.3679-0.368s0.1645-0.367 0.3679-0.367zm-0.919 0.735c0.2033 0 0.3679 0.164 0.3679 0.367s-0.1653 0.368-0.3679 0.368c-0.2027 0-0.3679-0.165-0.3679-0.368s0.1645-0.367 0.3679-0.367z" fill="#505051"/>
<path d="m31.731 146.67c-0.6051 0-1.1037 0.485-1.1037 1.083 0 0.216 0.0611 0.425 0.12 0.6 0.0589 0.176 0.1164 0.338 0.1193 0.36 0 3e-3 0.0452 0.402-0.0662 0.745v2e-3c-0.0194 0.054-0.2062 0.582-0.3362 0.943-0.2946-0.397-0.6762-0.912-0.6941-0.937-0.1861-0.269-0.2551-0.631-0.2551-0.631-0.0029-0.018 0.0014-0.173 0.0036-0.341 0.0028-0.169-8e-4 -0.367-0.0604-0.558-0.1221-0.397-0.4685-0.666-0.8572-0.709-0.1293-0.013-0.263-3e-3 -0.3952 0.038-0.5267 0.159-0.8235 0.723-0.6611 1.251 0.0597 0.192 0.1703 0.357 0.2688 0.495 0.0977 0.138 0.1868 0.264 0.1983 0.292l0.0014 2e-3 0.0015 3e-3s0.1458 0.339 0.1437 0.665l7e-4 -5e-3c-0.0022 0.062-0.0273 0.973-0.0395 1.194l-8e-4 1e-3c-0.0337 0.7 0.11 1.394 0.3945 2.028 0.2724 0.611 0.4362 1.161 0.4671 1.259l0.0057 0.017c0.0647 0.151 0.2264 0.255 0.4484 0.281 0.1926 0.022 0.4405-0.016 0.7559-0.131 0.4089 0.332 0.919 0.514 1.4637 0.514 0.5748 0 1.1101-0.205 1.5341-0.545 0.3571 0.142 0.6294 0.186 0.8392 0.162 0.222-0.026 0.3837-0.13 0.4484-0.281l0.0057-0.017c0.0309-0.098 0.1948-0.648 0.4678-1.259v-1e-3c0.2838-0.633 0.4275-1.327 0.3938-2.027v-1e-3c-0.013-0.221-0.0381-1.132-0.0403-1.194l7e-4 5e-3c-0.0021-0.326 0.1437-0.665 0.1437-0.665l0.0015-3e-3 0.0014-2e-3c0.0115-0.028 0.1006-0.154 0.1983-0.292 0.0985-0.138 0.2091-0.303 0.2681-0.495 0.1631-0.528-0.1337-1.092-0.6611-1.251-0.1315-0.041-0.2651-0.052-0.3945-0.038-0.388 0.043-0.735 0.312-0.8572 0.708-0.0596 0.191-0.0632 0.39-0.0604 0.559 0.0029 0.168 0.0072 0.326 0.0036 0.343 0 1e-3 -0.0697 0.36-0.255 0.629-0.0187 0.026-0.4053 0.548-0.7006 0.946-0.1301-0.363-0.314-0.883-0.332-0.935-0.1121-0.345-0.0661-0.748-0.0661-0.748v-5e-3c0.0036-0.037 0.0582-0.196 0.1178-0.372 0.0604-0.175 0.1236-0.382 0.1236-0.599 0-0.598-0.4986-1.083-1.1036-1.083zm0 0.368c0.411 0 0.7357 0.32 0.7357 0.715 0 0.142-0.0474 0.317-0.1034 0.481-0.0554 0.163-0.1207 0.3-0.1358 0.453 0 2e-3 -0.0079 0.082-0.0108 0.19h-0.9736c-0.0022-0.122-0.0122-0.212-0.0122-0.212v-1e-3c-0.0187-0.14-0.0805-0.266-0.1351-0.428-0.0539-0.162-0.1006-0.34-0.1006-0.483 0-0.395 0.3247-0.715 0.7358-0.715zm-3.2924 0.554c0.2946-0.028 0.577 0.155 0.6682 0.452 0.0381 0.123 0.0467 0.289 0.0439 0.444-0.0022 0.155-0.0209 0.28 0.0014 0.411v1e-3s0.0165 0.08 0.0474 0.189l-0.786 0.239c-0.0317-0.094-0.0597-0.163-0.0611-0.166h-7e-4c-0.0554-0.133-0.1481-0.236-0.2393-0.364-0.0913-0.129-0.1775-0.268-0.2156-0.39-0.1049-0.339 0.0805-0.69 0.4161-0.791 0.0416-0.013 0.084-0.022 0.1257-0.025zm6.5847 0c0.0417 3e-3 0.0841 0.012 0.1258 0.025 0.3355 0.101 0.5209 0.452 0.416 0.791-0.0381 0.122-0.1243 0.261-0.2156 0.39-0.0912 0.128-0.1839 0.231-0.2392 0.364-0.0022 3e-3 -0.0302 0.072-0.0618 0.166l-0.7861-0.239c0.0309-0.109 0.0474-0.189 0.0474-0.189v-2e-3c0.0223-0.13 0.0036-0.255 0.0014-0.41-0.0028-0.155 0.0058-0.322 0.0439-0.444 0.0919-0.297 0.3743-0.48 0.6682-0.452zm-3.7989 1.653h1.0088c0.0144 0.11 0.0374 0.228 0.0755 0.345l7e-4 3e-3 0.0014 2e-3s0.0058 0.017 0.0065 0.018h-1.1813c7e-4 -2e-3 0.0122-0.035 0.0122-0.035l0.0015-3e-3 7e-4 -2e-3c0.0359-0.111 0.0589-0.222 0.074-0.328zm-1.8948 0.19c0.0381 0.079 0.0833 0.162 0.138 0.241l0.0014 2e-3 0.0021 2e-3c0.0022 3e-3 0.0525 0.071 0.0604 0.082l-1.0081 0.305c7e-4 -0.012 0.0029-0.084 0.0029-0.086v-6e-3c7e-4 -0.101-0.0087-0.199-0.023-0.29l0.8263-0.25zm4.8027 0 0.8263 0.25c-0.0143 0.091-0.0237 0.189-0.023 0.29v6e-3c0 2e-3 0.0022 0.074 0.0029 0.086l-1.0081-0.305c0.0079-0.011 0.0589-0.079 0.0611-0.082l0.0014-2e-3 0.0015-2e-3c0.0546-0.08 0.0998-0.162 0.1379-0.241zm-3.1271 0.546h1.4421c0.0661 0.187 0.1078 0.303 0.184 0.517-0.2587-0.096-0.5353-0.149-0.8235-0.149-0.3599 0-0.7027 0.081-1.0138 0.225 0.0805-0.223 0.1343-0.373 0.2112-0.593zm-1.2409 0.095c0.2091 0.283 0.3945 0.534 0.572 0.772-0.5792 0.437-0.9686 1.118-0.9952 1.885-0.0209 0.595 0.176 1.154 0.5533 1.594-0.1883 0.053-0.3291 0.066-0.4189 0.055-0.1308-0.015-0.1524-0.063-0.1502-0.058-0.0295-0.096-0.1969-0.656-0.4764-1.283v-1e-3c-0.2623-0.583-0.3931-1.221-0.3629-1.858v-1e-3c0.0086-0.151 0.0158-0.43 0.0245-0.726l1.2538-0.379zm3.934 0 1.2524 0.379c0.0094 0.297 0.0166 0.577 0.0252 0.727 0.0302 0.637-0.1006 1.275-0.3629 1.858v1e-3c-0.2795 0.627-0.4469 1.187-0.4764 1.283 0.0022-5e-3 -0.0194 0.043-0.1501 0.058-0.1028 0.012-0.2688-3e-3 -0.5016-0.079 0.3758-0.418 0.6151-0.962 0.6359-1.557 0.0223-0.641-0.2055-1.243-0.6431-1.696-0.0948-0.099-0.1976-0.185-0.3061-0.264 0.184-0.246 0.3342-0.449 0.5267-0.71zm-2.1513 1.011c0.2034 0 0.3679 0.163 0.3679 0.367 0 0.202-0.1645 0.367-0.3679 0.367-0.2026 0-0.3672-0.164-0.3672-0.367s0.1646-0.367 0.3672-0.367zm1.103 0.367c0.2026 0 0.3671 0.164 0.3671 0.367s-0.1645 0.368-0.3671 0.368c-0.2034 0-0.3679-0.165-0.3679-0.368s0.1645-0.367 0.3679-0.367zm-0.919 0.735c0.2033 0 0.3678 0.164 0.3678 0.367s-0.1652 0.368-0.3678 0.368c-0.2027 0-0.3679-0.165-0.3679-0.368s0.1645-0.367 0.3679-0.367z" fill="#292929"/>
<path d="m75.09 112.82c-0.0916 1e-3 -0.1791 0.038-0.2438 0.103l-1.6595 1.659h-0.0028c-0.3607 0-0.6633 0.273-0.701 0.632l-0.5564 5.288c-0.0437 0.416 0.2825 0.779 0.701 0.779h7.0513c0.4185 0 0.7447-0.363 0.701-0.779l-0.5564-5.288c-0.0377-0.359-0.3403-0.632-0.701-0.632h-0.2314l-1.3069-1.307c-0.0334-0.033-0.0732-0.059-0.117-0.077-0.0437-0.018-0.0906-0.027-0.1378-0.026-0.0841 1e-3 -0.1649 0.033-0.228 0.088l-0.7533 0.666-1.0033-1.003c-0.0334-0.034-0.0731-0.06-0.1169-0.078-0.0437-0.017-0.0906-0.026-0.1378-0.025zm0.0055 0.851 0.9117 0.911h-1.8234l0.9117-0.911zm2.2241 0.338 0.5736 0.573h-0.8889l-0.1564-0.156 0.4717-0.417zm-2.753 1.631c0.2919 0 0.5289 0.237 0.5289 0.529v0.881c0 0.583 0.4745 1.058 1.0576 1.058 0.5832 0 1.0577-0.475 1.0577-1.058v-0.881c0-0.292 0.237-0.529 0.5289-0.529s0.5288 0.237 0.5288 0.529c0 0.23-0.1477 0.424-0.3525 0.496v0.385c0 0.972-0.7908 1.763-1.7629 1.763-0.972 0-1.7628-0.791-1.7628-1.763v-0.385c-0.2048-0.072-0.3525-0.266-0.3525-0.496 0-0.292 0.2369-0.529 0.5288-0.529z" fill="#505051"/>
<path d="m119.51 146.67c-0.092 1e-3 -0.179 0.038-0.244 0.103l-1.66 1.66h-2e-3c-0.361 0-0.664 0.272-0.701 0.631l-0.557 5.288c-0.044 0.416 0.283 0.779 0.701 0.779h7.051c0.419 0 0.745-0.363 0.701-0.779l-0.556-5.288c-0.038-0.359-0.34-0.631-0.701-0.631h-0.231l-1.307-1.307c-0.034-0.034-0.073-0.06-0.117-0.078s-0.091-0.026-0.138-0.026c-0.084 2e-3 -0.165 0.033-0.228 0.088l-0.753 0.666-1.004-1.003c-0.033-0.033-0.073-0.06-0.117-0.078-0.043-0.017-0.09-0.026-0.137-0.025zm5e-3 0.851 0.912 0.912h-1.824l0.912-0.912zm2.224 0.338 0.574 0.574h-0.889l-0.156-0.157 0.471-0.417zm-2.753 1.631c0.292 0 0.529 0.237 0.529 0.529v0.881c0 0.584 0.475 1.058 1.058 1.058s1.057-0.474 1.057-1.058v-0.881c0-0.292 0.237-0.529 0.529-0.529s0.529 0.237 0.529 0.529c0 0.23-0.148 0.424-0.352 0.497v0.384c0 0.972-0.791 1.763-1.763 1.763s-1.763-0.791-1.763-1.763v-0.384c-0.205-0.073-0.353-0.267-0.353-0.497 0-0.292 0.237-0.529 0.529-0.529z" fill="#505051"/>
<path d="m96.292 112.82c-0.1187 3e-3 -0.2313 0.053-0.314 0.138l-1.1616 1.162-0.248-0.248c-0.0421-0.044-0.0925-0.079-0.1483-0.103-0.0558-0.025-0.1158-0.037-0.1766-0.038-0.0607-1e-3 -0.121 0.011-0.1773 0.034-0.0562 0.023-0.1073 0.057-0.1503 0.1s-0.077 0.094-0.0999 0.15c-0.023 0.056-0.0345 0.117-0.0339 0.178 6e-4 0.06 0.0134 0.12 0.0375 0.176s0.0591 0.106 0.1029 0.148l0.571 0.571c0.0856 0.086 0.2018 0.134 0.3229 0.134 0.1212 0 0.2373-0.048 0.323-0.134l1.4845-1.484c0.066-0.064 0.1111-0.147 0.1293-0.237 0.0183-0.09 0.0089-0.184-0.027-0.269-0.0359-0.084-0.0965-0.156-0.174-0.206s-0.1682-0.075-0.2602-0.072zm1.6076 0.689c-0.0605-1e-3 -0.1206 0.011-0.1768 0.033-0.0561 0.023-0.1072 0.056-0.1503 0.099-0.0432 0.042-0.0774 0.093-0.1007 0.149-0.0234 0.056-0.0354 0.116-0.0354 0.176 0 0.061 0.012 0.121 0.0354 0.176 0.0233 0.056 0.0575 0.107 0.1007 0.149 0.0431 0.043 0.0942 0.076 0.1503 0.099 0.0562 0.023 0.1163 0.034 0.1768 0.033h4.5675c0.061 1e-3 0.121-0.01 0.177-0.033s0.107-0.056 0.15-0.099c0.044-0.042 0.078-0.093 0.101-0.149 0.023-0.055 0.036-0.115 0.036-0.176 0-0.06-0.013-0.12-0.036-0.176s-0.057-0.107-0.101-0.149c-0.043-0.043-0.094-0.076-0.15-0.099-0.056-0.022-0.116-0.034-0.177-0.033h-4.5675zm-1.6076 2.394c-0.1187 3e-3 -0.2313 0.053-0.314 0.138l-1.1616 1.162-0.248-0.248c-0.0421-0.044-0.0925-0.079-0.1483-0.103s-0.1158-0.037-0.1766-0.038c-0.0607 0-0.121 0.011-0.1773 0.034-0.0562 0.023-0.1073 0.057-0.1503 0.1s-0.077 0.094-0.0999 0.15c-0.023 0.057-0.0345 0.117-0.0339 0.178s0.0134 0.121 0.0375 0.176c0.0241 0.056 0.0591 0.107 0.1029 0.149l0.571 0.571c0.0856 0.085 0.2018 0.133 0.3229 0.133 0.1212 0 0.2373-0.048 0.323-0.133l1.4845-1.485c0.066-0.064 0.1111-0.147 0.1293-0.237 0.0183-0.09 0.0089-0.184-0.027-0.269-0.0359-0.084-0.0965-0.156-0.174-0.206s-0.1682-0.075-0.2602-0.072zm1.6076 0.804c-0.0605-1e-3 -0.1206 0.01-0.1768 0.033-0.0561 0.022-0.1072 0.056-0.1503 0.098-0.0432 0.043-0.0774 0.093-0.1007 0.149-0.0234 0.056-0.0354 0.116-0.0354 0.176 0 0.061 0.012 0.121 0.0354 0.177 0.0233 0.056 0.0575 0.106 0.1007 0.149 0.0431 0.042 0.0942 0.076 0.1503 0.098 0.0562 0.023 0.1163 0.034 0.1768 0.033h4.5675c0.061 1e-3 0.121-0.01 0.177-0.033 0.056-0.022 0.107-0.056 0.15-0.098 0.044-0.043 0.078-0.093 0.101-0.149s0.036-0.116 0.036-0.177c0-0.06-0.013-0.12-0.036-0.176s-0.057-0.106-0.101-0.149c-0.043-0.042-0.094-0.076-0.15-0.098-0.056-0.023-0.116-0.034-0.177-0.033h-4.5675zm-2.0594 2.277c-0.1207 3e-3 -0.2354 0.053-0.319 0.14l-0.3622 0.363-0.3622-0.363c-0.0426-0.043-0.0936-0.078-0.1499-0.102s-0.1168-0.036-0.178-0.036c-0.0908 0-0.1795 0.027-0.2548 0.078s-0.1338 0.123-0.1679 0.207-0.0424 0.177-0.0238 0.266c0.0187 0.089 0.0634 0.17 0.1285 0.233l0.3622 0.362-0.3622 0.363c-0.0438 0.042-0.0788 0.092-0.1029 0.148-0.0242 0.056-0.0369 0.116-0.0375 0.177-6e-4 0.06 0.0109 0.121 0.0339 0.177 0.0229 0.056 0.0569 0.107 0.0999 0.15 0.0429 0.043 0.0941 0.077 0.1503 0.1 0.0563 0.023 0.1166 0.035 0.1773 0.034 0.0608-1e-3 0.1208-0.013 0.1766-0.037 0.0558-0.025 0.1062-0.06 0.1483-0.103l0.3622-0.363 0.3622 0.363c0.0421 0.043 0.0925 0.078 0.1483 0.103 0.0558 0.024 0.1158 0.036 0.1766 0.037s0.121-0.011 0.1773-0.034 0.1074-0.057 0.1504-0.1c0.0429-0.043 0.0769-0.094 0.0999-0.15 0.0229-0.056 0.0345-0.117 0.0338-0.177-6e-4 -0.061-0.0133-0.121-0.0374-0.177s-0.0591-0.106-0.103-0.148l-0.3622-0.363 0.3622-0.362c0.0665-0.063 0.1121-0.146 0.131-0.236 0.0188-0.09 0.01-0.184-0.0253-0.269-0.0354-0.085-0.0956-0.157-0.1728-0.207-0.0772-0.051-0.1678-0.076-0.2598-0.074zm2.0594 0.92c-0.0605-1e-3 -0.1206 0.01-0.1768 0.033-0.0561 0.023-0.1072 0.056-0.1503 0.099-0.0432 0.042-0.0774 0.093-0.1007 0.149-0.0234 0.055-0.0354 0.115-0.0354 0.176 0 0.06 0.012 0.12 0.0354 0.176 0.0233 0.056 0.0575 0.107 0.1007 0.149 0.0431 0.043 0.0942 0.076 0.1503 0.099 0.0562 0.022 0.1163 0.033 0.1768 0.033h4.5675c0.061 0 0.121-0.011 0.177-0.033 0.056-0.023 0.107-0.056 0.15-0.099 0.044-0.042 0.078-0.093 0.101-0.149s0.036-0.116 0.036-0.176c0-0.061-0.013-0.121-0.036-0.176-0.023-0.056-0.057-0.107-0.101-0.149-0.043-0.043-0.094-0.076-0.15-0.099s-0.116-0.034-0.177-0.033h-4.5675z" fill="#fff"/>
<path d="m120.58 112.82c-1.008 0-1.933 0.356-2.661 0.947l3.101 2.918v-1.729h1.181c0.338 0 0.639 0.083 0.906 0.249 0.266 0.167 0.474 0.404 0.624 0.711 0.149 0.307 0.224 0.656 0.224 1.046v0.193c0 0.391-0.074 0.739-0.22 1.043-0.118 0.244-0.276 0.442-0.471 0.598l0.755 0.711c0.496-0.693 0.792-1.54 0.792-2.456 0-2.333-1.898-4.231-4.231-4.231zm-3.264 1.542c-0.604 0.731-0.967 1.669-0.967 2.689 0 2.333 1.898 4.231 4.231 4.231 1.112 0 2.123-0.435 2.879-1.139l-1.059-0.996c-0.063 7e-3 -0.125 0.013-0.191 0.013h-1.189v-1.313l-1.209-1.138 0.769 2.449h-0.854l-0.231-0.864h-1.213l-0.231 0.864h-0.854l1.19-3.789-1.071-1.007zm4.495 1.295v1.773l0.923 0.867c0.062-0.046 0.12-0.098 0.169-0.165 0.163-0.222 0.247-0.538 0.25-0.95v-0.223c0-0.428-0.08-0.751-0.242-0.971s-0.399-0.331-0.71-0.331h-0.39zm-2.923 0.362-0.418 1.573h0.837l-0.419-1.573z" fill="#505051"/>
<path d="m141.5 112.82c-0.093 0-0.169 0.077-0.169 0.17v5.584h4.569c0.28 0 0.508 0.228 0.508 0.508 0 0.276-0.223 0.502-0.497 0.508-0.054 0.03-0.18 0.217-0.18 0.507 0 0.321 0.212 0.8 0.55 0.836h0.587c0.338-0.28 0.555-0.702 0.555-1.174v-6.769c0-0.093-0.075-0.17-0.169-0.17h-5.754zm-0.338 6.093c-0.467 0-0.846 0.531-0.846 1.184 0 0.654 0.379 1.185 0.846 1.185h4.738c0.094 0 0.215-0.015 0.302-0.032-0.524 0-0.81-0.702-0.81-1.153 0-0.45 0.238-0.846 0.508-0.846 0.094 0 0.169-0.075 0.169-0.169s-0.075-0.169-0.169-0.169h-4.738z" fill="#505051"/>
<path d="m96.024 146.67c-0.0932 0-0.1693 0.076-0.1693 0.169v5.585h4.5688c0.28 0 0.508 0.228 0.508 0.507 0 0.277-0.223 0.502-0.497 0.508-0.054 0.03-0.18 0.217-0.18 0.508 0 0.32 0.212 0.799 0.55 0.835h0.587c0.339-0.279 0.556-0.702 0.556-1.174v-6.769c0-0.093-0.076-0.169-0.17-0.169h-5.7535zm-0.3385 6.092c-0.4667 0-0.8462 0.531-0.8462 1.185 0 0.653 0.3795 1.184 0.8462 1.184h4.738c0.094 0 0.215-0.015 0.302-0.032-0.524 0-0.8092-0.702-0.8092-1.152 0-0.451 0.2372-0.847 0.5072-0.847 0.094 0 0.17-0.075 0.17-0.169s-0.076-0.169-0.17-0.169h-4.738z" fill="#505051"/>
<path d="m170.32 114.29-1.504 1.504c0.26 0.351 0.413 0.785 0.413 1.254 0 0.47-0.153 0.904-0.413 1.255l1.504 1.504c0.639-0.741 1.024-1.705 1.024-2.759 0-1.053-0.385-2.018-1.024-2.758zm-3.207 0.643c0.47 0 0.904 0.152 1.255 0.412l1.504-1.504c-0.741-0.639-1.705-1.024-2.759-1.024-1.053 0-2.018 0.385-2.758 1.024l1.504 1.504c0.351-0.26 0.785-0.412 1.254-0.412zm0 4.231c-0.469 0-0.903-0.153-1.254-0.413l-1.504 1.504c0.74 0.639 1.705 1.024 2.758 1.024 1.054 0 2.018-0.385 2.759-1.024l-1.504-1.504c-0.351 0.26-0.785 0.413-1.255 0.413zm-2.115-2.116c0-0.469 0.152-0.903 0.412-1.254l-1.504-1.504c-0.638 0.74-1.023 1.705-1.023 2.758 0 1.054 0.385 2.018 1.023 2.759l1.504-1.504c-0.26-0.351-0.412-0.785-0.412-1.255z" fill="#505051"/>
<path d="m57.502 148.14-1.504 1.504c0.2602 0.351 0.4125 0.785 0.4125 1.254 0 0.47-0.1523 0.904-0.4125 1.255l1.504 1.504c0.6388-0.74 1.0238-1.705 1.0238-2.759 0-1.053-0.385-2.018-1.0238-2.758zm-3.2069 0.643c0.4696 0 0.9032 0.152 1.2544 0.413l1.504-1.504c-0.7403-0.639-1.705-1.024-2.7584-1.024-1.0535 0-2.0181 0.385-2.7585 1.024l1.5041 1.504c0.3511-0.261 0.7848-0.413 1.2544-0.413zm0 4.231c-0.4696 0-0.9033-0.152-1.2544-0.413l-1.5041 1.504c0.7404 0.639 1.705 1.024 2.7585 1.024 1.0534 0 2.0181-0.385 2.7584-1.024l-1.504-1.504c-0.3512 0.261-0.7848 0.413-1.2544 0.413zm-2.1154-2.116c0-0.469 0.1523-0.903 0.4125-1.254l-1.504-1.504c-0.6389 0.74-1.0239 1.705-1.0239 2.758 0 1.054 0.385 2.019 1.0239 2.759l1.504-1.504c-0.2602-0.351-0.4125-0.785-0.4125-1.255z" fill="#505051"/>
<path d="m191.09 112.82c-2.333 0-4.231 1.898-4.231 4.231s1.898 4.231 4.231 4.231 4.23-1.898 4.23-4.231-1.897-4.231-4.23-4.231zm0.317 6.241c0 0.175-0.142 0.317-0.317 0.317s-0.318-0.142-0.318-0.317v-2.327c0-0.175 0.143-0.317 0.318-0.317s0.317 0.142 0.317 0.317v2.327zm-0.317-3.279c-0.234 0-0.423-0.189-0.423-0.423s0.189-0.423 0.423-0.423c0.233 0 0.423 0.189 0.423 0.423s-0.19 0.423-0.423 0.423z" fill="#292929"/>
<path d="m76.154 146.67c-2.3329 0-4.2308 1.898-4.2308 4.23 0 2.333 1.8979 4.231 4.2308 4.231 2.3328 0 4.2307-1.898 4.2307-4.231 0-2.332-1.8979-4.23-4.2307-4.23zm0.3173 6.24c0 0.175-0.1422 0.317-0.3173 0.317-0.1752 0-0.3173-0.142-0.3173-0.317v-2.327c0-0.175 0.1421-0.317 0.3173-0.317 0.1751 0 0.3173 0.142 0.3173 0.317v2.327zm-0.3173-3.279c-0.2338 0-0.4231-0.189-0.4231-0.423s0.1893-0.423 0.4231-0.423c0.2337 0 0.423 0.189 0.423 0.423s-0.1893 0.423-0.423 0.423z" fill="#505051"/>
<path d="m20.051 129.75c-0.0983 0.017-0.164 0.094-0.1966 0.156l-1.2949 2.566c-0.1662-0.222-0.4234-0.37-0.7226-0.37-0.375 0-0.6879 0.232-0.8324 0.555-0.1128 0-0.2154 0.029-0.318 0.058-0.1344-0.139-0.3064-0.243-0.5145-0.243-0.0932 0-0.1749 0.033-0.2544 0.064-0.0946-0.033-0.1929-0.064-0.3006-0.064-0.4552 0-0.8151 0.341-0.8902 0.775-0.4343 0.075-0.7747 0.435-0.7747 0.89h-0.3699c-0.1019 0-0.185 0.083-0.185 0.185v0.671c0 1.832 1.9684 3.214 3.2431 3.214h2.0233c1.2747 0 3.2431-1.382 3.2431-3.214v-0.671c0-0.102-0.0824-0.185-0.185-0.185h-0.2139c-0.0557-0.182-0.1879-0.33-0.3526-0.427-0.0282-0.345-0.2905-0.618-0.6302-0.665-0.0527-0.125-0.1293-0.233-0.2254-0.324l1.2718-1.792c0.0643-0.093 0.1033-0.258-0.1041-0.405-0.2066-0.146-0.3497-0.025-0.4104 0.07l-1.1967 1.896c-0.0563-0.012-0.1134-0.018-0.1734-0.018-0.245 0-0.4545 0.111-0.6186 0.266-0.0375-0.014-0.0773-0.026-0.1156-0.04l1.4453-2.509c0.0556-0.098 0.0809-0.267-0.1388-0.393-0.0824-0.048-0.1496-0.057-0.2081-0.046zm-2.2141 2.722c0.2688 0 0.4907 0.189 0.5434 0.44l0.0405 0.196 0.1907-0.057c0.0542-0.016 0.1027-0.024 0.1504-0.024 0.0939 0 0.1842 0.025 0.2659 0.07l0.1329 0.075 0.0983-0.121c0.1033-0.128 0.2529-0.209 0.4278-0.209 0.2609 0 0.4762 0.176 0.5376 0.417l0.0347 0.15 0.1503-0.012c0.0354-1e-3 0.0405 0 0.0174 0 0.2066 0 0.3699 0.164 0.3699 0.37 0-0.017-0.0036-8e-3 -0.0057 0.024l-0.0058 0.138 0.1329 0.046c0.0839 0.029 0.1525 0.089 0.1966 0.162h-3.0928c0-0.102-0.0831-0.185-0.185-0.185s-0.185 0.083-0.185 0.185h-3.3298c0-0.308 0.2464-0.555 0.555-0.555h0.185v-0.185c0-0.308 0.2464-0.555 0.5549-0.555 0.0795 0 0.1554 0.016 0.2255 0.047l0.0809 0.04 0.081-0.04c0.0549-0.028 0.1083-0.047 0.1676-0.047 0.1315 0 0.2457 0.065 0.3122 0.168l0.0809 0.127 0.1387-0.052c0.094-0.036 0.1952-0.058 0.3007-0.058 0.031 0 0.0599 3e-3 0.0924 6e-3l0.1619 0.018 0.0405-0.157c0.06-0.242 0.276-0.422 0.5376-0.422zm-2.0349 0.74c-0.1019 0-0.185 0.084-0.185 0.185 0 0.102 0.0831 0.185 0.185 0.185s0.185-0.083 0.185-0.185c0-0.101-0.0831-0.185-0.185-0.185zm0.555 0.37c-0.1019 0-0.185 0.083-0.185 0.185s0.0831 0.185 0.185 0.185 0.185-0.083 0.185-0.185-0.0831-0.185-0.185-0.185zm2.7748 0c-0.1019 0-0.185 0.083-0.185 0.185s0.0831 0.185 0.185 0.185 0.185-0.083 0.185-0.185-0.0831-0.185-0.185-0.185z" fill="#1B1B1B"/>
<path d="m46.718 129.74c-0.1347 0-0.2695 0.051-0.3721 0.153l-4.002 4.003-0.1771 0.921 0.9213-0.177 4.002-4.002c0.0993-0.1 0.1544-0.232 0.1544-0.372 0-0.141-0.0551-0.273-0.1544-0.373-0.1027-0.102-0.2374-0.153-0.3721-0.153zm-6.6058 0.241c-0.7286 0-1.3297 0.601-1.3297 1.33v5.56c0 0.729 0.6011 1.33 1.3297 1.33h5.5608c0.7286 0 1.3297-0.601 1.3297-1.33v-3.989c9e-4 -0.064-0.0109-0.128-0.0348-0.187s-0.0594-0.114-0.1044-0.159c-0.045-0.046-0.0986-0.082-0.1577-0.107s-0.1225-0.037-0.1866-0.037-0.1275 0.012-0.1867 0.037c-0.0591 0.025-0.1127 0.061-0.1577 0.107-0.045 0.045-0.0804 0.1-0.1043 0.159s-0.0358 0.123-0.0349 0.187v3.989c0 0.206-0.1566 0.363-0.3626 0.363h-5.5608c-0.206 0-0.3626-0.157-0.3626-0.363v-5.56c0-0.206 0.1566-0.363 0.3626-0.363h3.9893c0.064 1e-3 0.1277-0.011 0.1871-0.035 0.0595-0.024 0.1136-0.059 0.1592-0.104 0.0457-0.045 0.0819-0.099 0.1066-0.158 0.0248-0.059 0.0375-0.122 0.0375-0.187 0-0.064-0.0127-0.127-0.0375-0.186-0.0247-0.059-0.0609-0.113-0.1066-0.158-0.0456-0.045-0.0997-0.08-0.1592-0.104-0.0594-0.024-0.1231-0.036-0.1871-0.035h-3.9893z" fill="#292929"/>
<path d="m170.82 146.67c-0.135 0-0.269 0.051-0.372 0.153l-4.002 4.003-0.177 0.921 0.921-0.177 4.002-4.002c0.099-0.1 0.155-0.232 0.155-0.372 0-0.141-0.056-0.273-0.155-0.373-0.103-0.102-0.237-0.153-0.372-0.153zm-6.606 0.241c-0.728 0-1.329 0.601-1.329 1.33v5.56c0 0.729 0.601 1.33 1.329 1.33h5.561c0.729 0 1.33-0.601 1.33-1.33v-3.989c1e-3 -0.064-0.011-0.127-0.035-0.187-0.024-0.059-0.059-0.114-0.104-0.159-0.045-0.046-0.099-0.082-0.158-0.107-0.059-0.024-0.123-0.037-0.187-0.037s-0.127 0.013-0.186 0.037c-0.06 0.025-0.113 0.061-0.158 0.107-0.045 0.045-0.081 0.1-0.105 0.159-0.023 0.06-0.035 0.123-0.034 0.187v3.989c0 0.206-0.157 0.363-0.363 0.363h-5.561c-0.206 0-0.362-0.157-0.362-0.363v-5.56c0-0.206 0.156-0.363 0.362-0.363h3.989c0.065 1e-3 0.128-0.011 0.188-0.035 0.059-0.024 0.113-0.059 0.159-0.104 0.045-0.045 0.082-0.099 0.106-0.158 0.025-0.059 0.038-0.122 0.038-0.187 0-0.064-0.013-0.127-0.038-0.186-0.024-0.059-0.061-0.113-0.106-0.158-0.046-0.045-0.1-0.08-0.159-0.104-0.06-0.024-0.123-0.036-0.188-0.035h-3.989z" fill="#505051"/>
<path d="m68.439 129.74c-0.2242 0-0.4484 0.084-0.6181 0.254l-0.3341 0.334c-0.0647 0.065-0.0719 0.168-0.0166 0.241l-0.3909 0.391c-0.2796 0.28-0.5462 0.491-0.802 0.658l1.2993 1.3c0.1667-0.256 0.378-0.522 0.6583-0.803l0.391-0.39c0.0733 0.055 0.176 0.048 0.2407-0.017l0.3342-0.334c0.3399-0.34 0.3399-0.896 0-1.236l-0.1438-0.144c-0.1703-0.17-0.3938-0.255-0.618-0.254zm0 0.365c0.1294 0 0.2587 0.05 0.3586 0.149l0.143 0.144c0.1991 0.199 0.1991 0.517 0 0.716l-0.2041 0.204-0.8595-0.86 0.2034-0.204c0.0999-0.099 0.2292-0.149 0.3586-0.149zm-3.2139 1e-3c-0.1013 0-0.1839 0.083-0.1839 0.184s0.0826 0.184 0.1839 0.184c0.1014 0 0.184-0.083 0.184-0.184s-0.0826-0.184-0.184-0.184zm1.1039 0.552c-0.1013 0-0.184 0.083-0.184 0.184s0.0827 0.184 0.184 0.184 0.184-0.083 0.184-0.184-0.0827-0.184-0.184-0.184zm-0.3787 1.154c-0.2228 0.119-0.4391 0.209-0.6504 0.288l0.4484 1.346 1.3461 0.451c0.0783-0.213 0.1689-0.429 0.2882-0.652l-1.4323-1.433zm-0.9983 0.408c-0.0337 0.012-0.0682 0.023-0.102 0.034-0.6296 0.209-1.2799 0.425-1.9483 1.093l-1.6881 1.688c-0.2933 0.293-0.2933 0.77 0 1.063l1.8829 1.882c0.1466 0.148 0.3392 0.221 0.5318 0.221s0.3852-0.073 0.5318-0.221l1.6874-1.687c0.6691-0.668 0.884-1.319 1.0931-1.948 0.0108-0.033 0.0215-0.067 0.033-0.1l-1.4294-0.479c-0.0546-0.018-0.0977-0.061-0.1157-0.115l-0.4765-1.431zm3.7687 0.462c-0.1013 0-0.184 0.082-0.184 0.184 0 0.101 0.0827 0.184 0.184 0.184s0.184-0.083 0.184-0.184c0-0.102-0.0827-0.184-0.184-0.184zm0.5519 0.736c-0.1013 0-0.1839 0.082-0.1839 0.184 0 0.101 0.0826 0.184 0.1839 0.184 0.1014 0 0.184-0.083 0.184-0.184 0-0.102-0.0826-0.184-0.184-0.184zm-0.9198 0.368c-0.1014 0-0.184 0.082-0.184 0.184 0 0.101 0.0826 0.184 0.184 0.184 0.1013 0 0.1839-0.083 0.1839-0.184 0-0.102-0.0826-0.184-0.1839-0.184zm-3.4956 0.184c0.2034 0 0.3679 0.164 0.3679 0.368 0 0.203-0.1645 0.368-0.3679 0.368s-0.368-0.165-0.368-0.368c0-0.204 0.1646-0.368 0.368-0.368zm-1.4129 0.289 1.4919 1.491-1.1592 1.16-1.4912-1.492 1.1585-1.159z" fill="#505051"/>
<path d="m86.308 129.74v0.928c-1.0944 0.282-1.9038 1.274-1.9038 2.456v2.539l-0.8462 0.846v0.423h6.7692v-0.423l-0.8461-0.846v-2.539c0-1.182-0.8094-2.174-1.9039-2.456v-0.928h-1.2692zm-0.2115 7.615c0 0.465 0.3807 0.846 0.8461 0.846s0.8462-0.381 0.8462-0.846h-1.6923z" fill="#505051"/>
<path d="m190.31 146.67v0.928c-1.094 0.283-1.904 1.274-1.904 2.456v2.539l-0.846 0.846v0.423h6.769v-0.423l-0.846-0.846v-2.539c0-1.182-0.809-2.173-1.904-2.456v-0.928h-1.269zm-0.211 7.615c0 0.465 0.38 0.846 0.846 0.846 0.465 0 0.846-0.381 0.846-0.846h-1.692z" fill="#292929"/>
<path d="m106.41 129.74c-0.74 0-1.342 0.601-1.342 1.341v6.191c0 0.117 0.065 0.223 0.169 0.276 0.103 0.053 0.227 0.044 0.322-0.024l1.994-1.436c-3e-3 -0.052-8e-3 -0.104-8e-3 -0.157 0-0.229 0.032-0.45 0.086-0.662l-1.944 1.399v-5.587c0-0.398 0.324-0.722 0.723-0.722h3.095c0.399 0 0.723 0.324 0.723 0.722v2.167c0.213 0 0.42 0.028 0.619 0.075v-2.242c0-0.74-0.602-1.341-1.342-1.341h-3.095zm3.818 3.921c-1.254 0-2.27 1.016-2.27 2.27s1.016 2.27 2.27 2.27c1.253 0 2.27-1.016 2.27-2.27s-1.017-2.27-2.27-2.27zm0 0.825c0.099 0 0.187 0.063 0.219 0.157l0.23 0.669h0.763c0.1 0 0.188 0.064 0.22 0.158s0 0.199-0.08 0.259l-0.617 0.469 0.209 0.67c0.03 0.096-6e-3 0.2-0.088 0.259-0.04 0.028-0.087 0.042-0.134 0.042-0.049 0-0.098-0.015-0.139-0.046l-0.583-0.437-0.584 0.437c-0.08 0.06-0.191 0.062-0.273 4e-3s-0.117-0.163-0.087-0.259l0.209-0.67-0.618-0.469c-0.08-0.06-0.112-0.164-0.08-0.259 0.032-0.094 0.121-0.158 0.22-0.158h0.763l0.23-0.669c0.032-0.094 0.121-0.157 0.22-0.157z" fill="#505051"/>
<path d="m132.05 129.74c-2.439 0-4.424 1.725-4.424 3.845 0 1.191 0.644 2.323 1.728 3.049-0.024 0.199-0.124 0.698-0.538 1.284-0.038 0.055-0.043 0.126-0.012 0.186 0.03 0.059 0.092 0.097 0.158 0.097h0.012c1.051 0 1.758-0.649 1.984-0.889 0.355 0.078 0.722 0.117 1.092 0.117 2.439 0 4.424-1.724 4.424-3.844 0-2.121-1.985-3.845-4.424-3.845zm-2.122 2.494h4.244c0.106 0 0.193 0.086 0.193 0.193s-0.087 0.193-0.193 0.193h-4.244c-0.107 0-0.193-0.086-0.193-0.193s0.086-0.193 0.193-0.193zm-0.772 1.543c-0.106 0-0.193-0.086-0.193-0.192 0-0.107 0.087-0.193 0.193-0.193h3.28c0.106 0 0.193 0.086 0.193 0.193 0 0.106-0.087 0.192-0.193 0.192h-3.28zm5.016 1.158h-4.244c-0.107 0-0.193-0.086-0.193-0.193s0.086-0.193 0.193-0.193h4.244c0.106 0 0.193 0.086 0.193 0.193s-0.087 0.193-0.193 0.193zm0.772-1.158h-1.351c-0.106 0-0.193-0.086-0.193-0.192 0-0.107 0.087-0.193 0.193-0.193h1.351c0.106 0 0.193 0.086 0.193 0.193 0 0.106-0.087 0.192-0.193 0.192z" fill="#505051"/>
<path d="m157.32 129.74c-0.402-4e-3 -0.811 0.117-1.166 0.384-0.065 0.049-0.062 0.146 5e-3 0.191 0.333 0.224 0.597 0.561 0.726 0.966 0.01 0.03 0.032 0.055 0.061 0.069 0.917 0.442 0.932-0.062 1.631-0.092 0.15-7e-3 0.298 0.017 0.441 0.064 0.087 0.028 0.172-0.053 0.149-0.142-0.232-0.895-1.024-1.432-1.847-1.44zm-2.182 0.546c-0.67 0-1.243 0.428-1.459 1.024-0.025 0.069 0.024 0.141 0.096 0.144 0.31 0.013 0.497-0.097 0.848-0.111 0.485-0.019 0.71 0.155 1.029 0.219 0.295 0.06 0.602 0.011 0.888-0.087 0.056-0.019 0.086-0.08 0.067-0.135-0.208-0.612-0.788-1.054-1.469-1.054zm3.49 1.253h-0.039c-0.424 0.019-0.812 0.441-1.463 0.21-0.071-0.026-0.154 0.023-0.155 0.112-1e-3 0.065 0.052 0.118 0.116 0.118 1.363 8e-3 1.739-0.011 1.929 4e-3 0.184 0.015 0.274-0.219 0.148-0.29-0.167-0.093-0.345-0.154-0.536-0.154zm-3.915 0.085c-0.121-1e-3 -0.261 0.014-0.432 0.052-0.205 0.047-0.38 0.073-0.58 0.055-0.061-5e-3 -0.114 0.044-0.114 0.105v0.042c2e-3 0.058 0.052 0.104 0.11 0.102 0.162-6e-3 0.64 1e-3 2.885-2e-3 0.058 0 0.105-0.045 0.107-0.103 2e-3 -0.078-0.07-0.128-0.139-0.107-0.311 0.096-0.637 0.134-0.954 0.07-0.329-0.066-0.519-0.211-0.883-0.214zm-0.969 0.636c-0.293 0-0.55 0.198-0.624 0.481-0.261 0.994-0.046 2.037 0.59 2.86 1.327 1.72 3.922 1.721 5.249 1e-3 0.636-0.824 0.851-1.867 0.591-2.861-0.074-0.283-0.331-0.481-0.625-0.481h-5.181zm0.441 1.602c0.066 2e-3 0.123 0.05 0.134 0.117 0.06 0.356 0.21 0.696 0.433 0.984 0.072 0.094 3e-3 0.228-0.112 0.228-0.042 0-0.084-0.019-0.111-0.055-0.252-0.325-0.42-0.709-0.488-1.11-0.013-0.077 0.039-0.149 0.116-0.162 0.01-2e-3 0.019-3e-3 0.028-2e-3zm0.925 1.5c0.027 1e-3 0.054 0.01 0.078 0.027 0.01 8e-3 0.02 0.015 0.031 0.022 0.063 0.045 0.078 0.133 0.033 0.197-0.045 0.063-0.132 0.079-0.197 0.033-0.011-8e-3 -0.023-0.016-0.034-0.025-0.063-0.046-0.076-0.134-0.03-0.197 0.029-0.039 0.074-0.059 0.119-0.057zm0.605 1.761c-0.056 1e-3 -0.108 0.036-0.129 0.09-0.098 0.257-0.242 0.496-0.427 0.706h-0.497c-0.081 0-0.146 0.068-0.141 0.15 5e-3 0.075 0.071 0.132 0.146 0.132h3.34c0.075 0 0.14-0.057 0.145-0.132 5e-3 -0.082-0.06-0.15-0.141-0.15h-0.5c-0.186-0.21-0.33-0.449-0.428-0.706-0.023-0.062-0.088-0.099-0.153-0.088-0.395 0.065-0.802 0.064-1.19 0-9e-3 -2e-3 -0.017-2e-3 -0.025-2e-3z" fill="#fff"/>
<path d="m179.36 129.74c-0.738 0-1.336 0.598-1.336 1.336v2.672c0 0.738 0.598 1.336 1.336 1.336s1.336-0.598 1.336-1.336v-2.672c0-0.738-0.598-1.336-1.336-1.336zm-2.633 4.008c-0.27 0-0.487 0.239-0.443 0.506 0.218 1.336 1.286 2.384 2.631 2.576v0.926c0 0.246 0.199 0.445 0.445 0.445s0.445-0.199 0.445-0.445v-0.926c1.345-0.192 2.413-1.24 2.632-2.576 0.043-0.267-0.174-0.506-0.444-0.506-0.22 0-0.401 0.162-0.438 0.379-0.181 1.049-1.094 1.847-2.195 1.847-1.1 0-2.014-0.798-2.194-1.847-0.037-0.217-0.218-0.379-0.439-0.379z" fill="#292929"/>
<path d="m201.77 129.74c-0.427 0-0.837 0.169-1.139 0.472-0.302 0.302-0.472 0.712-0.472 1.139 0 0.428 0.17 0.838 0.472 1.14s0.712 0.472 1.139 0.472c0.428 0 0.838-0.17 1.14-0.472s0.472-0.712 0.472-1.14c0-0.427-0.17-0.837-0.472-1.139-0.302-0.303-0.712-0.472-1.14-0.472zm0 4.432c-1.265 0-3.626 0.623-3.626 1.813v0.604c0 0.223 0.181 0.403 0.403 0.403h3.447c0.16 0 0.312-0.063 0.425-0.176l1.793-1.793c0.106-0.106 0.077-0.29-0.06-0.349-0.765-0.332-1.721-0.502-2.382-0.502zm4.113 0.403c-0.051 0-0.103 0.019-0.142 0.059l-0.403 0.403 0.806 0.806 0.403-0.403c0.078-0.079 0.078-0.207 0-0.285l-0.521-0.521c-0.04-0.04-0.091-0.059-0.143-0.059zm-0.83 0.747-2.074 2.073v0.806h0.806l2.074-2.074-0.806-0.805z" fill="#1B1B1B"/>
<path d="m63.744 62.051v0.9288c-1.0945 0.2821-1.9039 1.2732-1.9039 2.4558v2.5384l-0.8461 0.8462v0.4231h6.7692v-0.4231l-0.8462-0.8462v-2.5384c0-1.1826-0.8094-2.1737-1.9038-2.4558v-0.9288h-1.2692zm-0.2116 7.6154c0 0.4653 0.3808 0.8461 0.8462 0.8461s0.8461-0.3808 0.8461-0.8461h-1.6923z" fill="#505051"/>
</svg>
